<svg version="1.1"
baseProfile="full"
width="900" height="900" xmlns="http://www.w3.org/2000/svg">
<polygon points="400,0 0,692.82 800,692.82" fill="white"  stroke="black" stroke-width="1.6" 
/>
<rect width="50" height="33" y="659.82" x="19.4118" stroke="black" stroke-width="1.6" fill="cornflowerblue"/>
<rect width="50" height="33" y="659.82" x="69.4118" stroke="black" stroke-width="1.6" fill="cornflowerblue"/>
<rect width="50" height="33" y="659.82" x="119.412" stroke="black" stroke-width="1.6" fill="cornflowerblue"/>
<rect width="50" height="33" y="659.82" x="169.412" stroke="black" stroke-width="1.6" fill="cornflowerblue"/>
<rect width="50" height="33" y="659.82" x="219.412" stroke="black" stroke-width="1.6" fill="cornflowerblue"/>
<rect width="50" height="33" y="659.82" x="269.412" stroke="black" stroke-width="1.6" fill="cornflowerblue"/>
<rect width="50" height="33" y="659.82" x="319.412" stroke="black" stroke-width="1.6" fill="cornflowerblue"/>
<rect width="50" height="33" y="659.82" x="369.412" stroke="black" stroke-width="1.6" fill="cornflowerblue"/>
<rect width="50" height="33" y="659.82" x="419.412" stroke="black" stroke-width="1.6" fill="cornflowerblue"/>
<rect width="50" height="33" y="659.82" x="469.412" stroke="black" stroke-width="1.6" fill="cornflowerblue"/>
<rect width="50" height="33" y="659.82" x="519.412" stroke="black" stroke-width="1.6" fill="cornflowerblue"/>
<rect width="50" height="33" y="659.82" x="569.412" stroke="black" stroke-width="1.6" fill="cornflowerblue"/>
<rect width="50" height="33" y="659.82" x="619.412" stroke="black" stroke-width="1.6" fill="cornflowerblue"/>
<rect width="50" height="33" y="659.82" x="669.412" stroke="black" stroke-width="1.6" fill="cornflowerblue"/>
<rect width="50" height="33" y="659.82" x="719.412" stroke="black" stroke-width="1.6" fill="cornflowerblue"/>
<rect width="50" height="33" y="626.82" x="38.8235" stroke="black" stroke-width="1.6" fill="cornflowerblue"/>
<rect width="50" height="33" y="626.82" x="88.8235" stroke="black" stroke-width="1.6" fill="cornflowerblue"/>
<rect width="50" height="33" y="626.82" x="138.824" stroke="black" stroke-width="1.6" fill="cornflowerblue"/>
<rect width="50" height="33" y="626.82" x="188.824" stroke="black" stroke-width="1.6" fill="cornflowerblue"/>
<rect width="50" height="33" y="626.82" x="238.824" stroke="black" stroke-width="1.6" fill="cornflowerblue"/>
<rect width="50" height="33" y="626.82" x="288.824" stroke="black" stroke-width="1.6" fill="cornflowerblue"/>
<rect width="50" height="33" y="626.82" x="338.824" stroke="black" stroke-width="1.6" fill="cornflowerblue"/>
<rect width="50" height="33" y="626.82" x="388.824" stroke="black" stroke-width="1.6" fill="cornflowerblue"/>
<rect width="50" height="33" y="626.82" x="438.824" stroke="black" stroke-width="1.6" fill="cornflowerblue"/>
<rect width="50" height="33" y="626.82" x="488.824" stroke="black" stroke-width="1.6" fill="cornflowerblue"/>
<rect width="50" height="33" y="626.82" x="538.824" stroke="black" stroke-width="1.6" fill="cornflowerblue"/>
<rect width="50" height="33" y="626.82" x="588.824" stroke="black" stroke-width="1.6" fill="cornflowerblue"/>
<rect width="50" height="33" y="626.82" x="638.824" stroke="black" stroke-width="1.6" fill="cornflowerblue"/>
<rect width="50" height="33" y="626.82" x="688.824" stroke="black" stroke-width="1.6" fill="cornflowerblue"/>
<rect width="50" height="33" y="593.82" x="58.2353" stroke="black" stroke-width="1.6" fill="cornflowerblue"/>
<rect width="50" height="33" y="593.82" x="108.235" stroke="black" stroke-width="1.6" fill="cornflowerblue"/>
<rect width="50" height="33" y="593.82" x="158.235" stroke="black" stroke-width="1.6" fill="cornflowerblue"/>
<rect width="50" height="33" y="593.82" x="208.235" stroke="black" stroke-width="1.6" fill="cornflowerblue"/>
<rect width="50" height="33" y="593.82" x="258.235" stroke="black" stroke-width="1.6" fill="cornflowerblue"/>
<rect width="50" height="33" y="593.82" x="308.235" stroke="black" stroke-width="1.6" fill="cornflowerblue"/>
<rect width="50" height="33" y="593.82" x="358.235" stroke="black" stroke-width="1.6" fill="cornflowerblue"/>
<rect width="50" height="33" y="593.82" x="408.235" stroke="black" stroke-width="1.6" fill="cornflowerblue"/>
<rect width="50" height="33" y="593.82" x="458.235" stroke="black" stroke-width="1.6" fill="cornflowerblue"/>
<rect width="50" height="33" y="593.82" x="508.235" stroke="black" stroke-width="1.6" fill="cornflowerblue"/>
<rect width="50" height="33" y="593.82" x="558.235" stroke="black" stroke-width="1.6" fill="cornflowerblue"/>
<rect width="50" height="33" y="593.82" x="608.235" stroke="black" stroke-width="1.6" fill="cornflowerblue"/>
<rect width="50" height="33" y="593.82" x="658.235" stroke="black" stroke-width="1.6" fill="cornflowerblue"/>
<rect width="50" height="33" y="560.82" x="77.6471" stroke="black" stroke-width="1.6" fill="cornflowerblue"/>
<rect width="50" height="33" y="560.82" x="127.647" stroke="black" stroke-width="1.6" fill="cornflowerblue"/>
<rect width="50" height="33" y="560.82" x="177.647" stroke="black" stroke-width="1.6" fill="cornflowerblue"/>
<rect width="50" height="33" y="560.82" x="227.647" stroke="black" stroke-width="1.6" fill="cornflowerblue"/>
<rect width="50" height="33" y="560.82" x="277.647" stroke="black" stroke-width="1.6" fill="cornflowerblue"/>
<rect width="50" height="33" y="560.82" x="327.647" stroke="black" stroke-width="1.6" fill="cornflowerblue"/>
<rect width="50" height="33" y="560.82" x="377.647" stroke="black" stroke-width="1.6" fill="cornflowerblue"/>
<rect width="50" height="33" y="560.82" x="427.647" stroke="black" stroke-width="1.6" fill="cornflowerblue"/>
<rect width="50" height="33" y="560.82" x="477.647" stroke="black" stroke-width="1.6" fill="cornflowerblue"/>
<rect width="50" height="33" y="560.82" x="527.647" stroke="black" stroke-width="1.6" fill="cornflowerblue"/>
<rect width="50" height="33" y="560.82" x="577.647" stroke="black" stroke-width="1.6" fill="cornflowerblue"/>
<rect width="50" height="33" y="560.82" x="627.647" stroke="black" stroke-width="1.6" fill="cornflowerblue"/>
<rect width="50" height="33" y="527.82" x="97.0588" stroke="black" stroke-width="1.6" fill="cornflowerblue"/>
<rect width="50" height="33" y="527.82" x="147.059" stroke="black" stroke-width="1.6" fill="cornflowerblue"/>
<rect width="50" height="33" y="527.82" x="197.059" stroke="black" stroke-width="1.6" fill="cornflowerblue"/>
<rect width="50" height="33" y="527.82" x="247.059" stroke="black" stroke-width="1.6" fill="cornflowerblue"/>
<rect width="50" height="33" y="527.82" x="297.059" stroke="black" stroke-width="1.6" fill="cornflowerblue"/>
<rect width="50" height="33" y="527.82" x="347.059" stroke="black" stroke-width="1.6" fill="cornflowerblue"/>
<rect width="50" height="33" y="527.82" x="397.059" stroke="black" stroke-width="1.6" fill="cornflowerblue"/>
<rect width="50" height="33" y="527.82" x="447.059" stroke="black" stroke-width="1.6" fill="cornflowerblue"/>
<rect width="50" height="33" y="527.82" x="497.059" stroke="black" stroke-width="1.6" fill="cornflowerblue"/>
<rect width="50" height="33" y="527.82" x="547.059" stroke="black" stroke-width="1.6" fill="cornflowerblue"/>
<rect width="50" height="33" y="527.82" x="597.059" stroke="black" stroke-width="1.6" fill="cornflowerblue"/>
<rect width="50" height="33" y="527.82" x="647.059" stroke="black" stroke-width="1.6" fill="cornflowerblue"/>
<rect width="50" height="33" y="494.82" x="116.471" stroke="black" stroke-width="1.6" fill="cornflowerblue"/>
<rect width="50" height="33" y="494.82" x="166.471" stroke="black" stroke-width="1.6" fill="cornflowerblue"/>
<rect width="50" height="33" y="494.82" x="216.471" stroke="black" stroke-width="1.6" fill="cornflowerblue"/>
<rect width="50" height="33" y="494.82" x="266.471" stroke="black" stroke-width="1.6" fill="cornflowerblue"/>
<rect width="50" height="33" y="494.82" x="316.471" stroke="black" stroke-width="1.6" fill="cornflowerblue"/>
<rect width="50" height="33" y="494.82" x="366.471" stroke="black" stroke-width="1.6" fill="cornflowerblue"/>
<rect width="50" height="33" y="494.82" x="416.471" stroke="black" stroke-width="1.6" fill="cornflowerblue"/>
<rect width="50" height="33" y="494.82" x="466.471" stroke="black" stroke-width="1.6" fill="cornflowerblue"/>
<rect width="50" height="33" y="494.82" x="516.471" stroke="black" stroke-width="1.6" fill="cornflowerblue"/>
<rect width="50" height="33" y="494.82" x="566.471" stroke="black" stroke-width="1.6" fill="cornflowerblue"/>
<rect width="50" height="33" y="494.82" x="616.471" stroke="black" stroke-width="1.6" fill="cornflowerblue"/>
<rect width="50" height="33" y="461.82" x="135.882" stroke="black" stroke-width="1.6" fill="cornflowerblue"/>
<rect width="50" height="33" y="461.82" x="185.882" stroke="black" stroke-width="1.6" fill="cornflowerblue"/>
<rect width="50" height="33" y="461.82" x="235.882" stroke="black" stroke-width="1.6" fill="cornflowerblue"/>
<rect width="50" height="33" y="461.82" x="285.882" stroke="black" stroke-width="1.6" fill="cornflowerblue"/>
<rect width="50" height="33" y="461.82" x="335.882" stroke="black" stroke-width="1.6" fill="cornflowerblue"/>
<rect width="50" height="33" y="461.82" x="385.882" stroke="black" stroke-width="1.6" fill="cornflowerblue"/>
<rect width="50" height="33" y="461.82" x="435.882" stroke="black" stroke-width="1.6" fill="cornflowerblue"/>
<rect width="50" height="33" y="461.82" x="485.882" stroke="black" stroke-width="1.6" fill="cornflowerblue"/>
<rect width="50" height="33" y="461.82" x="535.882" stroke="black" stroke-width="1.6" fill="cornflowerblue"/>
<rect width="50" height="33" y="461.82" x="585.882" stroke="black" stroke-width="1.6" fill="cornflowerblue"/>
<rect width="50" height="33" y="428.82" x="155.294" stroke="black" stroke-width="1.6" fill="cornflowerblue"/>
<rect width="50" height="33" y="428.82" x="205.294" stroke="black" stroke-width="1.6" fill="cornflowerblue"/>
<rect width="50" height="33" y="428.82" x="255.294" stroke="black" stroke-width="1.6" fill="cornflowerblue"/>
<rect width="50" height="33" y="428.82" x="305.294" stroke="black" stroke-width="1.6" fill="cornflowerblue"/>
<rect width="50" height="33" y="428.82" x="355.294" stroke="black" stroke-width="1.6" fill="cornflowerblue"/>
<rect width="50" height="33" y="428.82" x="405.294" stroke="black" stroke-width="1.6" fill="cornflowerblue"/>
<rect width="50" height="33" y="428.82" x="455.294" stroke="black" stroke-width="1.6" fill="cornflowerblue"/>
<rect width="50" height="33" y="428.82" x="505.294" stroke="black" stroke-width="1.6" fill="cornflowerblue"/>
<rect width="50" height="33" y="428.82" x="555.294" stroke="black" stroke-width="1.6" fill="cornflowerblue"/>
<rect width="50" height="33" y="395.82" x="174.706" stroke="black" stroke-width="1.6" fill="cornflowerblue"/>
<rect width="50" height="33" y="395.82" x="224.706" stroke="black" stroke-width="1.6" fill="cornflowerblue"/>
<rect width="50" height="33" y="395.82" x="274.706" stroke="black" stroke-width="1.6" fill="cornflowerblue"/>
<rect width="50" height="33" y="395.82" x="324.706" stroke="black" stroke-width="1.6" fill="cornflowerblue"/>
<rect width="50" height="33" y="395.82" x="374.706" stroke="black" stroke-width="1.6" fill="cornflowerblue"/>
<rect width="50" height="33" y="395.82" x="424.706" stroke="black" stroke-width="1.6" fill="cornflowerblue"/>
<rect width="50" height="33" y="395.82" x="474.706" stroke="black" stroke-width="1.6" fill="cornflowerblue"/>
<rect width="50" height="33" y="395.82" x="524.706" stroke="black" stroke-width="1.6" fill="cornflowerblue"/>
<rect width="50" height="33" y="395.82" x="574.706" stroke="black" stroke-width="1.6" fill="cornflowerblue"/>
<rect width="50" height="33" y="362.82" x="194.118" stroke="black" stroke-width="1.6" fill="cornflowerblue"/>
<rect width="50" height="33" y="362.82" x="244.118" stroke="black" stroke-width="1.6" fill="cornflowerblue"/>
<rect width="50" height="33" y="362.82" x="294.118" stroke="black" stroke-width="1.6" fill="cornflowerblue"/>
<rect width="50" height="33" y="362.82" x="344.118" stroke="black" stroke-width="1.6" fill="cornflowerblue"/>
<rect width="50" height="33" y="362.82" x="394.118" stroke="black" stroke-width="1.6" fill="cornflowerblue"/>
<rect width="50" height="33" y="362.82" x="444.118" stroke="black" stroke-width="1.6" fill="cornflowerblue"/>
<rect width="50" height="33" y="362.82" x="494.118" stroke="black" stroke-width="1.6" fill="cornflowerblue"/>
<rect width="50" height="33" y="362.82" x="544.118" stroke="black" stroke-width="1.6" fill="cornflowerblue"/>
<rect width="50" height="33" y="329.82" x="213.529" stroke="black" stroke-width="1.6" fill="cornflowerblue"/>
<rect width="50" height="33" y="329.82" x="263.529" stroke="black" stroke-width="1.6" fill="cornflowerblue"/>
<rect width="50" height="33" y="329.82" x="313.529" stroke="black" stroke-width="1.6" fill="cornflowerblue"/>
<rect width="50" height="33" y="329.82" x="363.529" stroke="black" stroke-width="1.6" fill="cornflowerblue"/>
<rect width="50" height="33" y="329.82" x="413.529" stroke="black" stroke-width="1.6" fill="cornflowerblue"/>
<rect width="50" height="33" y="329.82" x="463.529" stroke="black" stroke-width="1.6" fill="cornflowerblue"/>
<rect width="50" height="33" y="329.82" x="513.529" stroke="black" stroke-width="1.6" fill="cornflowerblue"/>
<rect width="50" height="33" y="296.82" x="232.941" stroke="black" stroke-width="1.6" fill="cornflowerblue"/>
<rect width="50" height="33" y="296.82" x="282.941" stroke="black" stroke-width="1.6" fill="cornflowerblue"/>
<rect width="50" height="33" y="296.82" x="332.941" stroke="black" stroke-width="1.6" fill="cornflowerblue"/>
<rect width="50" height="33" y="296.82" x="382.941" stroke="black" stroke-width="1.6" fill="cornflowerblue"/>
<rect width="50" height="33" y="296.82" x="432.941" stroke="black" stroke-width="1.6" fill="cornflowerblue"/>
<rect width="50" height="33" y="296.82" x="482.941" stroke="black" stroke-width="1.6" fill="cornflowerblue"/>
<rect width="50" height="33" y="263.82" x="252.353" stroke="black" stroke-width="1.6" fill="cornflowerblue"/>
<rect width="50" height="33" y="263.82" x="302.353" stroke="black" stroke-width="1.6" fill="cornflowerblue"/>
<rect width="50" height="33" y="263.82" x="352.353" stroke="black" stroke-width="1.6" fill="cornflowerblue"/>
<rect width="50" height="33" y="263.82" x="402.353" stroke="black" stroke-width="1.6" fill="cornflowerblue"/>
<rect width="50" height="33" y="263.82" x="452.353" stroke="black" stroke-width="1.6" fill="cornflowerblue"/>
<rect width="50" height="33" y="230.82" x="271.765" stroke="black" stroke-width="1.6" fill="cornflowerblue"/>
<rect width="50" height="33" y="230.82" x="321.765" stroke="black" stroke-width="1.6" fill="cornflowerblue"/>
<rect width="50" height="33" y="230.82" x="371.765" stroke="black" stroke-width="1.6" fill="cornflowerblue"/>
<rect width="50" height="33" y="230.82" x="421.765" stroke="black" stroke-width="1.6" fill="cornflowerblue"/>
<rect width="50" height="33" y="230.82" x="471.765" stroke="black" stroke-width="1.6" fill="cornflowerblue"/>
<rect width="50" height="33" y="197.82" x="291.176" stroke="black" stroke-width="1.6" fill="cornflowerblue"/>
<rect width="50" height="33" y="197.82" x="341.176" stroke="black" stroke-width="1.6" fill="cornflowerblue"/>
<rect width="50" height="33" y="197.82" x="391.176" stroke="black" stroke-width="1.6" fill="cornflowerblue"/>
<rect width="50" height="33" y="197.82" x="441.176" stroke="black" stroke-width="1.6" fill="cornflowerblue"/>
<rect width="50" height="33" y="164.82" x="310.588" stroke="black" stroke-width="1.6" fill="cornflowerblue"/>
<rect width="50" height="33" y="164.82" x="360.588" stroke="black" stroke-width="1.6" fill="cornflowerblue"/>
<rect width="50" height="33" y="164.82" x="410.588" stroke="black" stroke-width="1.6" fill="cornflowerblue"/>
<rect width="50" height="33" y="131.82" x="330" stroke="black" stroke-width="1.6" fill="cornflowerblue"/>
<rect width="50" height="33" y="131.82" x="380" stroke="black" stroke-width="1.6" fill="cornflowerblue"/>
<rect width="50" height="33" y="98.8203" x="349.412" stroke="black" stroke-width="1.6" fill="cornflowerblue"/>
<rect width="50" height="33" y="98.8203" x="399.412" stroke="black" stroke-width="1.6" fill="cornflowerblue"/>
<rect width="50" height="33" y="65.8203" x="368.824" stroke="black" stroke-width="1.6" fill="cornflowerblue"/>
 </svg>