<svg version="1.1"
baseProfile="full"
width="700" height="800" xmlns="http://www.w3.org/2000/svg">
<rect width="500" height="600" y="0" x="0" stroke="black" stroke-width="1.6" fill="white"/>
<rect width="50" height="33" y="0" x="0" stroke="black" stroke-width="1.6" fill="cornflowerblue"/>
<rect width="50" height="33" y="33" x="0" stroke="black" stroke-width="1.6" fill="cornflowerblue"/>
<rect width="50" height="33" y="66" x="0" stroke="black" stroke-width="1.6" fill="cornflowerblue"/>
<rect width="50" height="33" y="99" x="0" stroke="black" stroke-width="1.6" fill="cornflowerblue"/>
<rect width="50" height="33" y="132" x="0" stroke="black" stroke-width="1.6" fill="cornflowerblue"/>
<rect width="50" height="33" y="165" x="0" stroke="black" stroke-width="1.6" fill="cornflowerblue"/>
<rect width="50" height="33" y="198" x="0" stroke="black" stroke-width="1.6" fill="cornflowerblue"/>
<rect width="50" height="33" y="231" x="0" stroke="black" stroke-width="1.6" fill="cornflowerblue"/>
<rect width="50" height="33" y="264" x="0" stroke="black" stroke-width="1.6" fill="cornflowerblue"/>
<rect width="50" height="33" y="297" x="0" stroke="black" stroke-width="1.6" fill="cornflowerblue"/>
<rect width="50" height="33" y="330" x="0" stroke="black" stroke-width="1.6" fill="cornflowerblue"/>
<rect width="50" height="33" y="363" x="0" stroke="black" stroke-width="1.6" fill="cornflowerblue"/>
<rect width="50" height="33" y="396" x="0" stroke="black" stroke-width="1.6" fill="cornflowerblue"/>
<rect width="50" height="33" y="429" x="0" stroke="black" stroke-width="1.6" fill="cornflowerblue"/>
<rect width="50" height="33" y="462" x="0" stroke="black" stroke-width="1.6" fill="cornflowerblue"/>
<rect width="50" height="33" y="495" x="0" stroke="black" stroke-width="1.6" fill="cornflowerblue"/>
<rect width="50" height="33" y="528" x="0" stroke="black" stroke-width="1.6" fill="cornflowerblue"/>
<rect width="50" height="33" y="561" x="0" stroke="black" stroke-width="1.6" fill="cornflowerblue"/>
<rect width="50" height="33" y="0" x="50" stroke="black" stroke-width="1.6" fill="cornflowerblue"/>
<rect width="50" height="33" y="33" x="50" stroke="black" stroke-width="1.6" fill="cornflowerblue"/>
<rect width="50" height="33" y="66" x="50" stroke="black" stroke-width="1.6" fill="cornflowerblue"/>
<rect width="50" height="33" y="99" x="50" stroke="black" stroke-width="1.6" fill="cornflowerblue"/>
<rect width="50" height="33" y="132" x="50" stroke="black" stroke-width="1.6" fill="cornflowerblue"/>
<rect width="50" height="33" y="165" x="50" stroke="black" stroke-width="1.6" fill="cornflowerblue"/>
<rect width="50" height="33" y="198" x="50" stroke="black" stroke-width="1.6" fill="cornflowerblue"/>
<rect width="50" height="33" y="231" x="50" stroke="black" stroke-width="1.6" fill="cornflowerblue"/>
<rect width="50" height="33" y="264" x="50" stroke="black" stroke-width="1.6" fill="cornflowerblue"/>
<rect width="50" height="33" y="297" x="50" stroke="black" stroke-width="1.6" fill="cornflowerblue"/>
<rect width="50" height="33" y="330" x="50" stroke="black" stroke-width="1.6" fill="cornflowerblue"/>
<rect width="50" height="33" y="363" x="50" stroke="black" stroke-width="1.6" fill="cornflowerblue"/>
<rect width="50" height="33" y="396" x="50" stroke="black" stroke-width="1.6" fill="cornflowerblue"/>
<rect width="50" height="33" y="429" x="50" stroke="black" stroke-width="1.6" fill="cornflowerblue"/>
<rect width="50" height="33" y="462" x="50" stroke="black" stroke-width="1.6" fill="cornflowerblue"/>
<rect width="50" height="33" y="495" x="50" stroke="black" stroke-width="1.6" fill="cornflowerblue"/>
<rect width="50" height="33" y="528" x="50" stroke="black" stroke-width="1.6" fill="cornflowerblue"/>
<rect width="50" height="33" y="561" x="50" stroke="black" stroke-width="1.6" fill="cornflowerblue"/>
<rect width="50" height="33" y="0" x="100" stroke="black" stroke-width="1.6" fill="cornflowerblue"/>
<rect width="50" height="33" y="33" x="100" stroke="black" stroke-width="1.6" fill="cornflowerblue"/>
<rect width="50" height="33" y="66" x="100" stroke="black" stroke-width="1.6" fill="cornflowerblue"/>
<rect width="50" height="33" y="99" x="100" stroke="black" stroke-width="1.6" fill="cornflowerblue"/>
<rect width="50" height="33" y="132" x="100" stroke="black" stroke-width="1.6" fill="cornflowerblue"/>
<rect width="50" height="33" y="165" x="100" stroke="black" stroke-width="1.6" fill="cornflowerblue"/>
<rect width="50" height="33" y="198" x="100" stroke="black" stroke-width="1.6" fill="cornflowerblue"/>
<rect width="50" height="33" y="231" x="100" stroke="black" stroke-width="1.6" fill="cornflowerblue"/>
<rect width="50" height="33" y="264" x="100" stroke="black" stroke-width="1.6" fill="cornflowerblue"/>
<rect width="50" height="33" y="297" x="100" stroke="black" stroke-width="1.6" fill="cornflowerblue"/>
<rect width="50" height="33" y="330" x="100" stroke="black" stroke-width="1.6" fill="cornflowerblue"/>
<rect width="50" height="33" y="363" x="100" stroke="black" stroke-width="1.6" fill="cornflowerblue"/>
<rect width="50" height="33" y="396" x="100" stroke="black" stroke-width="1.6" fill="cornflowerblue"/>
<rect width="50" height="33" y="429" x="100" stroke="black" stroke-width="1.6" fill="cornflowerblue"/>
<rect width="50" height="33" y="462" x="100" stroke="black" stroke-width="1.6" fill="cornflowerblue"/>
<rect width="50" height="33" y="495" x="100" stroke="black" stroke-width="1.6" fill="cornflowerblue"/>
<rect width="50" height="33" y="528" x="100" stroke="black" stroke-width="1.6" fill="cornflowerblue"/>
<rect width="50" height="33" y="561" x="100" stroke="black" stroke-width="1.6" fill="cornflowerblue"/>
<rect width="50" height="33" y="0" x="150" stroke="black" stroke-width="1.6" fill="cornflowerblue"/>
<rect width="50" height="33" y="33" x="150" stroke="black" stroke-width="1.6" fill="cornflowerblue"/>
<rect width="50" height="33" y="66" x="150" stroke="black" stroke-width="1.6" fill="cornflowerblue"/>
<rect width="50" height="33" y="99" x="150" stroke="black" stroke-width="1.6" fill="cornflowerblue"/>
<rect width="50" height="33" y="132" x="150" stroke="black" stroke-width="1.6" fill="cornflowerblue"/>
<rect width="50" height="33" y="165" x="150" stroke="black" stroke-width="1.6" fill="cornflowerblue"/>
<rect width="50" height="33" y="198" x="150" stroke="black" stroke-width="1.6" fill="cornflowerblue"/>
<rect width="50" height="33" y="231" x="150" stroke="black" stroke-width="1.6" fill="cornflowerblue"/>
<rect width="50" height="33" y="264" x="150" stroke="black" stroke-width="1.6" fill="cornflowerblue"/>
<rect width="50" height="33" y="297" x="150" stroke="black" stroke-width="1.6" fill="cornflowerblue"/>
<rect width="50" height="33" y="330" x="150" stroke="black" stroke-width="1.6" fill="cornflowerblue"/>
<rect width="50" height="33" y="363" x="150" stroke="black" stroke-width="1.6" fill="cornflowerblue"/>
<rect width="50" height="33" y="396" x="150" stroke="black" stroke-width="1.6" fill="cornflowerblue"/>
<rect width="50" height="33" y="429" x="150" stroke="black" stroke-width="1.6" fill="cornflowerblue"/>
<rect width="50" height="33" y="462" x="150" stroke="black" stroke-width="1.6" fill="cornflowerblue"/>
<rect width="50" height="33" y="495" x="150" stroke="black" stroke-width="1.6" fill="cornflowerblue"/>
<rect width="50" height="33" y="528" x="150" stroke="black" stroke-width="1.6" fill="cornflowerblue"/>
<rect width="50" height="33" y="561" x="150" stroke="black" stroke-width="1.6" fill="cornflowerblue"/>
<rect width="50" height="33" y="0" x="200" stroke="black" stroke-width="1.6" fill="cornflowerblue"/>
<rect width="50" height="33" y="33" x="200" stroke="black" stroke-width="1.6" fill="cornflowerblue"/>
<rect width="50" height="33" y="66" x="200" stroke="black" stroke-width="1.6" fill="cornflowerblue"/>
<rect width="50" height="33" y="99" x="200" stroke="black" stroke-width="1.6" fill="cornflowerblue"/>
<rect width="50" height="33" y="132" x="200" stroke="black" stroke-width="1.6" fill="cornflowerblue"/>
<rect width="50" height="33" y="165" x="200" stroke="black" stroke-width="1.6" fill="cornflowerblue"/>
<rect width="50" height="33" y="198" x="200" stroke="black" stroke-width="1.6" fill="cornflowerblue"/>
<rect width="50" height="33" y="231" x="200" stroke="black" stroke-width="1.6" fill="cornflowerblue"/>
<rect width="50" height="33" y="264" x="200" stroke="black" stroke-width="1.6" fill="cornflowerblue"/>
<rect width="50" height="33" y="297" x="200" stroke="black" stroke-width="1.6" fill="cornflowerblue"/>
<rect width="50" height="33" y="330" x="200" stroke="black" stroke-width="1.6" fill="cornflowerblue"/>
<rect width="50" height="33" y="363" x="200" stroke="black" stroke-width="1.6" fill="cornflowerblue"/>
<rect width="50" height="33" y="396" x="200" stroke="black" stroke-width="1.6" fill="cornflowerblue"/>
<rect width="50" height="33" y="429" x="200" stroke="black" stroke-width="1.6" fill="cornflowerblue"/>
<rect width="50" height="33" y="462" x="200" stroke="black" stroke-width="1.6" fill="cornflowerblue"/>
<rect width="50" height="33" y="495" x="200" stroke="black" stroke-width="1.6" fill="cornflowerblue"/>
<rect width="50" height="33" y="528" x="200" stroke="black" stroke-width="1.6" fill="cornflowerblue"/>
<rect width="50" height="33" y="561" x="200" stroke="black" stroke-width="1.6" fill="cornflowerblue"/>
<rect width="50" height="33" y="0" x="250" stroke="black" stroke-width="1.6" fill="cornflowerblue"/>
<rect width="50" height="33" y="33" x="250" stroke="black" stroke-width="1.6" fill="cornflowerblue"/>
<rect width="50" height="33" y="66" x="250" stroke="black" stroke-width="1.6" fill="cornflowerblue"/>
<rect width="50" height="33" y="99" x="250" stroke="black" stroke-width="1.6" fill="cornflowerblue"/>
<rect width="50" height="33" y="132" x="250" stroke="black" stroke-width="1.6" fill="cornflowerblue"/>
<rect width="50" height="33" y="165" x="250" stroke="black" stroke-width="1.6" fill="cornflowerblue"/>
<rect width="50" height="33" y="198" x="250" stroke="black" stroke-width="1.6" fill="cornflowerblue"/>
<rect width="50" height="33" y="231" x="250" stroke="black" stroke-width="1.6" fill="cornflowerblue"/>
<rect width="50" height="33" y="264" x="250" stroke="black" stroke-width="1.6" fill="cornflowerblue"/>
<rect width="50" height="33" y="297" x="250" stroke="black" stroke-width="1.6" fill="cornflowerblue"/>
<rect width="50" height="33" y="330" x="250" stroke="black" stroke-width="1.6" fill="cornflowerblue"/>
<rect width="50" height="33" y="363" x="250" stroke="black" stroke-width="1.6" fill="cornflowerblue"/>
<rect width="50" height="33" y="396" x="250" stroke="black" stroke-width="1.6" fill="cornflowerblue"/>
<rect width="50" height="33" y="429" x="250" stroke="black" stroke-width="1.6" fill="cornflowerblue"/>
<rect width="50" height="33" y="462" x="250" stroke="black" stroke-width="1.6" fill="cornflowerblue"/>
<rect width="50" height="33" y="495" x="250" stroke="black" stroke-width="1.6" fill="cornflowerblue"/>
<rect width="50" height="33" y="528" x="250" stroke="black" stroke-width="1.6" fill="cornflowerblue"/>
<rect width="50" height="33" y="561" x="250" stroke="black" stroke-width="1.6" fill="cornflowerblue"/>
<rect width="50" height="33" y="0" x="300" stroke="black" stroke-width="1.6" fill="cornflowerblue"/>
<rect width="50" height="33" y="33" x="300" stroke="black" stroke-width="1.6" fill="cornflowerblue"/>
<rect width="50" height="33" y="66" x="300" stroke="black" stroke-width="1.6" fill="cornflowerblue"/>
<rect width="50" height="33" y="99" x="300" stroke="black" stroke-width="1.6" fill="cornflowerblue"/>
<rect width="50" height="33" y="132" x="300" stroke="black" stroke-width="1.6" fill="cornflowerblue"/>
<rect width="50" height="33" y="165" x="300" stroke="black" stroke-width="1.6" fill="cornflowerblue"/>
<rect width="50" height="33" y="198" x="300" stroke="black" stroke-width="1.6" fill="cornflowerblue"/>
<rect width="50" height="33" y="231" x="300" stroke="black" stroke-width="1.6" fill="cornflowerblue"/>
<rect width="50" height="33" y="264" x="300" stroke="black" stroke-width="1.6" fill="cornflowerblue"/>
<rect width="50" height="33" y="297" x="300" stroke="black" stroke-width="1.6" fill="cornflowerblue"/>
<rect width="50" height="33" y="330" x="300" stroke="black" stroke-width="1.6" fill="cornflowerblue"/>
<rect width="50" height="33" y="363" x="300" stroke="black" stroke-width="1.6" fill="cornflowerblue"/>
<rect width="50" height="33" y="396" x="300" stroke="black" stroke-width="1.6" fill="cornflowerblue"/>
<rect width="50" height="33" y="429" x="300" stroke="black" stroke-width="1.6" fill="cornflowerblue"/>
<rect width="50" height="33" y="462" x="300" stroke="black" stroke-width="1.6" fill="cornflowerblue"/>
<rect width="50" height="33" y="495" x="300" stroke="black" stroke-width="1.6" fill="cornflowerblue"/>
<rect width="50" height="33" y="528" x="300" stroke="black" stroke-width="1.6" fill="cornflowerblue"/>
<rect width="50" height="33" y="561" x="300" stroke="black" stroke-width="1.6" fill="cornflowerblue"/>
<rect width="50" height="33" y="0" x="350" stroke="black" stroke-width="1.6" fill="cornflowerblue"/>
<rect width="50" height="33" y="33" x="350" stroke="black" stroke-width="1.6" fill="cornflowerblue"/>
<rect width="50" height="33" y="66" x="350" stroke="black" stroke-width="1.6" fill="cornflowerblue"/>
<rect width="50" height="33" y="99" x="350" stroke="black" stroke-width="1.6" fill="cornflowerblue"/>
<rect width="50" height="33" y="132" x="350" stroke="black" stroke-width="1.6" fill="cornflowerblue"/>
<rect width="50" height="33" y="165" x="350" stroke="black" stroke-width="1.6" fill="cornflowerblue"/>
<rect width="50" height="33" y="198" x="350" stroke="black" stroke-width="1.6" fill="cornflowerblue"/>
<rect width="50" height="33" y="231" x="350" stroke="black" stroke-width="1.6" fill="cornflowerblue"/>
<rect width="50" height="33" y="264" x="350" stroke="black" stroke-width="1.6" fill="cornflowerblue"/>
<rect width="50" height="33" y="297" x="350" stroke="black" stroke-width="1.6" fill="cornflowerblue"/>
<rect width="50" height="33" y="330" x="350" stroke="black" stroke-width="1.6" fill="cornflowerblue"/>
<rect width="50" height="33" y="363" x="350" stroke="black" stroke-width="1.6" fill="cornflowerblue"/>
<rect width="50" height="33" y="396" x="350" stroke="black" stroke-width="1.6" fill="cornflowerblue"/>
<rect width="50" height="33" y="429" x="350" stroke="black" stroke-width="1.6" fill="cornflowerblue"/>
<rect width="50" height="33" y="462" x="350" stroke="black" stroke-width="1.6" fill="cornflowerblue"/>
<rect width="50" height="33" y="495" x="350" stroke="black" stroke-width="1.6" fill="cornflowerblue"/>
<rect width="50" height="33" y="528" x="350" stroke="black" stroke-width="1.6" fill="cornflowerblue"/>
<rect width="50" height="33" y="561" x="350" stroke="black" stroke-width="1.6" fill="cornflowerblue"/>
<rect width="50" height="33" y="0" x="400" stroke="black" stroke-width="1.6" fill="cornflowerblue"/>
<rect width="50" height="33" y="33" x="400" stroke="black" stroke-width="1.6" fill="cornflowerblue"/>
<rect width="50" height="33" y="66" x="400" stroke="black" stroke-width="1.6" fill="cornflowerblue"/>
<rect width="50" height="33" y="99" x="400" stroke="black" stroke-width="1.6" fill="cornflowerblue"/>
<rect width="50" height="33" y="132" x="400" stroke="black" stroke-width="1.6" fill="cornflowerblue"/>
<rect width="50" height="33" y="165" x="400" stroke="black" stroke-width="1.6" fill="cornflowerblue"/>
<rect width="50" height="33" y="198" x="400" stroke="black" stroke-width="1.6" fill="cornflowerblue"/>
<rect width="50" height="33" y="231" x="400" stroke="black" stroke-width="1.6" fill="cornflowerblue"/>
<rect width="50" height="33" y="264" x="400" stroke="black" stroke-width="1.6" fill="cornflowerblue"/>
<rect width="50" height="33" y="297" x="400" stroke="black" stroke-width="1.6" fill="cornflowerblue"/>
<rect width="50" height="33" y="330" x="400" stroke="black" stroke-width="1.6" fill="cornflowerblue"/>
<rect width="50" height="33" y="363" x="400" stroke="black" stroke-width="1.6" fill="cornflowerblue"/>
<rect width="50" height="33" y="396" x="400" stroke="black" stroke-width="1.6" fill="cornflowerblue"/>
<rect width="50" height="33" y="429" x="400" stroke="black" stroke-width="1.6" fill="cornflowerblue"/>
<rect width="50" height="33" y="462" x="400" stroke="black" stroke-width="1.6" fill="cornflowerblue"/>
<rect width="50" height="33" y="495" x="400" stroke="black" stroke-width="1.6" fill="cornflowerblue"/>
<rect width="50" height="33" y="528" x="400" stroke="black" stroke-width="1.6" fill="cornflowerblue"/>
<rect width="50" height="33" y="561" x="400" stroke="black" stroke-width="1.6" fill="cornflowerblue"/>
<rect width="50" height="33" y="0" x="450" stroke="black" stroke-width="1.6" fill="cornflowerblue"/>
<rect width="50" height="33" y="33" x="450" stroke="black" stroke-width="1.6" fill="cornflowerblue"/>
<rect width="50" height="33" y="66" x="450" stroke="black" stroke-width="1.6" fill="cornflowerblue"/>
<rect width="50" height="33" y="99" x="450" stroke="black" stroke-width="1.6" fill="cornflowerblue"/>
<rect width="50" height="33" y="132" x="450" stroke="black" stroke-width="1.6" fill="cornflowerblue"/>
<rect width="50" height="33" y="165" x="450" stroke="black" stroke-width="1.6" fill="cornflowerblue"/>
<rect width="50" height="33" y="198" x="450" stroke="black" stroke-width="1.6" fill="cornflowerblue"/>
<rect width="50" height="33" y="231" x="450" stroke="black" stroke-width="1.6" fill="cornflowerblue"/>
<rect width="50" height="33" y="264" x="450" stroke="black" stroke-width="1.6" fill="cornflowerblue"/>
<rect width="50" height="33" y="297" x="450" stroke="black" stroke-width="1.6" fill="cornflowerblue"/>
<rect width="50" height="33" y="330" x="450" stroke="black" stroke-width="1.6" fill="cornflowerblue"/>
<rect width="50" height="33" y="363" x="450" stroke="black" stroke-width="1.6" fill="cornflowerblue"/>
<rect width="50" height="33" y="396" x="450" stroke="black" stroke-width="1.6" fill="cornflowerblue"/>
<rect width="50" height="33" y="429" x="450" stroke="black" stroke-width="1.6" fill="cornflowerblue"/>
<rect width="50" height="33" y="462" x="450" stroke="black" stroke-width="1.6" fill="cornflowerblue"/>
<rect width="50" height="33" y="495" x="450" stroke="black" stroke-width="1.6" fill="cornflowerblue"/>
<rect width="50" height="33" y="528" x="450" stroke="black" stroke-width="1.6" fill="cornflowerblue"/>
<rect width="50" height="33" y="561" x="450" stroke="black" stroke-width="1.6" fill="cornflowerblue"/>
 </svg>