<svg version="1.1"
baseProfile="full"
width="1300" height="1300" xmlns="http://www.w3.org/2000/svg">
<circle cx="700" cy="700" r="600" stroke="black" stroke-width="1.6" fill="white"/>
<circle cx="551.478" cy="1225" r="43" stroke="black" stroke-width="1.6" fill="cornflowerblue"/>
<circle cx="637.478" cy="1225" r="43" stroke="black" stroke-width="1.6" fill="cornflowerblue"/>
<circle cx="723.478" cy="1225" r="43" stroke="black" stroke-width="1.6" fill="cornflowerblue"/>
<circle cx="809.478" cy="1225" r="43" stroke="black" stroke-width="1.6" fill="cornflowerblue"/>
<circle cx="895.478" cy="1225" r="43" stroke="black" stroke-width="1.6" fill="cornflowerblue"/>
<circle cx="382.241" cy="1135" r="43" stroke="black" stroke-width="1.6" fill="cornflowerblue"/>
<circle cx="468.241" cy="1135" r="43" stroke="black" stroke-width="1.6" fill="cornflowerblue"/>
<circle cx="554.241" cy="1135" r="43" stroke="black" stroke-width="1.6" fill="cornflowerblue"/>
<circle cx="640.241" cy="1135" r="43" stroke="black" stroke-width="1.6" fill="cornflowerblue"/>
<circle cx="726.241" cy="1135" r="43" stroke="black" stroke-width="1.6" fill="cornflowerblue"/>
<circle cx="812.241" cy="1135" r="43" stroke="black" stroke-width="1.6" fill="cornflowerblue"/>
<circle cx="898.241" cy="1135" r="43" stroke="black" stroke-width="1.6" fill="cornflowerblue"/>
<circle cx="984.241" cy="1135" r="43" stroke="black" stroke-width="1.6" fill="cornflowerblue"/>
<circle cx="312.895" cy="1049" r="43" stroke="black" stroke-width="1.6" fill="cornflowerblue"/>
<circle cx="398.895" cy="1049" r="43" stroke="black" stroke-width="1.6" fill="cornflowerblue"/>
<circle cx="484.895" cy="1049" r="43" stroke="black" stroke-width="1.6" fill="cornflowerblue"/>
<circle cx="570.895" cy="1049" r="43" stroke="black" stroke-width="1.6" fill="cornflowerblue"/>
<circle cx="656.895" cy="1049" r="43" stroke="black" stroke-width="1.6" fill="cornflowerblue"/>
<circle cx="742.895" cy="1049" r="43" stroke="black" stroke-width="1.6" fill="cornflowerblue"/>
<circle cx="828.895" cy="1049" r="43" stroke="black" stroke-width="1.6" fill="cornflowerblue"/>
<circle cx="914.895" cy="1049" r="43" stroke="black" stroke-width="1.6" fill="cornflowerblue"/>
<circle cx="1000.9" cy="1049" r="43" stroke="black" stroke-width="1.6" fill="cornflowerblue"/>
<circle cx="1086.9" cy="1049" r="43" stroke="black" stroke-width="1.6" fill="cornflowerblue"/>
<circle cx="270.789" cy="963" r="43" stroke="black" stroke-width="1.6" fill="cornflowerblue"/>
<circle cx="356.789" cy="963" r="43" stroke="black" stroke-width="1.6" fill="cornflowerblue"/>
<circle cx="442.789" cy="963" r="43" stroke="black" stroke-width="1.6" fill="cornflowerblue"/>
<circle cx="528.789" cy="963" r="43" stroke="black" stroke-width="1.6" fill="cornflowerblue"/>
<circle cx="614.789" cy="963" r="43" stroke="black" stroke-width="1.6" fill="cornflowerblue"/>
<circle cx="700.789" cy="963" r="43" stroke="black" stroke-width="1.6" fill="cornflowerblue"/>
<circle cx="786.789" cy="963" r="43" stroke="black" stroke-width="1.6" fill="cornflowerblue"/>
<circle cx="872.789" cy="963" r="43" stroke="black" stroke-width="1.6" fill="cornflowerblue"/>
<circle cx="958.789" cy="963" r="43" stroke="black" stroke-width="1.6" fill="cornflowerblue"/>
<circle cx="1044.79" cy="963" r="43" stroke="black" stroke-width="1.6" fill="cornflowerblue"/>
<circle cx="1130.79" cy="963" r="43" stroke="black" stroke-width="1.6" fill="cornflowerblue"/>
<circle cx="244.155" cy="877" r="43" stroke="black" stroke-width="1.6" fill="cornflowerblue"/>
<circle cx="330.155" cy="877" r="43" stroke="black" stroke-width="1.6" fill="cornflowerblue"/>
<circle cx="416.155" cy="877" r="43" stroke="black" stroke-width="1.6" fill="cornflowerblue"/>
<circle cx="502.155" cy="877" r="43" stroke="black" stroke-width="1.6" fill="cornflowerblue"/>
<circle cx="588.155" cy="877" r="43" stroke="black" stroke-width="1.6" fill="cornflowerblue"/>
<circle cx="674.155" cy="877" r="43" stroke="black" stroke-width="1.6" fill="cornflowerblue"/>
<circle cx="760.155" cy="877" r="43" stroke="black" stroke-width="1.6" fill="cornflowerblue"/>
<circle cx="846.155" cy="877" r="43" stroke="black" stroke-width="1.6" fill="cornflowerblue"/>
<circle cx="932.155" cy="877" r="43" stroke="black" stroke-width="1.6" fill="cornflowerblue"/>
<circle cx="1018.15" cy="877" r="43" stroke="black" stroke-width="1.6" fill="cornflowerblue"/>
<circle cx="1104.15" cy="877" r="43" stroke="black" stroke-width="1.6" fill="cornflowerblue"/>
<circle cx="230.923" cy="791" r="43" stroke="black" stroke-width="1.6" fill="cornflowerblue"/>
<circle cx="316.923" cy="791" r="43" stroke="black" stroke-width="1.6" fill="cornflowerblue"/>
<circle cx="402.923" cy="791" r="43" stroke="black" stroke-width="1.6" fill="cornflowerblue"/>
<circle cx="488.923" cy="791" r="43" stroke="black" stroke-width="1.6" fill="cornflowerblue"/>
<circle cx="574.923" cy="791" r="43" stroke="black" stroke-width="1.6" fill="cornflowerblue"/>
<circle cx="660.923" cy="791" r="43" stroke="black" stroke-width="1.6" fill="cornflowerblue"/>
<circle cx="746.923" cy="791" r="43" stroke="black" stroke-width="1.6" fill="cornflowerblue"/>
<circle cx="832.923" cy="791" r="43" stroke="black" stroke-width="1.6" fill="cornflowerblue"/>
<circle cx="918.923" cy="791" r="43" stroke="black" stroke-width="1.6" fill="cornflowerblue"/>
<circle cx="1004.92" cy="791" r="43" stroke="black" stroke-width="1.6" fill="cornflowerblue"/>
<circle cx="1090.92" cy="791" r="43" stroke="black" stroke-width="1.6" fill="cornflowerblue"/>
<circle cx="1176.92" cy="791" r="43" stroke="black" stroke-width="1.6" fill="cornflowerblue"/>
<circle cx="144.205" cy="705" r="43" stroke="black" stroke-width="1.6" fill="cornflowerblue"/>
<circle cx="230.205" cy="705" r="43" stroke="black" stroke-width="1.6" fill="cornflowerblue"/>
<circle cx="316.205" cy="705" r="43" stroke="black" stroke-width="1.6" fill="cornflowerblue"/>
<circle cx="402.205" cy="705" r="43" stroke="black" stroke-width="1.6" fill="cornflowerblue"/>
<circle cx="488.205" cy="705" r="43" stroke="black" stroke-width="1.6" fill="cornflowerblue"/>
<circle cx="574.205" cy="705" r="43" stroke="black" stroke-width="1.6" fill="cornflowerblue"/>
<circle cx="660.205" cy="705" r="43" stroke="black" stroke-width="1.6" fill="cornflowerblue"/>
<circle cx="746.205" cy="705" r="43" stroke="black" stroke-width="1.6" fill="cornflowerblue"/>
<circle cx="832.205" cy="705" r="43" stroke="black" stroke-width="1.6" fill="cornflowerblue"/>
<circle cx="918.205" cy="705" r="43" stroke="black" stroke-width="1.6" fill="cornflowerblue"/>
<circle cx="1004.2" cy="705" r="43" stroke="black" stroke-width="1.6" fill="cornflowerblue"/>
<circle cx="1090.2" cy="705" r="43" stroke="black" stroke-width="1.6" fill="cornflowerblue"/>
<circle cx="1176.2" cy="705" r="43" stroke="black" stroke-width="1.6" fill="cornflowerblue"/>
<circle cx="155.953" cy="619" r="43" stroke="black" stroke-width="1.6" fill="cornflowerblue"/>
<circle cx="241.953" cy="619" r="43" stroke="black" stroke-width="1.6" fill="cornflowerblue"/>
<circle cx="327.953" cy="619" r="43" stroke="black" stroke-width="1.6" fill="cornflowerblue"/>
<circle cx="413.953" cy="619" r="43" stroke="black" stroke-width="1.6" fill="cornflowerblue"/>
<circle cx="499.953" cy="619" r="43" stroke="black" stroke-width="1.6" fill="cornflowerblue"/>
<circle cx="585.953" cy="619" r="43" stroke="black" stroke-width="1.6" fill="cornflowerblue"/>
<circle cx="671.953" cy="619" r="43" stroke="black" stroke-width="1.6" fill="cornflowerblue"/>
<circle cx="757.953" cy="619" r="43" stroke="black" stroke-width="1.6" fill="cornflowerblue"/>
<circle cx="843.953" cy="619" r="43" stroke="black" stroke-width="1.6" fill="cornflowerblue"/>
<circle cx="929.953" cy="619" r="43" stroke="black" stroke-width="1.6" fill="cornflowerblue"/>
<circle cx="1015.95" cy="619" r="43" stroke="black" stroke-width="1.6" fill="cornflowerblue"/>
<circle cx="1101.95" cy="619" r="43" stroke="black" stroke-width="1.6" fill="cornflowerblue"/>
<circle cx="1187.95" cy="619" r="43" stroke="black" stroke-width="1.6" fill="cornflowerblue"/>
<circle cx="180.95" cy="533" r="43" stroke="black" stroke-width="1.6" fill="cornflowerblue"/>
<circle cx="266.95" cy="533" r="43" stroke="black" stroke-width="1.6" fill="cornflowerblue"/>
<circle cx="352.95" cy="533" r="43" stroke="black" stroke-width="1.6" fill="cornflowerblue"/>
<circle cx="438.95" cy="533" r="43" stroke="black" stroke-width="1.6" fill="cornflowerblue"/>
<circle cx="524.95" cy="533" r="43" stroke="black" stroke-width="1.6" fill="cornflowerblue"/>
<circle cx="610.95" cy="533" r="43" stroke="black" stroke-width="1.6" fill="cornflowerblue"/>
<circle cx="696.95" cy="533" r="43" stroke="black" stroke-width="1.6" fill="cornflowerblue"/>
<circle cx="782.95" cy="533" r="43" stroke="black" stroke-width="1.6" fill="cornflowerblue"/>
<circle cx="868.95" cy="533" r="43" stroke="black" stroke-width="1.6" fill="cornflowerblue"/>
<circle cx="954.95" cy="533" r="43" stroke="black" stroke-width="1.6" fill="cornflowerblue"/>
<circle cx="1040.95" cy="533" r="43" stroke="black" stroke-width="1.6" fill="cornflowerblue"/>
<circle cx="1126.95" cy="533" r="43" stroke="black" stroke-width="1.6" fill="cornflowerblue"/>
<circle cx="1212.95" cy="533" r="43" stroke="black" stroke-width="1.6" fill="cornflowerblue"/>
<circle cx="221.096" cy="447" r="43" stroke="black" stroke-width="1.6" fill="cornflowerblue"/>
<circle cx="307.096" cy="447" r="43" stroke="black" stroke-width="1.6" fill="cornflowerblue"/>
<circle cx="393.096" cy="447" r="43" stroke="black" stroke-width="1.6" fill="cornflowerblue"/>
<circle cx="479.096" cy="447" r="43" stroke="black" stroke-width="1.6" fill="cornflowerblue"/>
<circle cx="565.096" cy="447" r="43" stroke="black" stroke-width="1.6" fill="cornflowerblue"/>
<circle cx="651.096" cy="447" r="43" stroke="black" stroke-width="1.6" fill="cornflowerblue"/>
<circle cx="737.096" cy="447" r="43" stroke="black" stroke-width="1.6" fill="cornflowerblue"/>
<circle cx="823.096" cy="447" r="43" stroke="black" stroke-width="1.6" fill="cornflowerblue"/>
<circle cx="909.096" cy="447" r="43" stroke="black" stroke-width="1.6" fill="cornflowerblue"/>
<circle cx="995.096" cy="447" r="43" stroke="black" stroke-width="1.6" fill="cornflowerblue"/>
<circle cx="1081.1" cy="447" r="43" stroke="black" stroke-width="1.6" fill="cornflowerblue"/>
<circle cx="1167.1" cy="447" r="43" stroke="black" stroke-width="1.6" fill="cornflowerblue"/>
<circle cx="280.317" cy="361" r="43" stroke="black" stroke-width="1.6" fill="cornflowerblue"/>
<circle cx="366.317" cy="361" r="43" stroke="black" stroke-width="1.6" fill="cornflowerblue"/>
<circle cx="452.317" cy="361" r="43" stroke="black" stroke-width="1.6" fill="cornflowerblue"/>
<circle cx="538.317" cy="361" r="43" stroke="black" stroke-width="1.6" fill="cornflowerblue"/>
<circle cx="624.317" cy="361" r="43" stroke="black" stroke-width="1.6" fill="cornflowerblue"/>
<circle cx="710.317" cy="361" r="43" stroke="black" stroke-width="1.6" fill="cornflowerblue"/>
<circle cx="796.317" cy="361" r="43" stroke="black" stroke-width="1.6" fill="cornflowerblue"/>
<circle cx="882.317" cy="361" r="43" stroke="black" stroke-width="1.6" fill="cornflowerblue"/>
<circle cx="968.317" cy="361" r="43" stroke="black" stroke-width="1.6" fill="cornflowerblue"/>
<circle cx="1054.32" cy="361" r="43" stroke="black" stroke-width="1.6" fill="cornflowerblue"/>
<circle cx="367.532" cy="275" r="43" stroke="black" stroke-width="1.6" fill="cornflowerblue"/>
<circle cx="453.532" cy="275" r="43" stroke="black" stroke-width="1.6" fill="cornflowerblue"/>
<circle cx="539.532" cy="275" r="43" stroke="black" stroke-width="1.6" fill="cornflowerblue"/>
<circle cx="625.532" cy="275" r="43" stroke="black" stroke-width="1.6" fill="cornflowerblue"/>
<circle cx="711.532" cy="275" r="43" stroke="black" stroke-width="1.6" fill="cornflowerblue"/>
<circle cx="797.532" cy="275" r="43" stroke="black" stroke-width="1.6" fill="cornflowerblue"/>
<circle cx="883.532" cy="275" r="43" stroke="black" stroke-width="1.6" fill="cornflowerblue"/>
<circle cx="969.532" cy="275" r="43" stroke="black" stroke-width="1.6" fill="cornflowerblue"/>
<circle cx="512.6" cy="189" r="43" stroke="black" stroke-width="1.6" fill="cornflowerblue"/>
<circle cx="598.6" cy="189" r="43" stroke="black" stroke-width="1.6" fill="cornflowerblue"/>
<circle cx="684.6" cy="189" r="43" stroke="black" stroke-width="1.6" fill="cornflowerblue"/>
<circle cx="770.6" cy="189" r="43" stroke="black" stroke-width="1.6" fill="cornflowerblue"/>
<circle cx="856.6" cy="189" r="43" stroke="black" stroke-width="1.6" fill="cornflowerblue"/>
 </svg>