<?xml version="1.0" encoding="UTF-8" standalone="no"?>
<!-- Created with Bouml (http://bouml.free.fr/) -->
<!DOCTYPE svg PUBLIC "-//W3C//DTD SVG 1.1//EN" "http://www.w3.org/Graphics/SVG/1.1/DTD/svg11.dtd">
<svg width="1056" height="571" version="1.1" xmlns="http://www.w3.org/2000/svg">
<g>
	<rect fill="#cbcbcb" stroke="none" stroke-opacity="1" x="586" y="319" width="3" height="235" />
	<rect fill="#cbcbcb" stroke="none" stroke-opacity="1" x="486" y="551" width="103" height="3" />
	<rect fill="#ffffc0" stroke="black" stroke-width="1" stroke-opacity="1" x="482" y="315" width="104" height="236" />
	<text font-family="Helvetica" font-size="12" fill="#000000" xml:space="preserve" font-weight="bold" text-anchor="middle" x="534" y="329">Rectangle</text>
	<line stroke="black" stroke-opacity="1" x1="482" y1="342" x2="586" y2="342" />
	<text font-family="Helvetica" font-size="12" fill="#000000" xml:space="preserve" font-weight="bold" x="486" y="356">-</text>
	<text font-family="Helvetica" font-size="12" fill="#000000" xml:space="preserve" x="504" y="356">width</text>
	<text font-family="Helvetica" font-size="12" fill="#000000" xml:space="preserve" font-weight="bold" x="486" y="381">-</text>
	<text font-family="Helvetica" font-size="12" fill="#000000" xml:space="preserve" x="504" y="381">height</text>
	<text font-family="Helvetica" font-size="12" fill="#000000" xml:space="preserve" font-weight="bold" x="486" y="406">-</text>
	<text font-family="Helvetica" font-size="12" fill="#000000" xml:space="preserve" x="504" y="406">x</text>
	<text font-family="Helvetica" font-size="12" fill="#000000" xml:space="preserve" font-weight="bold" x="486" y="431">-</text>
	<text font-family="Helvetica" font-size="12" fill="#000000" xml:space="preserve" x="504" y="431">y</text>
	<text font-family="Helvetica" font-size="12" fill="#000000" xml:space="preserve" font-weight="bold" x="486" y="456">-</text>
	<text font-family="Helvetica" font-size="12" fill="#000000" xml:space="preserve" x="504" y="456">rotate</text>
	<text font-family="Helvetica" font-size="12" fill="#000000" xml:space="preserve" font-weight="bold" x="486" y="481">-</text>
	<text font-family="Helvetica" font-size="12" fill="#000000" xml:space="preserve" x="504" y="481">fill</text>
	<text font-family="Helvetica" font-size="12" fill="#000000" xml:space="preserve" font-weight="bold" x="486" y="506">-</text>
	<text font-family="Helvetica" font-size="12" fill="#000000" xml:space="preserve" text-decoration="underline" x="504" y="506">total_area</text>
	<text font-family="Helvetica" font-size="12" fill="#000000" xml:space="preserve" font-weight="bold" x="486" y="531">-</text>
	<text font-family="Helvetica" font-size="12" fill="#000000" xml:space="preserve" text-decoration="underline" x="504" y="531">total_perim</text>
</g>
<g>
	<rect fill="#cbcbcb" stroke="none" stroke-opacity="1" x="719" y="319" width="3" height="235" />
	<rect fill="#cbcbcb" stroke="none" stroke-opacity="1" x="603" y="551" width="119" height="3" />
	<rect fill="#ffffc0" stroke="black" stroke-width="1" stroke-opacity="1" x="599" y="315" width="120" height="236" />
	<text font-family="Helvetica" font-size="12" fill="#000000" xml:space="preserve" font-weight="bold" text-anchor="middle" x="659" y="329">Circle</text>
	<line stroke="black" stroke-opacity="1" x1="599" y1="342" x2="719" y2="342" />
	<text font-family="Helvetica" font-size="12" fill="#000000" xml:space="preserve" font-weight="bold" x="603" y="356">-</text>
	<text font-family="Helvetica" font-size="12" fill="#000000" xml:space="preserve" x="621" y="356">radius</text>
	<text font-family="Helvetica" font-size="12" fill="#000000" xml:space="preserve" font-weight="bold" x="603" y="381">-</text>
	<text font-family="Helvetica" font-size="12" fill="#000000" xml:space="preserve" x="621" y="381">x</text>
	<text font-family="Helvetica" font-size="12" fill="#000000" xml:space="preserve" font-weight="bold" x="603" y="406">-</text>
	<text font-family="Helvetica" font-size="12" fill="#000000" xml:space="preserve" x="621" y="406">y</text>
	<text font-family="Helvetica" font-size="12" fill="#000000" xml:space="preserve" font-weight="bold" x="603" y="431">-</text>
	<text font-family="Helvetica" font-size="12" fill="#000000" xml:space="preserve" x="621" y="431">fill</text>
	<text font-family="Helvetica" font-size="12" fill="#000000" xml:space="preserve" font-weight="bold" x="603" y="456">-</text>
	<text font-family="Helvetica" font-size="12" fill="#000000" xml:space="preserve" text-decoration="underline" x="621" y="456">total_area</text>
	<text font-family="Helvetica" font-size="12" fill="#000000" xml:space="preserve" font-weight="bold" x="603" y="481">-</text>
	<text font-family="Helvetica" font-size="12" fill="#000000" xml:space="preserve" text-decoration="underline" x="621" y="481">total_perim</text>
</g>
<g>
	<rect fill="#cbcbcb" stroke="none" stroke-opacity="1" x="471" y="320" width="3" height="233" />
	<rect fill="#cbcbcb" stroke="none" stroke-opacity="1" x="369" y="550" width="105" height="3" />
	<rect fill="#ffffc0" stroke="black" stroke-width="1" stroke-opacity="1" x="365" y="316" width="106" height="234" />
	<text font-family="Helvetica" font-size="12" fill="#000000" xml:space="preserve" font-weight="bold" text-anchor="middle" x="418" y="330">Triangle</text>
	<line stroke="black" stroke-opacity="1" x1="365" y1="343" x2="471" y2="343" />
	<text font-family="Helvetica" font-size="12" fill="#000000" xml:space="preserve" font-weight="bold" x="369" y="357">-</text>
	<text font-family="Helvetica" font-size="12" fill="#000000" xml:space="preserve" x="387" y="357">length</text>
	<text font-family="Helvetica" font-size="12" fill="#000000" xml:space="preserve" font-weight="bold" x="369" y="382">-</text>
	<text font-family="Helvetica" font-size="12" fill="#000000" xml:space="preserve" x="387" y="382">x</text>
	<text font-family="Helvetica" font-size="12" fill="#000000" xml:space="preserve" font-weight="bold" x="369" y="407">-</text>
	<text font-family="Helvetica" font-size="12" fill="#000000" xml:space="preserve" x="387" y="407">y</text>
	<text font-family="Helvetica" font-size="12" fill="#000000" xml:space="preserve" font-weight="bold" x="369" y="432">-</text>
	<text font-family="Helvetica" font-size="12" fill="#000000" xml:space="preserve" x="387" y="432">rotate</text>
	<text font-family="Helvetica" font-size="12" fill="#000000" xml:space="preserve" font-weight="bold" x="369" y="457">-</text>
	<text font-family="Helvetica" font-size="12" fill="#000000" xml:space="preserve" x="387" y="457">fill</text>
	<text font-family="Helvetica" font-size="12" fill="#000000" xml:space="preserve" font-weight="bold" x="369" y="482">-</text>
	<text font-family="Helvetica" font-size="12" fill="#000000" xml:space="preserve" text-decoration="underline" x="387" y="482">total_area</text>
	<text font-family="Helvetica" font-size="12" fill="#000000" xml:space="preserve" font-weight="bold" x="369" y="507">-</text>
	<text font-family="Helvetica" font-size="12" fill="#000000" xml:space="preserve" text-decoration="underline" x="387" y="507">total_perim</text>
</g>
<g>
	<rect fill="#cbcbcb" stroke="none" stroke-opacity="1" x="189" y="122" width="3" height="85" />
	<rect fill="#cbcbcb" stroke="none" stroke-opacity="1" x="125" y="204" width="67" height="3" />
	<rect fill="#ffffc0" stroke="black" stroke-width="1" stroke-opacity="1" x="121" y="118" width="68" height="86" />
	<text font-family="Helvetica" font-size="12" fill="#000000" xml:space="preserve" font-weight="bold" text-anchor="middle" x="155" y="132">Point2D</text>
	<line stroke="black" stroke-opacity="1" x1="121" y1="145" x2="189" y2="145" />
	<text font-family="Helvetica" font-size="12" fill="#000000" xml:space="preserve" font-weight="bold" x="125" y="159">-</text>
	<text font-family="Helvetica" font-size="12" fill="#000000" xml:space="preserve" x="143" y="159">x</text>
	<text font-family="Helvetica" font-size="12" fill="#000000" xml:space="preserve" font-weight="bold" x="125" y="184">-</text>
	<text font-family="Helvetica" font-size="12" fill="#000000" xml:space="preserve" x="143" y="184">y</text>
</g>
<g>
	<rect fill="#cbcbcb" stroke="none" stroke-opacity="1" x="138" y="377" width="3" height="41" />
	<rect fill="#cbcbcb" stroke="none" stroke-opacity="1" x="38" y="415" width="103" height="3" />
	<rect fill="#ffffc0" stroke="black" stroke-width="1" stroke-opacity="1" x="34" y="373" width="104" height="42" />
	<text font-family="Helvetica" font-size="12" fill="#000000" xml:space="preserve" font-weight="bold" text-anchor="middle" x="86" y="387">PolygonVect</text>
	<line stroke="black" stroke-opacity="1" x1="34" y1="400" x2="138" y2="400" />
</g>
<g>
	<rect fill="#cbcbcb" stroke="none" stroke-opacity="1" x="251" y="377" width="3" height="41" />
	<rect fill="#cbcbcb" stroke="none" stroke-opacity="1" x="155" y="415" width="99" height="3" />
	<rect fill="#ffffc0" stroke="black" stroke-width="1" stroke-opacity="1" x="151" y="373" width="100" height="42" />
	<text font-family="Helvetica" font-size="12" fill="#000000" xml:space="preserve" font-weight="bold" text-anchor="middle" x="201" y="387">PolygonDyn</text>
	<line stroke="black" stroke-opacity="1" x1="151" y1="400" x2="251" y2="400" />
</g>
<g>
	<line stroke="black" stroke-opacity="1" x1="142" y1="208" x2="134" y2="212" />
	<line stroke="black" stroke-opacity="1" x1="142" y1="208" x2="146" y2="215" />
	<line stroke="black" stroke-opacity="1" x1="94" y1="372" x2="142" y2="208" />
	<polygon fill="#000000" stroke="black" stroke-opacity="1" points="94,372 89,364 97,360 101,367" />
</g>
<g>
	<text font-family="Helvetica" font-size="12" fill="#000000" xml:space="preserve" x="69" y="301">&lt;&lt;:vector&gt;&gt;</text>
</g>
<g>
	<line stroke="black" stroke-opacity="1" x1="165" y1="208" x2="160" y2="215" />
	<line stroke="black" stroke-opacity="1" x1="165" y1="208" x2="172" y2="212" />
	<line stroke="black" stroke-opacity="1" x1="197" y1="372" x2="165" y2="208" />
</g>
<g>
	<rect fill="#cbcbcb" stroke="none" stroke-opacity="1" x="381" y="139" width="3" height="61" />
	<rect fill="#cbcbcb" stroke="none" stroke-opacity="1" x="315" y="197" width="69" height="3" />
	<rect fill="#ffffc0" stroke="black" stroke-width="1" stroke-opacity="1" x="311" y="135" width="70" height="62" />
	<text font-family="Helvetica" font-size="12" fill="#000000" xml:space="preserve" font-weight="bold" font-style="italic" text-anchor="middle" x="346" y="149">Polygon</text>
	<line stroke="black" stroke-opacity="1" x1="311" y1="162" x2="381" y2="162" />
	<text font-family="Helvetica" font-size="12" fill="#000000" xml:space="preserve" font-weight="bold" x="315" y="176">-</text>
	<text font-family="Helvetica" font-size="12" fill="#000000" xml:space="preserve" x="333" y="176">size</text>
</g>
<g>
	<line stroke="#000000" stroke-opacity="1" x1="113" y1="372" x2="305" y2="201" />
	<line stroke="#000000" stroke-opacity="1" x1="310" y1="198" x2="301" y2="197" />
	<line stroke="#000000" stroke-opacity="1" x1="310" y1="198" x2="309" y2="206" />
	<line stroke="#000000" stroke-opacity="1" x1="301" y1="197" x2="309" y2="206" />
</g>
<g>
	<line stroke="black" stroke-opacity="1" x1="193" y1="163" x2="298" y2="165" />
<ellipse fill="none" stroke="black" stroke-width="1" stroke-opacity="1" cx="304" cy="165" rx="5" ry="5" />
	<line stroke="black" stroke-opacity="1" x1="299" y1="165" x2="309" y2="165" />
	<line stroke="black" stroke-opacity="1" x1="304" y1="160" x2="304" y2="170" />
</g>
<g>
	<line stroke="#000000" stroke-opacity="1" x1="216" y1="372" x2="321" y2="206" />
	<line stroke="#000000" stroke-opacity="1" x1="325" y1="201" x2="316" y2="202" />
	<line stroke="#000000" stroke-opacity="1" x1="325" y1="201" x2="326" y2="209" />
	<line stroke="#000000" stroke-opacity="1" x1="316" y1="202" x2="326" y2="209" />
</g>
<g>
	<rect fill="#cbcbcb" stroke="none" stroke-opacity="1" x="563" y="66" width="3" height="111" />
	<rect fill="#cbcbcb" stroke="none" stroke-opacity="1" x="491" y="174" width="75" height="3" />
	<rect fill="#ffffc0" stroke="black" stroke-width="1" stroke-opacity="1" x="487" y="62" width="76" height="112" />
	<text font-family="Helvetica" font-size="12" fill="#000000" xml:space="preserve" font-weight="bold" font-style="italic" text-anchor="middle" x="525" y="76">Shape</text>
	<line stroke="black" stroke-opacity="1" x1="487" y1="89" x2="563" y2="89" />
	<text font-family="Helvetica" font-size="12" fill="#000000" xml:space="preserve" font-weight="bold" x="491" y="103">#</text>
	<text font-family="Helvetica" font-size="12" fill="#000000" xml:space="preserve" x="509" y="103">area</text>
	<text font-family="Helvetica" font-size="12" fill="#000000" xml:space="preserve" font-weight="bold" x="491" y="128">#</text>
	<text font-family="Helvetica" font-size="12" fill="#000000" xml:space="preserve" x="509" y="128">perim</text>
	<text font-family="Helvetica" font-size="12" fill="#000000" xml:space="preserve" font-weight="bold" x="491" y="153">#</text>
	<text font-family="Helvetica" font-size="12" fill="#000000" xml:space="preserve" x="509" y="153">header</text>
</g>
<g>
	<line stroke="#000000" stroke-opacity="1" x1="609" y1="314" x2="553" y2="183" />
	<line stroke="#000000" stroke-opacity="1" x1="551" y1="178" x2="547" y2="185" />
	<line stroke="#000000" stroke-opacity="1" x1="551" y1="178" x2="558" y2="181" />
	<line stroke="#000000" stroke-opacity="1" x1="547" y1="185" x2="558" y2="181" />
</g>
<g>
	<line stroke="#000000" stroke-opacity="1" x1="385" y1="157" x2="480" y2="130" />
	<line stroke="#000000" stroke-opacity="1" x1="486" y1="129" x2="478" y2="124" />
	<line stroke="#000000" stroke-opacity="1" x1="486" y1="129" x2="481" y2="136" />
	<line stroke="#000000" stroke-opacity="1" x1="478" y1="124" x2="481" y2="136" />
</g>
<g>
	<line stroke="#000000" stroke-opacity="1" x1="531" y1="314" x2="528" y2="183" />
	<line stroke="#000000" stroke-opacity="1" x1="528" y1="178" x2="522" y2="184" />
	<line stroke="#000000" stroke-opacity="1" x1="528" y1="178" x2="534" y2="183" />
	<line stroke="#000000" stroke-opacity="1" x1="522" y1="184" x2="534" y2="183" />
</g>
<g>
	<line stroke="#000000" stroke-opacity="1" x1="459" y1="315" x2="503" y2="183" />
	<line stroke="#000000" stroke-opacity="1" x1="505" y1="178" x2="497" y2="181" />
	<line stroke="#000000" stroke-opacity="1" x1="505" y1="178" x2="508" y2="185" />
	<line stroke="#000000" stroke-opacity="1" x1="497" y1="181" x2="508" y2="185" />
</g>
<g>
	<rect fill="#cbcbcb" stroke="none" stroke-opacity="1" x="832" y="57" width="3" height="135" />
	<rect fill="#cbcbcb" stroke="none" stroke-opacity="1" x="698" y="189" width="137" height="3" />
	<rect fill="#ffffc0" stroke="black" stroke-width="1" stroke-opacity="1" x="694" y="53" width="138" height="136" />
	<text font-family="Helvetica" font-size="12" fill="#000000" xml:space="preserve" font-weight="bold" text-anchor="middle" x="763" y="67">ComposedShape</text>
	<line stroke="black" stroke-opacity="1" x1="694" y1="80" x2="832" y2="80" />
	<text font-family="Helvetica" font-size="12" fill="#000000" xml:space="preserve" font-weight="bold" x="698" y="94">-</text>
	<text font-family="Helvetica" font-size="12" fill="#000000" xml:space="preserve" x="716" y="94">box_w</text>
	<text font-family="Helvetica" font-size="12" fill="#000000" xml:space="preserve" font-weight="bold" x="698" y="119">-</text>
	<text font-family="Helvetica" font-size="12" fill="#000000" xml:space="preserve" x="716" y="119">box_h</text>
	<text font-family="Helvetica" font-size="12" fill="#000000" xml:space="preserve" font-weight="bold" x="698" y="144">-</text>
	<text font-family="Helvetica" font-size="12" fill="#000000" xml:space="preserve" x="716" y="144">_x</text>
	<text font-family="Helvetica" font-size="12" fill="#000000" xml:space="preserve" font-weight="bold" x="698" y="169">-</text>
	<text font-family="Helvetica" font-size="12" fill="#000000" xml:space="preserve" x="716" y="169">_y</text>
</g>
<g>
	<text font-family="Helvetica" font-size="12" fill="#000000" xml:space="preserve" x="588" y="156">&lt;&lt;:vector&gt;&gt;</text>
</g>
<g>
	<line stroke="black" stroke-opacity="1" x1="567" y1="156" x2="574" y2="160" />
	<line stroke="black" stroke-opacity="1" x1="567" y1="156" x2="571" y2="148" />
	<line stroke="black" stroke-opacity="1" x1="693" y1="121" x2="567" y2="156" />
</g>
<g>
	<line stroke="#000000" stroke-opacity="1" x1="693" y1="121" x2="572" y2="74" />
	<line stroke="#000000" stroke-opacity="1" x1="567" y1="72" x2="570" y2="79" />
	<line stroke="#000000" stroke-opacity="1" x1="567" y1="72" x2="574" y2="68" />
	<line stroke="#000000" stroke-opacity="1" x1="570" y1="79" x2="574" y2="68" />
</g>
<g>
	<text font-family="Helvetica" font-size="12" fill="#000000" xml:space="preserve" x="96" y="234">point</text>
</g>
<g>
	<text font-family="Helvetica" font-size="12" fill="#000000" xml:space="preserve" x="177" y="232">point</text>
</g>
<g>
	<text font-family="Helvetica" font-size="12" fill="#000000" xml:space="preserve" x="577" y="134">shape</text>
</g>
</svg>
