<svg version="1.1"
baseProfile="full"
width="900" height="700" xmlns="http://www.w3.org/2000/svg">
<rect width="800" height="600" y="0" x="0" stroke="black" stroke-width="1.6" fill="white"/>/>
<circle cx="50" cy="50" r="50" stroke="black" stroke-width="1.6" fill="cornflowerblue"/>
<circle cx="150" cy="50" r="50" stroke="black" stroke-width="1.6" fill="cornflowerblue"/>
<circle cx="250" cy="50" r="50" stroke="black" stroke-width="1.6" fill="cornflowerblue"/>
<circle cx="350" cy="50" r="50" stroke="black" stroke-width="1.6" fill="cornflowerblue"/>
<circle cx="450" cy="50" r="50" stroke="black" stroke-width="1.6" fill="cornflowerblue"/>
<circle cx="550" cy="50" r="50" stroke="black" stroke-width="1.6" fill="cornflowerblue"/>
<circle cx="650" cy="50" r="50" stroke="black" stroke-width="1.6" fill="cornflowerblue"/>
<circle cx="750" cy="50" r="50" stroke="black" stroke-width="1.6" fill="cornflowerblue"/>
<circle cx="50" cy="150" r="50" stroke="black" stroke-width="1.6" fill="cornflowerblue"/>
<circle cx="150" cy="150" r="50" stroke="black" stroke-width="1.6" fill="cornflowerblue"/>
<circle cx="250" cy="150" r="50" stroke="black" stroke-width="1.6" fill="cornflowerblue"/>
<circle cx="350" cy="150" r="50" stroke="black" stroke-width="1.6" fill="cornflowerblue"/>
<circle cx="450" cy="150" r="50" stroke="black" stroke-width="1.6" fill="cornflowerblue"/>
<circle cx="550" cy="150" r="50" stroke="black" stroke-width="1.6" fill="cornflowerblue"/>
<circle cx="650" cy="150" r="50" stroke="black" stroke-width="1.6" fill="cornflowerblue"/>
<circle cx="750" cy="150" r="50" stroke="black" stroke-width="1.6" fill="cornflowerblue"/>
<circle cx="50" cy="250" r="50" stroke="black" stroke-width="1.6" fill="cornflowerblue"/>
<circle cx="150" cy="250" r="50" stroke="black" stroke-width="1.6" fill="cornflowerblue"/>
<circle cx="250" cy="250" r="50" stroke="black" stroke-width="1.6" fill="cornflowerblue"/>
<circle cx="350" cy="250" r="50" stroke="black" stroke-width="1.6" fill="cornflowerblue"/>
<circle cx="450" cy="250" r="50" stroke="black" stroke-width="1.6" fill="cornflowerblue"/>
<circle cx="550" cy="250" r="50" stroke="black" stroke-width="1.6" fill="cornflowerblue"/>
<circle cx="650" cy="250" r="50" stroke="black" stroke-width="1.6" fill="cornflowerblue"/>
<circle cx="750" cy="250" r="50" stroke="black" stroke-width="1.6" fill="cornflowerblue"/>
<circle cx="50" cy="350" r="50" stroke="black" stroke-width="1.6" fill="cornflowerblue"/>
<circle cx="150" cy="350" r="50" stroke="black" stroke-width="1.6" fill="cornflowerblue"/>
<circle cx="250" cy="350" r="50" stroke="black" stroke-width="1.6" fill="cornflowerblue"/>
<circle cx="350" cy="350" r="50" stroke="black" stroke-width="1.6" fill="cornflowerblue"/>
<circle cx="450" cy="350" r="50" stroke="black" stroke-width="1.6" fill="cornflowerblue"/>
<circle cx="550" cy="350" r="50" stroke="black" stroke-width="1.6" fill="cornflowerblue"/>
<circle cx="650" cy="350" r="50" stroke="black" stroke-width="1.6" fill="cornflowerblue"/>
<circle cx="750" cy="350" r="50" stroke="black" stroke-width="1.6" fill="cornflowerblue"/>
<circle cx="50" cy="450" r="50" stroke="black" stroke-width="1.6" fill="cornflowerblue"/>
<circle cx="150" cy="450" r="50" stroke="black" stroke-width="1.6" fill="cornflowerblue"/>
<circle cx="250" cy="450" r="50" stroke="black" stroke-width="1.6" fill="cornflowerblue"/>
<circle cx="350" cy="450" r="50" stroke="black" stroke-width="1.6" fill="cornflowerblue"/>
<circle cx="450" cy="450" r="50" stroke="black" stroke-width="1.6" fill="cornflowerblue"/>
<circle cx="550" cy="450" r="50" stroke="black" stroke-width="1.6" fill="cornflowerblue"/>
<circle cx="650" cy="450" r="50" stroke="black" stroke-width="1.6" fill="cornflowerblue"/>
<circle cx="750" cy="450" r="50" stroke="black" stroke-width="1.6" fill="cornflowerblue"/>
<circle cx="50" cy="550" r="50" stroke="black" stroke-width="1.6" fill="cornflowerblue"/>
<circle cx="150" cy="550" r="50" stroke="black" stroke-width="1.6" fill="cornflowerblue"/>
<circle cx="250" cy="550" r="50" stroke="black" stroke-width="1.6" fill="cornflowerblue"/>
<circle cx="350" cy="550" r="50" stroke="black" stroke-width="1.6" fill="cornflowerblue"/>
<circle cx="450" cy="550" r="50" stroke="black" stroke-width="1.6" fill="cornflowerblue"/>
<circle cx="550" cy="550" r="50" stroke="black" stroke-width="1.6" fill="cornflowerblue"/>
<circle cx="650" cy="550" r="50" stroke="black" stroke-width="1.6" fill="cornflowerblue"/>
<circle cx="750" cy="550" r="50" stroke="black" stroke-width="1.6" fill="cornflowerblue"/>
 </svg>