<svg version="1.1"
baseProfile="full"
width="1100" height="1100" xmlns="http://www.w3.org/2000/svg">
<circle cx="500" cy="500" r="500" stroke="black" stroke-width="1.6" fill="white"/>
<circle cx="380" cy="920" r="50" stroke="black" stroke-width="1.6" fill="cornflowerblue"/>
<circle cx="480" cy="920" r="50" stroke="black" stroke-width="1.6" fill="cornflowerblue"/>
<circle cx="580" cy="920" r="50" stroke="black" stroke-width="1.6" fill="cornflowerblue"/>
<circle cx="229.167" cy="820" r="50" stroke="black" stroke-width="1.6" fill="cornflowerblue"/>
<circle cx="329.167" cy="820" r="50" stroke="black" stroke-width="1.6" fill="cornflowerblue"/>
<circle cx="429.167" cy="820" r="50" stroke="black" stroke-width="1.6" fill="cornflowerblue"/>
<circle cx="529.167" cy="820" r="50" stroke="black" stroke-width="1.6" fill="cornflowerblue"/>
<circle cx="629.167" cy="820" r="50" stroke="black" stroke-width="1.6" fill="cornflowerblue"/>
<circle cx="729.167" cy="820" r="50" stroke="black" stroke-width="1.6" fill="cornflowerblue"/>
<circle cx="179.787" cy="720" r="50" stroke="black" stroke-width="1.6" fill="cornflowerblue"/>
<circle cx="279.787" cy="720" r="50" stroke="black" stroke-width="1.6" fill="cornflowerblue"/>
<circle cx="379.787" cy="720" r="50" stroke="black" stroke-width="1.6" fill="cornflowerblue"/>
<circle cx="479.787" cy="720" r="50" stroke="black" stroke-width="1.6" fill="cornflowerblue"/>
<circle cx="579.787" cy="720" r="50" stroke="black" stroke-width="1.6" fill="cornflowerblue"/>
<circle cx="679.787" cy="720" r="50" stroke="black" stroke-width="1.6" fill="cornflowerblue"/>
<circle cx="779.787" cy="720" r="50" stroke="black" stroke-width="1.6" fill="cornflowerblue"/>
<circle cx="154.924" cy="620" r="50" stroke="black" stroke-width="1.6" fill="cornflowerblue"/>
<circle cx="254.924" cy="620" r="50" stroke="black" stroke-width="1.6" fill="cornflowerblue"/>
<circle cx="354.924" cy="620" r="50" stroke="black" stroke-width="1.6" fill="cornflowerblue"/>
<circle cx="454.924" cy="620" r="50" stroke="black" stroke-width="1.6" fill="cornflowerblue"/>
<circle cx="554.924" cy="620" r="50" stroke="black" stroke-width="1.6" fill="cornflowerblue"/>
<circle cx="654.924" cy="620" r="50" stroke="black" stroke-width="1.6" fill="cornflowerblue"/>
<circle cx="754.924" cy="620" r="50" stroke="black" stroke-width="1.6" fill="cornflowerblue"/>
<circle cx="854.924" cy="620" r="50" stroke="black" stroke-width="1.6" fill="cornflowerblue"/>
<circle cx="50.9008" cy="520" r="50" stroke="black" stroke-width="1.6" fill="cornflowerblue"/>
<circle cx="150.901" cy="520" r="50" stroke="black" stroke-width="1.6" fill="cornflowerblue"/>
<circle cx="250.901" cy="520" r="50" stroke="black" stroke-width="1.6" fill="cornflowerblue"/>
<circle cx="350.901" cy="520" r="50" stroke="black" stroke-width="1.6" fill="cornflowerblue"/>
<circle cx="450.901" cy="520" r="50" stroke="black" stroke-width="1.6" fill="cornflowerblue"/>
<circle cx="550.901" cy="520" r="50" stroke="black" stroke-width="1.6" fill="cornflowerblue"/>
<circle cx="650.901" cy="520" r="50" stroke="black" stroke-width="1.6" fill="cornflowerblue"/>
<circle cx="750.901" cy="520" r="50" stroke="black" stroke-width="1.6" fill="cornflowerblue"/>
<circle cx="850.901" cy="520" r="50" stroke="black" stroke-width="1.6" fill="cornflowerblue"/>
<circle cx="67.1957" cy="420" r="50" stroke="black" stroke-width="1.6" fill="cornflowerblue"/>
<circle cx="167.196" cy="420" r="50" stroke="black" stroke-width="1.6" fill="cornflowerblue"/>
<circle cx="267.196" cy="420" r="50" stroke="black" stroke-width="1.6" fill="cornflowerblue"/>
<circle cx="367.196" cy="420" r="50" stroke="black" stroke-width="1.6" fill="cornflowerblue"/>
<circle cx="467.196" cy="420" r="50" stroke="black" stroke-width="1.6" fill="cornflowerblue"/>
<circle cx="567.196" cy="420" r="50" stroke="black" stroke-width="1.6" fill="cornflowerblue"/>
<circle cx="667.196" cy="420" r="50" stroke="black" stroke-width="1.6" fill="cornflowerblue"/>
<circle cx="767.196" cy="420" r="50" stroke="black" stroke-width="1.6" fill="cornflowerblue"/>
<circle cx="867.196" cy="420" r="50" stroke="black" stroke-width="1.6" fill="cornflowerblue"/>
<circle cx="106.041" cy="320" r="50" stroke="black" stroke-width="1.6" fill="cornflowerblue"/>
<circle cx="206.041" cy="320" r="50" stroke="black" stroke-width="1.6" fill="cornflowerblue"/>
<circle cx="306.041" cy="320" r="50" stroke="black" stroke-width="1.6" fill="cornflowerblue"/>
<circle cx="406.041" cy="320" r="50" stroke="black" stroke-width="1.6" fill="cornflowerblue"/>
<circle cx="506.041" cy="320" r="50" stroke="black" stroke-width="1.6" fill="cornflowerblue"/>
<circle cx="606.041" cy="320" r="50" stroke="black" stroke-width="1.6" fill="cornflowerblue"/>
<circle cx="706.041" cy="320" r="50" stroke="black" stroke-width="1.6" fill="cornflowerblue"/>
<circle cx="806.041" cy="320" r="50" stroke="black" stroke-width="1.6" fill="cornflowerblue"/>
<circle cx="174.367" cy="220" r="50" stroke="black" stroke-width="1.6" fill="cornflowerblue"/>
<circle cx="274.367" cy="220" r="50" stroke="black" stroke-width="1.6" fill="cornflowerblue"/>
<circle cx="374.367" cy="220" r="50" stroke="black" stroke-width="1.6" fill="cornflowerblue"/>
<circle cx="474.367" cy="220" r="50" stroke="black" stroke-width="1.6" fill="cornflowerblue"/>
<circle cx="574.367" cy="220" r="50" stroke="black" stroke-width="1.6" fill="cornflowerblue"/>
<circle cx="674.367" cy="220" r="50" stroke="black" stroke-width="1.6" fill="cornflowerblue"/>
<circle cx="774.367" cy="220" r="50" stroke="black" stroke-width="1.6" fill="cornflowerblue"/>
<circle cx="294.853" cy="120" r="50" stroke="black" stroke-width="1.6" fill="cornflowerblue"/>
<circle cx="394.853" cy="120" r="50" stroke="black" stroke-width="1.6" fill="cornflowerblue"/>
<circle cx="494.853" cy="120" r="50" stroke="black" stroke-width="1.6" fill="cornflowerblue"/>
<circle cx="594.853" cy="120" r="50" stroke="black" stroke-width="1.6" fill="cornflowerblue"/>
<circle cx="694.853" cy="120" r="50" stroke="black" stroke-width="1.6" fill="cornflowerblue"/>
 </svg>