<svg version="1.1"
baseProfile="full"
width="900" height="700" xmlns="http://www.w3.org/2000/svg">
<rect width="800" height="600" y="0" x="0" stroke="black" stroke-width="1.6" fill="white"/>/>
<rect width="47" height="38" y="0" x="0" stroke="black" stroke-width="1.6" fill="cornflowerblue"/>/>
<rect width="47" height="38" y="38" x="0" stroke="black" stroke-width="1.6" fill="cornflowerblue"/>/>
<rect width="47" height="38" y="76" x="0" stroke="black" stroke-width="1.6" fill="cornflowerblue"/>/>
<rect width="47" height="38" y="114" x="0" stroke="black" stroke-width="1.6" fill="cornflowerblue"/>/>
<rect width="47" height="38" y="152" x="0" stroke="black" stroke-width="1.6" fill="cornflowerblue"/>/>
<rect width="47" height="38" y="190" x="0" stroke="black" stroke-width="1.6" fill="cornflowerblue"/>/>
<rect width="47" height="38" y="228" x="0" stroke="black" stroke-width="1.6" fill="cornflowerblue"/>/>
<rect width="47" height="38" y="266" x="0" stroke="black" stroke-width="1.6" fill="cornflowerblue"/>/>
<rect width="47" height="38" y="304" x="0" stroke="black" stroke-width="1.6" fill="cornflowerblue"/>/>
<rect width="47" height="38" y="342" x="0" stroke="black" stroke-width="1.6" fill="cornflowerblue"/>/>
<rect width="47" height="38" y="380" x="0" stroke="black" stroke-width="1.6" fill="cornflowerblue"/>/>
<rect width="47" height="38" y="418" x="0" stroke="black" stroke-width="1.6" fill="cornflowerblue"/>/>
<rect width="47" height="38" y="456" x="0" stroke="black" stroke-width="1.6" fill="cornflowerblue"/>/>
<rect width="47" height="38" y="494" x="0" stroke="black" stroke-width="1.6" fill="cornflowerblue"/>/>
<rect width="47" height="38" y="532" x="0" stroke="black" stroke-width="1.6" fill="cornflowerblue"/>/>
<rect width="47" height="38" y="0" x="47" stroke="black" stroke-width="1.6" fill="cornflowerblue"/>/>
<rect width="47" height="38" y="38" x="47" stroke="black" stroke-width="1.6" fill="cornflowerblue"/>/>
<rect width="47" height="38" y="76" x="47" stroke="black" stroke-width="1.6" fill="cornflowerblue"/>/>
<rect width="47" height="38" y="114" x="47" stroke="black" stroke-width="1.6" fill="cornflowerblue"/>/>
<rect width="47" height="38" y="152" x="47" stroke="black" stroke-width="1.6" fill="cornflowerblue"/>/>
<rect width="47" height="38" y="190" x="47" stroke="black" stroke-width="1.6" fill="cornflowerblue"/>/>
<rect width="47" height="38" y="228" x="47" stroke="black" stroke-width="1.6" fill="cornflowerblue"/>/>
<rect width="47" height="38" y="266" x="47" stroke="black" stroke-width="1.6" fill="cornflowerblue"/>/>
<rect width="47" height="38" y="304" x="47" stroke="black" stroke-width="1.6" fill="cornflowerblue"/>/>
<rect width="47" height="38" y="342" x="47" stroke="black" stroke-width="1.6" fill="cornflowerblue"/>/>
<rect width="47" height="38" y="380" x="47" stroke="black" stroke-width="1.6" fill="cornflowerblue"/>/>
<rect width="47" height="38" y="418" x="47" stroke="black" stroke-width="1.6" fill="cornflowerblue"/>/>
<rect width="47" height="38" y="456" x="47" stroke="black" stroke-width="1.6" fill="cornflowerblue"/>/>
<rect width="47" height="38" y="494" x="47" stroke="black" stroke-width="1.6" fill="cornflowerblue"/>/>
<rect width="47" height="38" y="532" x="47" stroke="black" stroke-width="1.6" fill="cornflowerblue"/>/>
<rect width="47" height="38" y="0" x="94" stroke="black" stroke-width="1.6" fill="cornflowerblue"/>/>
<rect width="47" height="38" y="38" x="94" stroke="black" stroke-width="1.6" fill="cornflowerblue"/>/>
<rect width="47" height="38" y="76" x="94" stroke="black" stroke-width="1.6" fill="cornflowerblue"/>/>
<rect width="47" height="38" y="114" x="94" stroke="black" stroke-width="1.6" fill="cornflowerblue"/>/>
<rect width="47" height="38" y="152" x="94" stroke="black" stroke-width="1.6" fill="cornflowerblue"/>/>
<rect width="47" height="38" y="190" x="94" stroke="black" stroke-width="1.6" fill="cornflowerblue"/>/>
<rect width="47" height="38" y="228" x="94" stroke="black" stroke-width="1.6" fill="cornflowerblue"/>/>
<rect width="47" height="38" y="266" x="94" stroke="black" stroke-width="1.6" fill="cornflowerblue"/>/>
<rect width="47" height="38" y="304" x="94" stroke="black" stroke-width="1.6" fill="cornflowerblue"/>/>
<rect width="47" height="38" y="342" x="94" stroke="black" stroke-width="1.6" fill="cornflowerblue"/>/>
<rect width="47" height="38" y="380" x="94" stroke="black" stroke-width="1.6" fill="cornflowerblue"/>/>
<rect width="47" height="38" y="418" x="94" stroke="black" stroke-width="1.6" fill="cornflowerblue"/>/>
<rect width="47" height="38" y="456" x="94" stroke="black" stroke-width="1.6" fill="cornflowerblue"/>/>
<rect width="47" height="38" y="494" x="94" stroke="black" stroke-width="1.6" fill="cornflowerblue"/>/>
<rect width="47" height="38" y="532" x="94" stroke="black" stroke-width="1.6" fill="cornflowerblue"/>/>
<rect width="47" height="38" y="0" x="141" stroke="black" stroke-width="1.6" fill="cornflowerblue"/>/>
<rect width="47" height="38" y="38" x="141" stroke="black" stroke-width="1.6" fill="cornflowerblue"/>/>
<rect width="47" height="38" y="76" x="141" stroke="black" stroke-width="1.6" fill="cornflowerblue"/>/>
<rect width="47" height="38" y="114" x="141" stroke="black" stroke-width="1.6" fill="cornflowerblue"/>/>
<rect width="47" height="38" y="152" x="141" stroke="black" stroke-width="1.6" fill="cornflowerblue"/>/>
<rect width="47" height="38" y="190" x="141" stroke="black" stroke-width="1.6" fill="cornflowerblue"/>/>
<rect width="47" height="38" y="228" x="141" stroke="black" stroke-width="1.6" fill="cornflowerblue"/>/>
<rect width="47" height="38" y="266" x="141" stroke="black" stroke-width="1.6" fill="cornflowerblue"/>/>
<rect width="47" height="38" y="304" x="141" stroke="black" stroke-width="1.6" fill="cornflowerblue"/>/>
<rect width="47" height="38" y="342" x="141" stroke="black" stroke-width="1.6" fill="cornflowerblue"/>/>
<rect width="47" height="38" y="380" x="141" stroke="black" stroke-width="1.6" fill="cornflowerblue"/>/>
<rect width="47" height="38" y="418" x="141" stroke="black" stroke-width="1.6" fill="cornflowerblue"/>/>
<rect width="47" height="38" y="456" x="141" stroke="black" stroke-width="1.6" fill="cornflowerblue"/>/>
<rect width="47" height="38" y="494" x="141" stroke="black" stroke-width="1.6" fill="cornflowerblue"/>/>
<rect width="47" height="38" y="532" x="141" stroke="black" stroke-width="1.6" fill="cornflowerblue"/>/>
<rect width="47" height="38" y="0" x="188" stroke="black" stroke-width="1.6" fill="cornflowerblue"/>/>
<rect width="47" height="38" y="38" x="188" stroke="black" stroke-width="1.6" fill="cornflowerblue"/>/>
<rect width="47" height="38" y="76" x="188" stroke="black" stroke-width="1.6" fill="cornflowerblue"/>/>
<rect width="47" height="38" y="114" x="188" stroke="black" stroke-width="1.6" fill="cornflowerblue"/>/>
<rect width="47" height="38" y="152" x="188" stroke="black" stroke-width="1.6" fill="cornflowerblue"/>/>
<rect width="47" height="38" y="190" x="188" stroke="black" stroke-width="1.6" fill="cornflowerblue"/>/>
<rect width="47" height="38" y="228" x="188" stroke="black" stroke-width="1.6" fill="cornflowerblue"/>/>
<rect width="47" height="38" y="266" x="188" stroke="black" stroke-width="1.6" fill="cornflowerblue"/>/>
<rect width="47" height="38" y="304" x="188" stroke="black" stroke-width="1.6" fill="cornflowerblue"/>/>
<rect width="47" height="38" y="342" x="188" stroke="black" stroke-width="1.6" fill="cornflowerblue"/>/>
<rect width="47" height="38" y="380" x="188" stroke="black" stroke-width="1.6" fill="cornflowerblue"/>/>
<rect width="47" height="38" y="418" x="188" stroke="black" stroke-width="1.6" fill="cornflowerblue"/>/>
<rect width="47" height="38" y="456" x="188" stroke="black" stroke-width="1.6" fill="cornflowerblue"/>/>
<rect width="47" height="38" y="494" x="188" stroke="black" stroke-width="1.6" fill="cornflowerblue"/>/>
<rect width="47" height="38" y="532" x="188" stroke="black" stroke-width="1.6" fill="cornflowerblue"/>/>
<rect width="47" height="38" y="0" x="235" stroke="black" stroke-width="1.6" fill="cornflowerblue"/>/>
<rect width="47" height="38" y="38" x="235" stroke="black" stroke-width="1.6" fill="cornflowerblue"/>/>
<rect width="47" height="38" y="76" x="235" stroke="black" stroke-width="1.6" fill="cornflowerblue"/>/>
<rect width="47" height="38" y="114" x="235" stroke="black" stroke-width="1.6" fill="cornflowerblue"/>/>
<rect width="47" height="38" y="152" x="235" stroke="black" stroke-width="1.6" fill="cornflowerblue"/>/>
<rect width="47" height="38" y="190" x="235" stroke="black" stroke-width="1.6" fill="cornflowerblue"/>/>
<rect width="47" height="38" y="228" x="235" stroke="black" stroke-width="1.6" fill="cornflowerblue"/>/>
<rect width="47" height="38" y="266" x="235" stroke="black" stroke-width="1.6" fill="cornflowerblue"/>/>
<rect width="47" height="38" y="304" x="235" stroke="black" stroke-width="1.6" fill="cornflowerblue"/>/>
<rect width="47" height="38" y="342" x="235" stroke="black" stroke-width="1.6" fill="cornflowerblue"/>/>
<rect width="47" height="38" y="380" x="235" stroke="black" stroke-width="1.6" fill="cornflowerblue"/>/>
<rect width="47" height="38" y="418" x="235" stroke="black" stroke-width="1.6" fill="cornflowerblue"/>/>
<rect width="47" height="38" y="456" x="235" stroke="black" stroke-width="1.6" fill="cornflowerblue"/>/>
<rect width="47" height="38" y="494" x="235" stroke="black" stroke-width="1.6" fill="cornflowerblue"/>/>
<rect width="47" height="38" y="532" x="235" stroke="black" stroke-width="1.6" fill="cornflowerblue"/>/>
<rect width="47" height="38" y="0" x="282" stroke="black" stroke-width="1.6" fill="cornflowerblue"/>/>
<rect width="47" height="38" y="38" x="282" stroke="black" stroke-width="1.6" fill="cornflowerblue"/>/>
<rect width="47" height="38" y="76" x="282" stroke="black" stroke-width="1.6" fill="cornflowerblue"/>/>
<rect width="47" height="38" y="114" x="282" stroke="black" stroke-width="1.6" fill="cornflowerblue"/>/>
<rect width="47" height="38" y="152" x="282" stroke="black" stroke-width="1.6" fill="cornflowerblue"/>/>
<rect width="47" height="38" y="190" x="282" stroke="black" stroke-width="1.6" fill="cornflowerblue"/>/>
<rect width="47" height="38" y="228" x="282" stroke="black" stroke-width="1.6" fill="cornflowerblue"/>/>
<rect width="47" height="38" y="266" x="282" stroke="black" stroke-width="1.6" fill="cornflowerblue"/>/>
<rect width="47" height="38" y="304" x="282" stroke="black" stroke-width="1.6" fill="cornflowerblue"/>/>
<rect width="47" height="38" y="342" x="282" stroke="black" stroke-width="1.6" fill="cornflowerblue"/>/>
<rect width="47" height="38" y="380" x="282" stroke="black" stroke-width="1.6" fill="cornflowerblue"/>/>
<rect width="47" height="38" y="418" x="282" stroke="black" stroke-width="1.6" fill="cornflowerblue"/>/>
<rect width="47" height="38" y="456" x="282" stroke="black" stroke-width="1.6" fill="cornflowerblue"/>/>
<rect width="47" height="38" y="494" x="282" stroke="black" stroke-width="1.6" fill="cornflowerblue"/>/>
<rect width="47" height="38" y="532" x="282" stroke="black" stroke-width="1.6" fill="cornflowerblue"/>/>
<rect width="47" height="38" y="0" x="329" stroke="black" stroke-width="1.6" fill="cornflowerblue"/>/>
<rect width="47" height="38" y="38" x="329" stroke="black" stroke-width="1.6" fill="cornflowerblue"/>/>
<rect width="47" height="38" y="76" x="329" stroke="black" stroke-width="1.6" fill="cornflowerblue"/>/>
<rect width="47" height="38" y="114" x="329" stroke="black" stroke-width="1.6" fill="cornflowerblue"/>/>
<rect width="47" height="38" y="152" x="329" stroke="black" stroke-width="1.6" fill="cornflowerblue"/>/>
<rect width="47" height="38" y="190" x="329" stroke="black" stroke-width="1.6" fill="cornflowerblue"/>/>
<rect width="47" height="38" y="228" x="329" stroke="black" stroke-width="1.6" fill="cornflowerblue"/>/>
<rect width="47" height="38" y="266" x="329" stroke="black" stroke-width="1.6" fill="cornflowerblue"/>/>
<rect width="47" height="38" y="304" x="329" stroke="black" stroke-width="1.6" fill="cornflowerblue"/>/>
<rect width="47" height="38" y="342" x="329" stroke="black" stroke-width="1.6" fill="cornflowerblue"/>/>
<rect width="47" height="38" y="380" x="329" stroke="black" stroke-width="1.6" fill="cornflowerblue"/>/>
<rect width="47" height="38" y="418" x="329" stroke="black" stroke-width="1.6" fill="cornflowerblue"/>/>
<rect width="47" height="38" y="456" x="329" stroke="black" stroke-width="1.6" fill="cornflowerblue"/>/>
<rect width="47" height="38" y="494" x="329" stroke="black" stroke-width="1.6" fill="cornflowerblue"/>/>
<rect width="47" height="38" y="532" x="329" stroke="black" stroke-width="1.6" fill="cornflowerblue"/>/>
<rect width="47" height="38" y="0" x="376" stroke="black" stroke-width="1.6" fill="cornflowerblue"/>/>
<rect width="47" height="38" y="38" x="376" stroke="black" stroke-width="1.6" fill="cornflowerblue"/>/>
<rect width="47" height="38" y="76" x="376" stroke="black" stroke-width="1.6" fill="cornflowerblue"/>/>
<rect width="47" height="38" y="114" x="376" stroke="black" stroke-width="1.6" fill="cornflowerblue"/>/>
<rect width="47" height="38" y="152" x="376" stroke="black" stroke-width="1.6" fill="cornflowerblue"/>/>
<rect width="47" height="38" y="190" x="376" stroke="black" stroke-width="1.6" fill="cornflowerblue"/>/>
<rect width="47" height="38" y="228" x="376" stroke="black" stroke-width="1.6" fill="cornflowerblue"/>/>
<rect width="47" height="38" y="266" x="376" stroke="black" stroke-width="1.6" fill="cornflowerblue"/>/>
<rect width="47" height="38" y="304" x="376" stroke="black" stroke-width="1.6" fill="cornflowerblue"/>/>
<rect width="47" height="38" y="342" x="376" stroke="black" stroke-width="1.6" fill="cornflowerblue"/>/>
<rect width="47" height="38" y="380" x="376" stroke="black" stroke-width="1.6" fill="cornflowerblue"/>/>
<rect width="47" height="38" y="418" x="376" stroke="black" stroke-width="1.6" fill="cornflowerblue"/>/>
<rect width="47" height="38" y="456" x="376" stroke="black" stroke-width="1.6" fill="cornflowerblue"/>/>
<rect width="47" height="38" y="494" x="376" stroke="black" stroke-width="1.6" fill="cornflowerblue"/>/>
<rect width="47" height="38" y="532" x="376" stroke="black" stroke-width="1.6" fill="cornflowerblue"/>/>
<rect width="47" height="38" y="0" x="423" stroke="black" stroke-width="1.6" fill="cornflowerblue"/>/>
<rect width="47" height="38" y="38" x="423" stroke="black" stroke-width="1.6" fill="cornflowerblue"/>/>
<rect width="47" height="38" y="76" x="423" stroke="black" stroke-width="1.6" fill="cornflowerblue"/>/>
<rect width="47" height="38" y="114" x="423" stroke="black" stroke-width="1.6" fill="cornflowerblue"/>/>
<rect width="47" height="38" y="152" x="423" stroke="black" stroke-width="1.6" fill="cornflowerblue"/>/>
<rect width="47" height="38" y="190" x="423" stroke="black" stroke-width="1.6" fill="cornflowerblue"/>/>
<rect width="47" height="38" y="228" x="423" stroke="black" stroke-width="1.6" fill="cornflowerblue"/>/>
<rect width="47" height="38" y="266" x="423" stroke="black" stroke-width="1.6" fill="cornflowerblue"/>/>
<rect width="47" height="38" y="304" x="423" stroke="black" stroke-width="1.6" fill="cornflowerblue"/>/>
<rect width="47" height="38" y="342" x="423" stroke="black" stroke-width="1.6" fill="cornflowerblue"/>/>
<rect width="47" height="38" y="380" x="423" stroke="black" stroke-width="1.6" fill="cornflowerblue"/>/>
<rect width="47" height="38" y="418" x="423" stroke="black" stroke-width="1.6" fill="cornflowerblue"/>/>
<rect width="47" height="38" y="456" x="423" stroke="black" stroke-width="1.6" fill="cornflowerblue"/>/>
<rect width="47" height="38" y="494" x="423" stroke="black" stroke-width="1.6" fill="cornflowerblue"/>/>
<rect width="47" height="38" y="532" x="423" stroke="black" stroke-width="1.6" fill="cornflowerblue"/>/>
<rect width="47" height="38" y="0" x="470" stroke="black" stroke-width="1.6" fill="cornflowerblue"/>/>
<rect width="47" height="38" y="38" x="470" stroke="black" stroke-width="1.6" fill="cornflowerblue"/>/>
<rect width="47" height="38" y="76" x="470" stroke="black" stroke-width="1.6" fill="cornflowerblue"/>/>
<rect width="47" height="38" y="114" x="470" stroke="black" stroke-width="1.6" fill="cornflowerblue"/>/>
<rect width="47" height="38" y="152" x="470" stroke="black" stroke-width="1.6" fill="cornflowerblue"/>/>
<rect width="47" height="38" y="190" x="470" stroke="black" stroke-width="1.6" fill="cornflowerblue"/>/>
<rect width="47" height="38" y="228" x="470" stroke="black" stroke-width="1.6" fill="cornflowerblue"/>/>
<rect width="47" height="38" y="266" x="470" stroke="black" stroke-width="1.6" fill="cornflowerblue"/>/>
<rect width="47" height="38" y="304" x="470" stroke="black" stroke-width="1.6" fill="cornflowerblue"/>/>
<rect width="47" height="38" y="342" x="470" stroke="black" stroke-width="1.6" fill="cornflowerblue"/>/>
<rect width="47" height="38" y="380" x="470" stroke="black" stroke-width="1.6" fill="cornflowerblue"/>/>
<rect width="47" height="38" y="418" x="470" stroke="black" stroke-width="1.6" fill="cornflowerblue"/>/>
<rect width="47" height="38" y="456" x="470" stroke="black" stroke-width="1.6" fill="cornflowerblue"/>/>
<rect width="47" height="38" y="494" x="470" stroke="black" stroke-width="1.6" fill="cornflowerblue"/>/>
<rect width="47" height="38" y="532" x="470" stroke="black" stroke-width="1.6" fill="cornflowerblue"/>/>
<rect width="47" height="38" y="0" x="517" stroke="black" stroke-width="1.6" fill="cornflowerblue"/>/>
<rect width="47" height="38" y="38" x="517" stroke="black" stroke-width="1.6" fill="cornflowerblue"/>/>
<rect width="47" height="38" y="76" x="517" stroke="black" stroke-width="1.6" fill="cornflowerblue"/>/>
<rect width="47" height="38" y="114" x="517" stroke="black" stroke-width="1.6" fill="cornflowerblue"/>/>
<rect width="47" height="38" y="152" x="517" stroke="black" stroke-width="1.6" fill="cornflowerblue"/>/>
<rect width="47" height="38" y="190" x="517" stroke="black" stroke-width="1.6" fill="cornflowerblue"/>/>
<rect width="47" height="38" y="228" x="517" stroke="black" stroke-width="1.6" fill="cornflowerblue"/>/>
<rect width="47" height="38" y="266" x="517" stroke="black" stroke-width="1.6" fill="cornflowerblue"/>/>
<rect width="47" height="38" y="304" x="517" stroke="black" stroke-width="1.6" fill="cornflowerblue"/>/>
<rect width="47" height="38" y="342" x="517" stroke="black" stroke-width="1.6" fill="cornflowerblue"/>/>
<rect width="47" height="38" y="380" x="517" stroke="black" stroke-width="1.6" fill="cornflowerblue"/>/>
<rect width="47" height="38" y="418" x="517" stroke="black" stroke-width="1.6" fill="cornflowerblue"/>/>
<rect width="47" height="38" y="456" x="517" stroke="black" stroke-width="1.6" fill="cornflowerblue"/>/>
<rect width="47" height="38" y="494" x="517" stroke="black" stroke-width="1.6" fill="cornflowerblue"/>/>
<rect width="47" height="38" y="532" x="517" stroke="black" stroke-width="1.6" fill="cornflowerblue"/>/>
<rect width="47" height="38" y="0" x="564" stroke="black" stroke-width="1.6" fill="cornflowerblue"/>/>
<rect width="47" height="38" y="38" x="564" stroke="black" stroke-width="1.6" fill="cornflowerblue"/>/>
<rect width="47" height="38" y="76" x="564" stroke="black" stroke-width="1.6" fill="cornflowerblue"/>/>
<rect width="47" height="38" y="114" x="564" stroke="black" stroke-width="1.6" fill="cornflowerblue"/>/>
<rect width="47" height="38" y="152" x="564" stroke="black" stroke-width="1.6" fill="cornflowerblue"/>/>
<rect width="47" height="38" y="190" x="564" stroke="black" stroke-width="1.6" fill="cornflowerblue"/>/>
<rect width="47" height="38" y="228" x="564" stroke="black" stroke-width="1.6" fill="cornflowerblue"/>/>
<rect width="47" height="38" y="266" x="564" stroke="black" stroke-width="1.6" fill="cornflowerblue"/>/>
<rect width="47" height="38" y="304" x="564" stroke="black" stroke-width="1.6" fill="cornflowerblue"/>/>
<rect width="47" height="38" y="342" x="564" stroke="black" stroke-width="1.6" fill="cornflowerblue"/>/>
<rect width="47" height="38" y="380" x="564" stroke="black" stroke-width="1.6" fill="cornflowerblue"/>/>
<rect width="47" height="38" y="418" x="564" stroke="black" stroke-width="1.6" fill="cornflowerblue"/>/>
<rect width="47" height="38" y="456" x="564" stroke="black" stroke-width="1.6" fill="cornflowerblue"/>/>
<rect width="47" height="38" y="494" x="564" stroke="black" stroke-width="1.6" fill="cornflowerblue"/>/>
<rect width="47" height="38" y="532" x="564" stroke="black" stroke-width="1.6" fill="cornflowerblue"/>/>
<rect width="47" height="38" y="0" x="611" stroke="black" stroke-width="1.6" fill="cornflowerblue"/>/>
<rect width="47" height="38" y="38" x="611" stroke="black" stroke-width="1.6" fill="cornflowerblue"/>/>
<rect width="47" height="38" y="76" x="611" stroke="black" stroke-width="1.6" fill="cornflowerblue"/>/>
<rect width="47" height="38" y="114" x="611" stroke="black" stroke-width="1.6" fill="cornflowerblue"/>/>
<rect width="47" height="38" y="152" x="611" stroke="black" stroke-width="1.6" fill="cornflowerblue"/>/>
<rect width="47" height="38" y="190" x="611" stroke="black" stroke-width="1.6" fill="cornflowerblue"/>/>
<rect width="47" height="38" y="228" x="611" stroke="black" stroke-width="1.6" fill="cornflowerblue"/>/>
<rect width="47" height="38" y="266" x="611" stroke="black" stroke-width="1.6" fill="cornflowerblue"/>/>
<rect width="47" height="38" y="304" x="611" stroke="black" stroke-width="1.6" fill="cornflowerblue"/>/>
<rect width="47" height="38" y="342" x="611" stroke="black" stroke-width="1.6" fill="cornflowerblue"/>/>
<rect width="47" height="38" y="380" x="611" stroke="black" stroke-width="1.6" fill="cornflowerblue"/>/>
<rect width="47" height="38" y="418" x="611" stroke="black" stroke-width="1.6" fill="cornflowerblue"/>/>
<rect width="47" height="38" y="456" x="611" stroke="black" stroke-width="1.6" fill="cornflowerblue"/>/>
<rect width="47" height="38" y="494" x="611" stroke="black" stroke-width="1.6" fill="cornflowerblue"/>/>
<rect width="47" height="38" y="532" x="611" stroke="black" stroke-width="1.6" fill="cornflowerblue"/>/>
<rect width="47" height="38" y="0" x="658" stroke="black" stroke-width="1.6" fill="cornflowerblue"/>/>
<rect width="47" height="38" y="38" x="658" stroke="black" stroke-width="1.6" fill="cornflowerblue"/>/>
<rect width="47" height="38" y="76" x="658" stroke="black" stroke-width="1.6" fill="cornflowerblue"/>/>
<rect width="47" height="38" y="114" x="658" stroke="black" stroke-width="1.6" fill="cornflowerblue"/>/>
<rect width="47" height="38" y="152" x="658" stroke="black" stroke-width="1.6" fill="cornflowerblue"/>/>
<rect width="47" height="38" y="190" x="658" stroke="black" stroke-width="1.6" fill="cornflowerblue"/>/>
<rect width="47" height="38" y="228" x="658" stroke="black" stroke-width="1.6" fill="cornflowerblue"/>/>
<rect width="47" height="38" y="266" x="658" stroke="black" stroke-width="1.6" fill="cornflowerblue"/>/>
<rect width="47" height="38" y="304" x="658" stroke="black" stroke-width="1.6" fill="cornflowerblue"/>/>
<rect width="47" height="38" y="342" x="658" stroke="black" stroke-width="1.6" fill="cornflowerblue"/>/>
<rect width="47" height="38" y="380" x="658" stroke="black" stroke-width="1.6" fill="cornflowerblue"/>/>
<rect width="47" height="38" y="418" x="658" stroke="black" stroke-width="1.6" fill="cornflowerblue"/>/>
<rect width="47" height="38" y="456" x="658" stroke="black" stroke-width="1.6" fill="cornflowerblue"/>/>
<rect width="47" height="38" y="494" x="658" stroke="black" stroke-width="1.6" fill="cornflowerblue"/>/>
<rect width="47" height="38" y="532" x="658" stroke="black" stroke-width="1.6" fill="cornflowerblue"/>/>
<rect width="47" height="38" y="0" x="705" stroke="black" stroke-width="1.6" fill="cornflowerblue"/>/>
<rect width="47" height="38" y="38" x="705" stroke="black" stroke-width="1.6" fill="cornflowerblue"/>/>
<rect width="47" height="38" y="76" x="705" stroke="black" stroke-width="1.6" fill="cornflowerblue"/>/>
<rect width="47" height="38" y="114" x="705" stroke="black" stroke-width="1.6" fill="cornflowerblue"/>/>
<rect width="47" height="38" y="152" x="705" stroke="black" stroke-width="1.6" fill="cornflowerblue"/>/>
<rect width="47" height="38" y="190" x="705" stroke="black" stroke-width="1.6" fill="cornflowerblue"/>/>
<rect width="47" height="38" y="228" x="705" stroke="black" stroke-width="1.6" fill="cornflowerblue"/>/>
<rect width="47" height="38" y="266" x="705" stroke="black" stroke-width="1.6" fill="cornflowerblue"/>/>
<rect width="47" height="38" y="304" x="705" stroke="black" stroke-width="1.6" fill="cornflowerblue"/>/>
<rect width="47" height="38" y="342" x="705" stroke="black" stroke-width="1.6" fill="cornflowerblue"/>/>
<rect width="47" height="38" y="380" x="705" stroke="black" stroke-width="1.6" fill="cornflowerblue"/>/>
<rect width="47" height="38" y="418" x="705" stroke="black" stroke-width="1.6" fill="cornflowerblue"/>/>
<rect width="47" height="38" y="456" x="705" stroke="black" stroke-width="1.6" fill="cornflowerblue"/>/>
<rect width="47" height="38" y="494" x="705" stroke="black" stroke-width="1.6" fill="cornflowerblue"/>/>
<rect width="47" height="38" y="532" x="705" stroke="black" stroke-width="1.6" fill="cornflowerblue"/>/>
<rect width="47" height="38" y="0" x="752" stroke="black" stroke-width="1.6" fill="cornflowerblue"/>/>
<rect width="47" height="38" y="38" x="752" stroke="black" stroke-width="1.6" fill="cornflowerblue"/>/>
<rect width="47" height="38" y="76" x="752" stroke="black" stroke-width="1.6" fill="cornflowerblue"/>/>
<rect width="47" height="38" y="114" x="752" stroke="black" stroke-width="1.6" fill="cornflowerblue"/>/>
<rect width="47" height="38" y="152" x="752" stroke="black" stroke-width="1.6" fill="cornflowerblue"/>/>
<rect width="47" height="38" y="190" x="752" stroke="black" stroke-width="1.6" fill="cornflowerblue"/>/>
<rect width="47" height="38" y="228" x="752" stroke="black" stroke-width="1.6" fill="cornflowerblue"/>/>
<rect width="47" height="38" y="266" x="752" stroke="black" stroke-width="1.6" fill="cornflowerblue"/>/>
<rect width="47" height="38" y="304" x="752" stroke="black" stroke-width="1.6" fill="cornflowerblue"/>/>
<rect width="47" height="38" y="342" x="752" stroke="black" stroke-width="1.6" fill="cornflowerblue"/>/>
<rect width="47" height="38" y="380" x="752" stroke="black" stroke-width="1.6" fill="cornflowerblue"/>/>
<rect width="47" height="38" y="418" x="752" stroke="black" stroke-width="1.6" fill="cornflowerblue"/>/>
<rect width="47" height="38" y="456" x="752" stroke="black" stroke-width="1.6" fill="cornflowerblue"/>/>
<rect width="47" height="38" y="494" x="752" stroke="black" stroke-width="1.6" fill="cornflowerblue"/>/>
<rect width="47" height="38" y="532" x="752" stroke="black" stroke-width="1.6" fill="cornflowerblue"/>/>
 </svg>