<svg version="1.1"
baseProfile="full"
width="1100" height="1100" xmlns="http://www.w3.org/2000/svg">
<circle cx="500" cy="500" r="500" stroke="black" stroke-width="1.6" fill="white"/>
<rect width="47" height="38" y="944" x="368.804" stroke="black" stroke-width="1.6" fill="cornflowerblue"/>/>
<rect width="47" height="38" y="944" x="415.804" stroke="black" stroke-width="1.6" fill="cornflowerblue"/>/>
<rect width="47" height="38" y="944" x="462.804" stroke="black" stroke-width="1.6" fill="cornflowerblue"/>/>
<rect width="47" height="38" y="944" x="509.804" stroke="black" stroke-width="1.6" fill="cornflowerblue"/>/>
<rect width="47" height="38" y="944" x="556.804" stroke="black" stroke-width="1.6" fill="cornflowerblue"/>/>
<rect width="47" height="38" y="893.7" x="249.171" stroke="black" stroke-width="1.6" fill="cornflowerblue"/>/>
<rect width="47" height="38" y="893.7" x="296.171" stroke="black" stroke-width="1.6" fill="cornflowerblue"/>/>
<rect width="47" height="38" y="893.7" x="343.171" stroke="black" stroke-width="1.6" fill="cornflowerblue"/>/>
<rect width="47" height="38" y="893.7" x="390.171" stroke="black" stroke-width="1.6" fill="cornflowerblue"/>/>
<rect width="47" height="38" y="893.7" x="437.171" stroke="black" stroke-width="1.6" fill="cornflowerblue"/>/>
<rect width="47" height="38" y="893.7" x="484.171" stroke="black" stroke-width="1.6" fill="cornflowerblue"/>/>
<rect width="47" height="38" y="893.7" x="531.171" stroke="black" stroke-width="1.6" fill="cornflowerblue"/>/>
<rect width="47" height="38" y="893.7" x="578.171" stroke="black" stroke-width="1.6" fill="cornflowerblue"/>/>
<rect width="47" height="38" y="893.7" x="625.171" stroke="black" stroke-width="1.6" fill="cornflowerblue"/>/>
<rect width="47" height="38" y="893.7" x="672.171" stroke="black" stroke-width="1.6" fill="cornflowerblue"/>/>
<rect width="47" height="38" y="846.1" x="180.606" stroke="black" stroke-width="1.6" fill="cornflowerblue"/>/>
<rect width="47" height="38" y="846.1" x="227.606" stroke="black" stroke-width="1.6" fill="cornflowerblue"/>/>
<rect width="47" height="38" y="846.1" x="274.606" stroke="black" stroke-width="1.6" fill="cornflowerblue"/>/>
<rect width="47" height="38" y="846.1" x="321.606" stroke="black" stroke-width="1.6" fill="cornflowerblue"/>/>
<rect width="47" height="38" y="846.1" x="368.606" stroke="black" stroke-width="1.6" fill="cornflowerblue"/>/>
<rect width="47" height="38" y="846.1" x="415.606" stroke="black" stroke-width="1.6" fill="cornflowerblue"/>/>
<rect width="47" height="38" y="846.1" x="462.606" stroke="black" stroke-width="1.6" fill="cornflowerblue"/>/>
<rect width="47" height="38" y="846.1" x="509.606" stroke="black" stroke-width="1.6" fill="cornflowerblue"/>/>
<rect width="47" height="38" y="846.1" x="556.606" stroke="black" stroke-width="1.6" fill="cornflowerblue"/>/>
<rect width="47" height="38" y="846.1" x="603.606" stroke="black" stroke-width="1.6" fill="cornflowerblue"/>/>
<rect width="47" height="38" y="846.1" x="650.606" stroke="black" stroke-width="1.6" fill="cornflowerblue"/>/>
<rect width="47" height="38" y="846.1" x="697.606" stroke="black" stroke-width="1.6" fill="cornflowerblue"/>/>
<rect width="47" height="38" y="846.1" x="744.606" stroke="black" stroke-width="1.6" fill="cornflowerblue"/>/>
<rect width="47" height="38" y="800.3" x="132.205" stroke="black" stroke-width="1.6" fill="cornflowerblue"/>/>
<rect width="47" height="38" y="800.3" x="179.205" stroke="black" stroke-width="1.6" fill="cornflowerblue"/>/>
<rect width="47" height="38" y="800.3" x="226.205" stroke="black" stroke-width="1.6" fill="cornflowerblue"/>/>
<rect width="47" height="38" y="800.3" x="273.205" stroke="black" stroke-width="1.6" fill="cornflowerblue"/>/>
<rect width="47" height="38" y="800.3" x="320.205" stroke="black" stroke-width="1.6" fill="cornflowerblue"/>/>
<rect width="47" height="38" y="800.3" x="367.205" stroke="black" stroke-width="1.6" fill="cornflowerblue"/>/>
<rect width="47" height="38" y="800.3" x="414.205" stroke="black" stroke-width="1.6" fill="cornflowerblue"/>/>
<rect width="47" height="38" y="800.3" x="461.205" stroke="black" stroke-width="1.6" fill="cornflowerblue"/>/>
<rect width="47" height="38" y="800.3" x="508.205" stroke="black" stroke-width="1.6" fill="cornflowerblue"/>/>
<rect width="47" height="38" y="800.3" x="555.205" stroke="black" stroke-width="1.6" fill="cornflowerblue"/>/>
<rect width="47" height="38" y="800.3" x="602.205" stroke="black" stroke-width="1.6" fill="cornflowerblue"/>/>
<rect width="47" height="38" y="800.3" x="649.205" stroke="black" stroke-width="1.6" fill="cornflowerblue"/>/>
<rect width="47" height="38" y="800.3" x="696.205" stroke="black" stroke-width="1.6" fill="cornflowerblue"/>/>
<rect width="47" height="38" y="800.3" x="743.205" stroke="black" stroke-width="1.6" fill="cornflowerblue"/>/>
<rect width="47" height="38" y="800.3" x="790.205" stroke="black" stroke-width="1.6" fill="cornflowerblue"/>/>
<rect width="47" height="38" y="755.7" x="96.3256" stroke="black" stroke-width="1.6" fill="cornflowerblue"/>/>
<rect width="47" height="38" y="755.7" x="143.326" stroke="black" stroke-width="1.6" fill="cornflowerblue"/>/>
<rect width="47" height="38" y="755.7" x="190.326" stroke="black" stroke-width="1.6" fill="cornflowerblue"/>/>
<rect width="47" height="38" y="755.7" x="237.326" stroke="black" stroke-width="1.6" fill="cornflowerblue"/>/>
<rect width="47" height="38" y="755.7" x="284.326" stroke="black" stroke-width="1.6" fill="cornflowerblue"/>/>
<rect width="47" height="38" y="755.7" x="331.326" stroke="black" stroke-width="1.6" fill="cornflowerblue"/>/>
<rect width="47" height="38" y="755.7" x="378.326" stroke="black" stroke-width="1.6" fill="cornflowerblue"/>/>
<rect width="47" height="38" y="755.7" x="425.326" stroke="black" stroke-width="1.6" fill="cornflowerblue"/>/>
<rect width="47" height="38" y="755.7" x="472.326" stroke="black" stroke-width="1.6" fill="cornflowerblue"/>/>
<rect width="47" height="38" y="755.7" x="519.326" stroke="black" stroke-width="1.6" fill="cornflowerblue"/>/>
<rect width="47" height="38" y="755.7" x="566.326" stroke="black" stroke-width="1.6" fill="cornflowerblue"/>/>
<rect width="47" height="38" y="755.7" x="613.326" stroke="black" stroke-width="1.6" fill="cornflowerblue"/>/>
<rect width="47" height="38" y="755.7" x="660.326" stroke="black" stroke-width="1.6" fill="cornflowerblue"/>/>
<rect width="47" height="38" y="755.7" x="707.326" stroke="black" stroke-width="1.6" fill="cornflowerblue"/>/>
<rect width="47" height="38" y="755.7" x="754.326" stroke="black" stroke-width="1.6" fill="cornflowerblue"/>/>
<rect width="47" height="38" y="755.7" x="801.326" stroke="black" stroke-width="1.6" fill="cornflowerblue"/>/>
<rect width="47" height="38" y="755.7" x="848.326" stroke="black" stroke-width="1.6" fill="cornflowerblue"/>/>
<rect width="47" height="38" y="712.3" x="67.8814" stroke="black" stroke-width="1.6" fill="cornflowerblue"/>/>
<rect width="47" height="38" y="712.3" x="114.881" stroke="black" stroke-width="1.6" fill="cornflowerblue"/>/>
<rect width="47" height="38" y="712.3" x="161.881" stroke="black" stroke-width="1.6" fill="cornflowerblue"/>/>
<rect width="47" height="38" y="712.3" x="208.881" stroke="black" stroke-width="1.6" fill="cornflowerblue"/>/>
<rect width="47" height="38" y="712.3" x="255.881" stroke="black" stroke-width="1.6" fill="cornflowerblue"/>/>
<rect width="47" height="38" y="712.3" x="302.881" stroke="black" stroke-width="1.6" fill="cornflowerblue"/>/>
<rect width="47" height="38" y="712.3" x="349.881" stroke="black" stroke-width="1.6" fill="cornflowerblue"/>/>
<rect width="47" height="38" y="712.3" x="396.881" stroke="black" stroke-width="1.6" fill="cornflowerblue"/>/>
<rect width="47" height="38" y="712.3" x="443.881" stroke="black" stroke-width="1.6" fill="cornflowerblue"/>/>
<rect width="47" height="38" y="712.3" x="490.881" stroke="black" stroke-width="1.6" fill="cornflowerblue"/>/>
<rect width="47" height="38" y="712.3" x="537.881" stroke="black" stroke-width="1.6" fill="cornflowerblue"/>/>
<rect width="47" height="38" y="712.3" x="584.881" stroke="black" stroke-width="1.6" fill="cornflowerblue"/>/>
<rect width="47" height="38" y="712.3" x="631.881" stroke="black" stroke-width="1.6" fill="cornflowerblue"/>/>
<rect width="47" height="38" y="712.3" x="678.881" stroke="black" stroke-width="1.6" fill="cornflowerblue"/>/>
<rect width="47" height="38" y="712.3" x="725.881" stroke="black" stroke-width="1.6" fill="cornflowerblue"/>/>
<rect width="47" height="38" y="712.3" x="772.881" stroke="black" stroke-width="1.6" fill="cornflowerblue"/>/>
<rect width="47" height="38" y="712.3" x="819.881" stroke="black" stroke-width="1.6" fill="cornflowerblue"/>/>
<rect width="47" height="38" y="712.3" x="866.881" stroke="black" stroke-width="1.6" fill="cornflowerblue"/>/>
<rect width="47" height="38" y="670.1" x="45.3642" stroke="black" stroke-width="1.6" fill="cornflowerblue"/>/>
<rect width="47" height="38" y="670.1" x="92.3642" stroke="black" stroke-width="1.6" fill="cornflowerblue"/>/>
<rect width="47" height="38" y="670.1" x="139.364" stroke="black" stroke-width="1.6" fill="cornflowerblue"/>/>
<rect width="47" height="38" y="670.1" x="186.364" stroke="black" stroke-width="1.6" fill="cornflowerblue"/>/>
<rect width="47" height="38" y="670.1" x="233.364" stroke="black" stroke-width="1.6" fill="cornflowerblue"/>/>
<rect width="47" height="38" y="670.1" x="280.364" stroke="black" stroke-width="1.6" fill="cornflowerblue"/>/>
<rect width="47" height="38" y="670.1" x="327.364" stroke="black" stroke-width="1.6" fill="cornflowerblue"/>/>
<rect width="47" height="38" y="670.1" x="374.364" stroke="black" stroke-width="1.6" fill="cornflowerblue"/>/>
<rect width="47" height="38" y="670.1" x="421.364" stroke="black" stroke-width="1.6" fill="cornflowerblue"/>/>
<rect width="47" height="38" y="670.1" x="468.364" stroke="black" stroke-width="1.6" fill="cornflowerblue"/>/>
<rect width="47" height="38" y="670.1" x="515.364" stroke="black" stroke-width="1.6" fill="cornflowerblue"/>/>
<rect width="47" height="38" y="670.1" x="562.364" stroke="black" stroke-width="1.6" fill="cornflowerblue"/>/>
<rect width="47" height="38" y="670.1" x="609.364" stroke="black" stroke-width="1.6" fill="cornflowerblue"/>/>
<rect width="47" height="38" y="670.1" x="656.364" stroke="black" stroke-width="1.6" fill="cornflowerblue"/>/>
<rect width="47" height="38" y="670.1" x="703.364" stroke="black" stroke-width="1.6" fill="cornflowerblue"/>/>
<rect width="47" height="38" y="670.1" x="750.364" stroke="black" stroke-width="1.6" fill="cornflowerblue"/>/>
<rect width="47" height="38" y="670.1" x="797.364" stroke="black" stroke-width="1.6" fill="cornflowerblue"/>/>
<rect width="47" height="38" y="670.1" x="844.364" stroke="black" stroke-width="1.6" fill="cornflowerblue"/>/>
<rect width="47" height="38" y="670.1" x="891.364" stroke="black" stroke-width="1.6" fill="cornflowerblue"/>/>
<rect width="47" height="38" y="628.8" x="28.766" stroke="black" stroke-width="1.6" fill="cornflowerblue"/>/>
<rect width="47" height="38" y="628.8" x="75.766" stroke="black" stroke-width="1.6" fill="cornflowerblue"/>/>
<rect width="47" height="38" y="628.8" x="122.766" stroke="black" stroke-width="1.6" fill="cornflowerblue"/>/>
<rect width="47" height="38" y="628.8" x="169.766" stroke="black" stroke-width="1.6" fill="cornflowerblue"/>/>
<rect width="47" height="38" y="628.8" x="216.766" stroke="black" stroke-width="1.6" fill="cornflowerblue"/>/>
<rect width="47" height="38" y="628.8" x="263.766" stroke="black" stroke-width="1.6" fill="cornflowerblue"/>/>
<rect width="47" height="38" y="628.8" x="310.766" stroke="black" stroke-width="1.6" fill="cornflowerblue"/>/>
<rect width="47" height="38" y="628.8" x="357.766" stroke="black" stroke-width="1.6" fill="cornflowerblue"/>/>
<rect width="47" height="38" y="628.8" x="404.766" stroke="black" stroke-width="1.6" fill="cornflowerblue"/>/>
<rect width="47" height="38" y="628.8" x="451.766" stroke="black" stroke-width="1.6" fill="cornflowerblue"/>/>
<rect width="47" height="38" y="628.8" x="498.766" stroke="black" stroke-width="1.6" fill="cornflowerblue"/>/>
<rect width="47" height="38" y="628.8" x="545.766" stroke="black" stroke-width="1.6" fill="cornflowerblue"/>/>
<rect width="47" height="38" y="628.8" x="592.766" stroke="black" stroke-width="1.6" fill="cornflowerblue"/>/>
<rect width="47" height="38" y="628.8" x="639.766" stroke="black" stroke-width="1.6" fill="cornflowerblue"/>/>
<rect width="47" height="38" y="628.8" x="686.766" stroke="black" stroke-width="1.6" fill="cornflowerblue"/>/>
<rect width="47" height="38" y="628.8" x="733.766" stroke="black" stroke-width="1.6" fill="cornflowerblue"/>/>
<rect width="47" height="38" y="628.8" x="780.766" stroke="black" stroke-width="1.6" fill="cornflowerblue"/>/>
<rect width="47" height="38" y="628.8" x="827.766" stroke="black" stroke-width="1.6" fill="cornflowerblue"/>/>
<rect width="47" height="38" y="628.8" x="874.766" stroke="black" stroke-width="1.6" fill="cornflowerblue"/>/>
<rect width="47" height="38" y="628.8" x="921.766" stroke="black" stroke-width="1.6" fill="cornflowerblue"/>/>
<rect width="47" height="38" y="588.4" x="16.3138" stroke="black" stroke-width="1.6" fill="cornflowerblue"/>/>
<rect width="47" height="38" y="588.4" x="63.3138" stroke="black" stroke-width="1.6" fill="cornflowerblue"/>/>
<rect width="47" height="38" y="588.4" x="110.314" stroke="black" stroke-width="1.6" fill="cornflowerblue"/>/>
<rect width="47" height="38" y="588.4" x="157.314" stroke="black" stroke-width="1.6" fill="cornflowerblue"/>/>
<rect width="47" height="38" y="588.4" x="204.314" stroke="black" stroke-width="1.6" fill="cornflowerblue"/>/>
<rect width="47" height="38" y="588.4" x="251.314" stroke="black" stroke-width="1.6" fill="cornflowerblue"/>/>
<rect width="47" height="38" y="588.4" x="298.314" stroke="black" stroke-width="1.6" fill="cornflowerblue"/>/>
<rect width="47" height="38" y="588.4" x="345.314" stroke="black" stroke-width="1.6" fill="cornflowerblue"/>/>
<rect width="47" height="38" y="588.4" x="392.314" stroke="black" stroke-width="1.6" fill="cornflowerblue"/>/>
<rect width="47" height="38" y="588.4" x="439.314" stroke="black" stroke-width="1.6" fill="cornflowerblue"/>/>
<rect width="47" height="38" y="588.4" x="486.314" stroke="black" stroke-width="1.6" fill="cornflowerblue"/>/>
<rect width="47" height="38" y="588.4" x="533.314" stroke="black" stroke-width="1.6" fill="cornflowerblue"/>/>
<rect width="47" height="38" y="588.4" x="580.314" stroke="black" stroke-width="1.6" fill="cornflowerblue"/>/>
<rect width="47" height="38" y="588.4" x="627.314" stroke="black" stroke-width="1.6" fill="cornflowerblue"/>/>
<rect width="47" height="38" y="588.4" x="674.314" stroke="black" stroke-width="1.6" fill="cornflowerblue"/>/>
<rect width="47" height="38" y="588.4" x="721.314" stroke="black" stroke-width="1.6" fill="cornflowerblue"/>/>
<rect width="47" height="38" y="588.4" x="768.314" stroke="black" stroke-width="1.6" fill="cornflowerblue"/>/>
<rect width="47" height="38" y="588.4" x="815.314" stroke="black" stroke-width="1.6" fill="cornflowerblue"/>/>
<rect width="47" height="38" y="588.4" x="862.314" stroke="black" stroke-width="1.6" fill="cornflowerblue"/>/>
<rect width="47" height="38" y="588.4" x="909.314" stroke="black" stroke-width="1.6" fill="cornflowerblue"/>/>
<rect width="47" height="38" y="548.6" x="8.54665" stroke="black" stroke-width="1.6" fill="cornflowerblue"/>/>
<rect width="47" height="38" y="548.6" x="55.5466" stroke="black" stroke-width="1.6" fill="cornflowerblue"/>/>
<rect width="47" height="38" y="548.6" x="102.547" stroke="black" stroke-width="1.6" fill="cornflowerblue"/>/>
<rect width="47" height="38" y="548.6" x="149.547" stroke="black" stroke-width="1.6" fill="cornflowerblue"/>/>
<rect width="47" height="38" y="548.6" x="196.547" stroke="black" stroke-width="1.6" fill="cornflowerblue"/>/>
<rect width="47" height="38" y="548.6" x="243.547" stroke="black" stroke-width="1.6" fill="cornflowerblue"/>/>
<rect width="47" height="38" y="548.6" x="290.547" stroke="black" stroke-width="1.6" fill="cornflowerblue"/>/>
<rect width="47" height="38" y="548.6" x="337.547" stroke="black" stroke-width="1.6" fill="cornflowerblue"/>/>
<rect width="47" height="38" y="548.6" x="384.547" stroke="black" stroke-width="1.6" fill="cornflowerblue"/>/>
<rect width="47" height="38" y="548.6" x="431.547" stroke="black" stroke-width="1.6" fill="cornflowerblue"/>/>
<rect width="47" height="38" y="548.6" x="478.547" stroke="black" stroke-width="1.6" fill="cornflowerblue"/>/>
<rect width="47" height="38" y="548.6" x="525.547" stroke="black" stroke-width="1.6" fill="cornflowerblue"/>/>
<rect width="47" height="38" y="548.6" x="572.547" stroke="black" stroke-width="1.6" fill="cornflowerblue"/>/>
<rect width="47" height="38" y="548.6" x="619.547" stroke="black" stroke-width="1.6" fill="cornflowerblue"/>/>
<rect width="47" height="38" y="548.6" x="666.547" stroke="black" stroke-width="1.6" fill="cornflowerblue"/>/>
<rect width="47" height="38" y="548.6" x="713.547" stroke="black" stroke-width="1.6" fill="cornflowerblue"/>/>
<rect width="47" height="38" y="548.6" x="760.547" stroke="black" stroke-width="1.6" fill="cornflowerblue"/>/>
<rect width="47" height="38" y="548.6" x="807.547" stroke="black" stroke-width="1.6" fill="cornflowerblue"/>/>
<rect width="47" height="38" y="548.6" x="854.547" stroke="black" stroke-width="1.6" fill="cornflowerblue"/>/>
<rect width="47" height="38" y="548.6" x="901.547" stroke="black" stroke-width="1.6" fill="cornflowerblue"/>/>
<rect width="47" height="38" y="509.7" x="3.11237" stroke="black" stroke-width="1.6" fill="cornflowerblue"/>/>
<rect width="47" height="38" y="509.7" x="50.1124" stroke="black" stroke-width="1.6" fill="cornflowerblue"/>/>
<rect width="47" height="38" y="509.7" x="97.1124" stroke="black" stroke-width="1.6" fill="cornflowerblue"/>/>
<rect width="47" height="38" y="509.7" x="144.112" stroke="black" stroke-width="1.6" fill="cornflowerblue"/>/>
<rect width="47" height="38" y="509.7" x="191.112" stroke="black" stroke-width="1.6" fill="cornflowerblue"/>/>
<rect width="47" height="38" y="509.7" x="238.112" stroke="black" stroke-width="1.6" fill="cornflowerblue"/>/>
<rect width="47" height="38" y="509.7" x="285.112" stroke="black" stroke-width="1.6" fill="cornflowerblue"/>/>
<rect width="47" height="38" y="509.7" x="332.112" stroke="black" stroke-width="1.6" fill="cornflowerblue"/>/>
<rect width="47" height="38" y="509.7" x="379.112" stroke="black" stroke-width="1.6" fill="cornflowerblue"/>/>
<rect width="47" height="38" y="509.7" x="426.112" stroke="black" stroke-width="1.6" fill="cornflowerblue"/>/>
<rect width="47" height="38" y="509.7" x="473.112" stroke="black" stroke-width="1.6" fill="cornflowerblue"/>/>
<rect width="47" height="38" y="509.7" x="520.112" stroke="black" stroke-width="1.6" fill="cornflowerblue"/>/>
<rect width="47" height="38" y="509.7" x="567.112" stroke="black" stroke-width="1.6" fill="cornflowerblue"/>/>
<rect width="47" height="38" y="509.7" x="614.112" stroke="black" stroke-width="1.6" fill="cornflowerblue"/>/>
<rect width="47" height="38" y="509.7" x="661.112" stroke="black" stroke-width="1.6" fill="cornflowerblue"/>/>
<rect width="47" height="38" y="509.7" x="708.112" stroke="black" stroke-width="1.6" fill="cornflowerblue"/>/>
<rect width="47" height="38" y="509.7" x="755.112" stroke="black" stroke-width="1.6" fill="cornflowerblue"/>/>
<rect width="47" height="38" y="509.7" x="802.112" stroke="black" stroke-width="1.6" fill="cornflowerblue"/>/>
<rect width="47" height="38" y="509.7" x="849.112" stroke="black" stroke-width="1.6" fill="cornflowerblue"/>/>
<rect width="47" height="38" y="509.7" x="896.112" stroke="black" stroke-width="1.6" fill="cornflowerblue"/>/>
<rect width="47" height="38" y="509.7" x="943.112" stroke="black" stroke-width="1.6" fill="cornflowerblue"/>/>
<rect width="47" height="38" y="471.7" x="0.801532" stroke="black" stroke-width="1.6" fill="cornflowerblue"/>/>
<rect width="47" height="38" y="471.7" x="47.8015" stroke="black" stroke-width="1.6" fill="cornflowerblue"/>/>
<rect width="47" height="38" y="471.7" x="94.8015" stroke="black" stroke-width="1.6" fill="cornflowerblue"/>/>
<rect width="47" height="38" y="471.7" x="141.802" stroke="black" stroke-width="1.6" fill="cornflowerblue"/>/>
<rect width="47" height="38" y="471.7" x="188.802" stroke="black" stroke-width="1.6" fill="cornflowerblue"/>/>
<rect width="47" height="38" y="471.7" x="235.802" stroke="black" stroke-width="1.6" fill="cornflowerblue"/>/>
<rect width="47" height="38" y="471.7" x="282.802" stroke="black" stroke-width="1.6" fill="cornflowerblue"/>/>
<rect width="47" height="38" y="471.7" x="329.802" stroke="black" stroke-width="1.6" fill="cornflowerblue"/>/>
<rect width="47" height="38" y="471.7" x="376.802" stroke="black" stroke-width="1.6" fill="cornflowerblue"/>/>
<rect width="47" height="38" y="471.7" x="423.802" stroke="black" stroke-width="1.6" fill="cornflowerblue"/>/>
<rect width="47" height="38" y="471.7" x="470.802" stroke="black" stroke-width="1.6" fill="cornflowerblue"/>/>
<rect width="47" height="38" y="471.7" x="517.802" stroke="black" stroke-width="1.6" fill="cornflowerblue"/>/>
<rect width="47" height="38" y="471.7" x="564.802" stroke="black" stroke-width="1.6" fill="cornflowerblue"/>/>
<rect width="47" height="38" y="471.7" x="611.802" stroke="black" stroke-width="1.6" fill="cornflowerblue"/>/>
<rect width="47" height="38" y="471.7" x="658.802" stroke="black" stroke-width="1.6" fill="cornflowerblue"/>/>
<rect width="47" height="38" y="471.7" x="705.802" stroke="black" stroke-width="1.6" fill="cornflowerblue"/>/>
<rect width="47" height="38" y="471.7" x="752.802" stroke="black" stroke-width="1.6" fill="cornflowerblue"/>/>
<rect width="47" height="38" y="471.7" x="799.802" stroke="black" stroke-width="1.6" fill="cornflowerblue"/>/>
<rect width="47" height="38" y="471.7" x="846.802" stroke="black" stroke-width="1.6" fill="cornflowerblue"/>/>
<rect width="47" height="38" y="471.7" x="893.802" stroke="black" stroke-width="1.6" fill="cornflowerblue"/>/>
<rect width="47" height="38" y="471.7" x="940.802" stroke="black" stroke-width="1.6" fill="cornflowerblue"/>/>
<rect width="47" height="38" y="433.7" x="4.41518" stroke="black" stroke-width="1.6" fill="cornflowerblue"/>/>
<rect width="47" height="38" y="433.7" x="51.4152" stroke="black" stroke-width="1.6" fill="cornflowerblue"/>/>
<rect width="47" height="38" y="433.7" x="98.4152" stroke="black" stroke-width="1.6" fill="cornflowerblue"/>/>
<rect width="47" height="38" y="433.7" x="145.415" stroke="black" stroke-width="1.6" fill="cornflowerblue"/>/>
<rect width="47" height="38" y="433.7" x="192.415" stroke="black" stroke-width="1.6" fill="cornflowerblue"/>/>
<rect width="47" height="38" y="433.7" x="239.415" stroke="black" stroke-width="1.6" fill="cornflowerblue"/>/>
<rect width="47" height="38" y="433.7" x="286.415" stroke="black" stroke-width="1.6" fill="cornflowerblue"/>/>
<rect width="47" height="38" y="433.7" x="333.415" stroke="black" stroke-width="1.6" fill="cornflowerblue"/>/>
<rect width="47" height="38" y="433.7" x="380.415" stroke="black" stroke-width="1.6" fill="cornflowerblue"/>/>
<rect width="47" height="38" y="433.7" x="427.415" stroke="black" stroke-width="1.6" fill="cornflowerblue"/>/>
<rect width="47" height="38" y="433.7" x="474.415" stroke="black" stroke-width="1.6" fill="cornflowerblue"/>/>
<rect width="47" height="38" y="433.7" x="521.415" stroke="black" stroke-width="1.6" fill="cornflowerblue"/>/>
<rect width="47" height="38" y="433.7" x="568.415" stroke="black" stroke-width="1.6" fill="cornflowerblue"/>/>
<rect width="47" height="38" y="433.7" x="615.415" stroke="black" stroke-width="1.6" fill="cornflowerblue"/>/>
<rect width="47" height="38" y="433.7" x="662.415" stroke="black" stroke-width="1.6" fill="cornflowerblue"/>/>
<rect width="47" height="38" y="433.7" x="709.415" stroke="black" stroke-width="1.6" fill="cornflowerblue"/>/>
<rect width="47" height="38" y="433.7" x="756.415" stroke="black" stroke-width="1.6" fill="cornflowerblue"/>/>
<rect width="47" height="38" y="433.7" x="803.415" stroke="black" stroke-width="1.6" fill="cornflowerblue"/>/>
<rect width="47" height="38" y="433.7" x="850.415" stroke="black" stroke-width="1.6" fill="cornflowerblue"/>/>
<rect width="47" height="38" y="433.7" x="897.415" stroke="black" stroke-width="1.6" fill="cornflowerblue"/>/>
<rect width="47" height="38" y="433.7" x="944.415" stroke="black" stroke-width="1.6" fill="cornflowerblue"/>/>
<rect width="47" height="38" y="395.7" x="10.9995" stroke="black" stroke-width="1.6" fill="cornflowerblue"/>/>
<rect width="47" height="38" y="395.7" x="57.9995" stroke="black" stroke-width="1.6" fill="cornflowerblue"/>/>
<rect width="47" height="38" y="395.7" x="104.999" stroke="black" stroke-width="1.6" fill="cornflowerblue"/>/>
<rect width="47" height="38" y="395.7" x="151.999" stroke="black" stroke-width="1.6" fill="cornflowerblue"/>/>
<rect width="47" height="38" y="395.7" x="198.999" stroke="black" stroke-width="1.6" fill="cornflowerblue"/>/>
<rect width="47" height="38" y="395.7" x="245.999" stroke="black" stroke-width="1.6" fill="cornflowerblue"/>/>
<rect width="47" height="38" y="395.7" x="292.999" stroke="black" stroke-width="1.6" fill="cornflowerblue"/>/>
<rect width="47" height="38" y="395.7" x="339.999" stroke="black" stroke-width="1.6" fill="cornflowerblue"/>/>
<rect width="47" height="38" y="395.7" x="386.999" stroke="black" stroke-width="1.6" fill="cornflowerblue"/>/>
<rect width="47" height="38" y="395.7" x="433.999" stroke="black" stroke-width="1.6" fill="cornflowerblue"/>/>
<rect width="47" height="38" y="395.7" x="480.999" stroke="black" stroke-width="1.6" fill="cornflowerblue"/>/>
<rect width="47" height="38" y="395.7" x="527.999" stroke="black" stroke-width="1.6" fill="cornflowerblue"/>/>
<rect width="47" height="38" y="395.7" x="574.999" stroke="black" stroke-width="1.6" fill="cornflowerblue"/>/>
<rect width="47" height="38" y="395.7" x="621.999" stroke="black" stroke-width="1.6" fill="cornflowerblue"/>/>
<rect width="47" height="38" y="395.7" x="668.999" stroke="black" stroke-width="1.6" fill="cornflowerblue"/>/>
<rect width="47" height="38" y="395.7" x="715.999" stroke="black" stroke-width="1.6" fill="cornflowerblue"/>/>
<rect width="47" height="38" y="395.7" x="762.999" stroke="black" stroke-width="1.6" fill="cornflowerblue"/>/>
<rect width="47" height="38" y="395.7" x="809.999" stroke="black" stroke-width="1.6" fill="cornflowerblue"/>/>
<rect width="47" height="38" y="395.7" x="856.999" stroke="black" stroke-width="1.6" fill="cornflowerblue"/>/>
<rect width="47" height="38" y="395.7" x="903.999" stroke="black" stroke-width="1.6" fill="cornflowerblue"/>/>
<rect width="47" height="38" y="357.7" x="20.6768" stroke="black" stroke-width="1.6" fill="cornflowerblue"/>/>
<rect width="47" height="38" y="357.7" x="67.6768" stroke="black" stroke-width="1.6" fill="cornflowerblue"/>/>
<rect width="47" height="38" y="357.7" x="114.677" stroke="black" stroke-width="1.6" fill="cornflowerblue"/>/>
<rect width="47" height="38" y="357.7" x="161.677" stroke="black" stroke-width="1.6" fill="cornflowerblue"/>/>
<rect width="47" height="38" y="357.7" x="208.677" stroke="black" stroke-width="1.6" fill="cornflowerblue"/>/>
<rect width="47" height="38" y="357.7" x="255.677" stroke="black" stroke-width="1.6" fill="cornflowerblue"/>/>
<rect width="47" height="38" y="357.7" x="302.677" stroke="black" stroke-width="1.6" fill="cornflowerblue"/>/>
<rect width="47" height="38" y="357.7" x="349.677" stroke="black" stroke-width="1.6" fill="cornflowerblue"/>/>
<rect width="47" height="38" y="357.7" x="396.677" stroke="black" stroke-width="1.6" fill="cornflowerblue"/>/>
<rect width="47" height="38" y="357.7" x="443.677" stroke="black" stroke-width="1.6" fill="cornflowerblue"/>/>
<rect width="47" height="38" y="357.7" x="490.677" stroke="black" stroke-width="1.6" fill="cornflowerblue"/>/>
<rect width="47" height="38" y="357.7" x="537.677" stroke="black" stroke-width="1.6" fill="cornflowerblue"/>/>
<rect width="47" height="38" y="357.7" x="584.677" stroke="black" stroke-width="1.6" fill="cornflowerblue"/>/>
<rect width="47" height="38" y="357.7" x="631.677" stroke="black" stroke-width="1.6" fill="cornflowerblue"/>/>
<rect width="47" height="38" y="357.7" x="678.677" stroke="black" stroke-width="1.6" fill="cornflowerblue"/>/>
<rect width="47" height="38" y="357.7" x="725.677" stroke="black" stroke-width="1.6" fill="cornflowerblue"/>/>
<rect width="47" height="38" y="357.7" x="772.677" stroke="black" stroke-width="1.6" fill="cornflowerblue"/>/>
<rect width="47" height="38" y="357.7" x="819.677" stroke="black" stroke-width="1.6" fill="cornflowerblue"/>/>
<rect width="47" height="38" y="357.7" x="866.677" stroke="black" stroke-width="1.6" fill="cornflowerblue"/>/>
<rect width="47" height="38" y="357.7" x="913.677" stroke="black" stroke-width="1.6" fill="cornflowerblue"/>/>
<rect width="47" height="38" y="319.7" x="33.6397" stroke="black" stroke-width="1.6" fill="cornflowerblue"/>/>
<rect width="47" height="38" y="319.7" x="80.6397" stroke="black" stroke-width="1.6" fill="cornflowerblue"/>/>
<rect width="47" height="38" y="319.7" x="127.64" stroke="black" stroke-width="1.6" fill="cornflowerblue"/>/>
<rect width="47" height="38" y="319.7" x="174.64" stroke="black" stroke-width="1.6" fill="cornflowerblue"/>/>
<rect width="47" height="38" y="319.7" x="221.64" stroke="black" stroke-width="1.6" fill="cornflowerblue"/>/>
<rect width="47" height="38" y="319.7" x="268.64" stroke="black" stroke-width="1.6" fill="cornflowerblue"/>/>
<rect width="47" height="38" y="319.7" x="315.64" stroke="black" stroke-width="1.6" fill="cornflowerblue"/>/>
<rect width="47" height="38" y="319.7" x="362.64" stroke="black" stroke-width="1.6" fill="cornflowerblue"/>/>
<rect width="47" height="38" y="319.7" x="409.64" stroke="black" stroke-width="1.6" fill="cornflowerblue"/>/>
<rect width="47" height="38" y="319.7" x="456.64" stroke="black" stroke-width="1.6" fill="cornflowerblue"/>/>
<rect width="47" height="38" y="319.7" x="503.64" stroke="black" stroke-width="1.6" fill="cornflowerblue"/>/>
<rect width="47" height="38" y="319.7" x="550.64" stroke="black" stroke-width="1.6" fill="cornflowerblue"/>/>
<rect width="47" height="38" y="319.7" x="597.64" stroke="black" stroke-width="1.6" fill="cornflowerblue"/>/>
<rect width="47" height="38" y="319.7" x="644.64" stroke="black" stroke-width="1.6" fill="cornflowerblue"/>/>
<rect width="47" height="38" y="319.7" x="691.64" stroke="black" stroke-width="1.6" fill="cornflowerblue"/>/>
<rect width="47" height="38" y="319.7" x="738.64" stroke="black" stroke-width="1.6" fill="cornflowerblue"/>/>
<rect width="47" height="38" y="319.7" x="785.64" stroke="black" stroke-width="1.6" fill="cornflowerblue"/>/>
<rect width="47" height="38" y="319.7" x="832.64" stroke="black" stroke-width="1.6" fill="cornflowerblue"/>/>
<rect width="47" height="38" y="319.7" x="879.64" stroke="black" stroke-width="1.6" fill="cornflowerblue"/>/>
<rect width="47" height="38" y="281.7" x="50.1721" stroke="black" stroke-width="1.6" fill="cornflowerblue"/>/>
<rect width="47" height="38" y="281.7" x="97.1721" stroke="black" stroke-width="1.6" fill="cornflowerblue"/>/>
<rect width="47" height="38" y="281.7" x="144.172" stroke="black" stroke-width="1.6" fill="cornflowerblue"/>/>
<rect width="47" height="38" y="281.7" x="191.172" stroke="black" stroke-width="1.6" fill="cornflowerblue"/>/>
<rect width="47" height="38" y="281.7" x="238.172" stroke="black" stroke-width="1.6" fill="cornflowerblue"/>/>
<rect width="47" height="38" y="281.7" x="285.172" stroke="black" stroke-width="1.6" fill="cornflowerblue"/>/>
<rect width="47" height="38" y="281.7" x="332.172" stroke="black" stroke-width="1.6" fill="cornflowerblue"/>/>
<rect width="47" height="38" y="281.7" x="379.172" stroke="black" stroke-width="1.6" fill="cornflowerblue"/>/>
<rect width="47" height="38" y="281.7" x="426.172" stroke="black" stroke-width="1.6" fill="cornflowerblue"/>/>
<rect width="47" height="38" y="281.7" x="473.172" stroke="black" stroke-width="1.6" fill="cornflowerblue"/>/>
<rect width="47" height="38" y="281.7" x="520.172" stroke="black" stroke-width="1.6" fill="cornflowerblue"/>/>
<rect width="47" height="38" y="281.7" x="567.172" stroke="black" stroke-width="1.6" fill="cornflowerblue"/>/>
<rect width="47" height="38" y="281.7" x="614.172" stroke="black" stroke-width="1.6" fill="cornflowerblue"/>/>
<rect width="47" height="38" y="281.7" x="661.172" stroke="black" stroke-width="1.6" fill="cornflowerblue"/>/>
<rect width="47" height="38" y="281.7" x="708.172" stroke="black" stroke-width="1.6" fill="cornflowerblue"/>/>
<rect width="47" height="38" y="281.7" x="755.172" stroke="black" stroke-width="1.6" fill="cornflowerblue"/>/>
<rect width="47" height="38" y="281.7" x="802.172" stroke="black" stroke-width="1.6" fill="cornflowerblue"/>/>
<rect width="47" height="38" y="281.7" x="849.172" stroke="black" stroke-width="1.6" fill="cornflowerblue"/>/>
<rect width="47" height="38" y="281.7" x="896.172" stroke="black" stroke-width="1.6" fill="cornflowerblue"/>/>
<rect width="47" height="38" y="243.7" x="70.6862" stroke="black" stroke-width="1.6" fill="cornflowerblue"/>/>
<rect width="47" height="38" y="243.7" x="117.686" stroke="black" stroke-width="1.6" fill="cornflowerblue"/>/>
<rect width="47" height="38" y="243.7" x="164.686" stroke="black" stroke-width="1.6" fill="cornflowerblue"/>/>
<rect width="47" height="38" y="243.7" x="211.686" stroke="black" stroke-width="1.6" fill="cornflowerblue"/>/>
<rect width="47" height="38" y="243.7" x="258.686" stroke="black" stroke-width="1.6" fill="cornflowerblue"/>/>
<rect width="47" height="38" y="243.7" x="305.686" stroke="black" stroke-width="1.6" fill="cornflowerblue"/>/>
<rect width="47" height="38" y="243.7" x="352.686" stroke="black" stroke-width="1.6" fill="cornflowerblue"/>/>
<rect width="47" height="38" y="243.7" x="399.686" stroke="black" stroke-width="1.6" fill="cornflowerblue"/>/>
<rect width="47" height="38" y="243.7" x="446.686" stroke="black" stroke-width="1.6" fill="cornflowerblue"/>/>
<rect width="47" height="38" y="243.7" x="493.686" stroke="black" stroke-width="1.6" fill="cornflowerblue"/>/>
<rect width="47" height="38" y="243.7" x="540.686" stroke="black" stroke-width="1.6" fill="cornflowerblue"/>/>
<rect width="47" height="38" y="243.7" x="587.686" stroke="black" stroke-width="1.6" fill="cornflowerblue"/>/>
<rect width="47" height="38" y="243.7" x="634.686" stroke="black" stroke-width="1.6" fill="cornflowerblue"/>/>
<rect width="47" height="38" y="243.7" x="681.686" stroke="black" stroke-width="1.6" fill="cornflowerblue"/>/>
<rect width="47" height="38" y="243.7" x="728.686" stroke="black" stroke-width="1.6" fill="cornflowerblue"/>/>
<rect width="47" height="38" y="243.7" x="775.686" stroke="black" stroke-width="1.6" fill="cornflowerblue"/>/>
<rect width="47" height="38" y="243.7" x="822.686" stroke="black" stroke-width="1.6" fill="cornflowerblue"/>/>
<rect width="47" height="38" y="243.7" x="869.686" stroke="black" stroke-width="1.6" fill="cornflowerblue"/>/>
<rect width="47" height="38" y="205.7" x="95.7878" stroke="black" stroke-width="1.6" fill="cornflowerblue"/>/>
<rect width="47" height="38" y="205.7" x="142.788" stroke="black" stroke-width="1.6" fill="cornflowerblue"/>/>
<rect width="47" height="38" y="205.7" x="189.788" stroke="black" stroke-width="1.6" fill="cornflowerblue"/>/>
<rect width="47" height="38" y="205.7" x="236.788" stroke="black" stroke-width="1.6" fill="cornflowerblue"/>/>
<rect width="47" height="38" y="205.7" x="283.788" stroke="black" stroke-width="1.6" fill="cornflowerblue"/>/>
<rect width="47" height="38" y="205.7" x="330.788" stroke="black" stroke-width="1.6" fill="cornflowerblue"/>/>
<rect width="47" height="38" y="205.7" x="377.788" stroke="black" stroke-width="1.6" fill="cornflowerblue"/>/>
<rect width="47" height="38" y="205.7" x="424.788" stroke="black" stroke-width="1.6" fill="cornflowerblue"/>/>
<rect width="47" height="38" y="205.7" x="471.788" stroke="black" stroke-width="1.6" fill="cornflowerblue"/>/>
<rect width="47" height="38" y="205.7" x="518.788" stroke="black" stroke-width="1.6" fill="cornflowerblue"/>/>
<rect width="47" height="38" y="205.7" x="565.788" stroke="black" stroke-width="1.6" fill="cornflowerblue"/>/>
<rect width="47" height="38" y="205.7" x="612.788" stroke="black" stroke-width="1.6" fill="cornflowerblue"/>/>
<rect width="47" height="38" y="205.7" x="659.788" stroke="black" stroke-width="1.6" fill="cornflowerblue"/>/>
<rect width="47" height="38" y="205.7" x="706.788" stroke="black" stroke-width="1.6" fill="cornflowerblue"/>/>
<rect width="47" height="38" y="205.7" x="753.788" stroke="black" stroke-width="1.6" fill="cornflowerblue"/>/>
<rect width="47" height="38" y="205.7" x="800.788" stroke="black" stroke-width="1.6" fill="cornflowerblue"/>/>
<rect width="47" height="38" y="205.7" x="847.788" stroke="black" stroke-width="1.6" fill="cornflowerblue"/>/>
<rect width="47" height="38" y="167.7" x="126.4" stroke="black" stroke-width="1.6" fill="cornflowerblue"/>/>
<rect width="47" height="38" y="167.7" x="173.4" stroke="black" stroke-width="1.6" fill="cornflowerblue"/>/>
<rect width="47" height="38" y="167.7" x="220.4" stroke="black" stroke-width="1.6" fill="cornflowerblue"/>/>
<rect width="47" height="38" y="167.7" x="267.4" stroke="black" stroke-width="1.6" fill="cornflowerblue"/>/>
<rect width="47" height="38" y="167.7" x="314.4" stroke="black" stroke-width="1.6" fill="cornflowerblue"/>/>
<rect width="47" height="38" y="167.7" x="361.4" stroke="black" stroke-width="1.6" fill="cornflowerblue"/>/>
<rect width="47" height="38" y="167.7" x="408.4" stroke="black" stroke-width="1.6" fill="cornflowerblue"/>/>
<rect width="47" height="38" y="167.7" x="455.4" stroke="black" stroke-width="1.6" fill="cornflowerblue"/>/>
<rect width="47" height="38" y="167.7" x="502.4" stroke="black" stroke-width="1.6" fill="cornflowerblue"/>/>
<rect width="47" height="38" y="167.7" x="549.4" stroke="black" stroke-width="1.6" fill="cornflowerblue"/>/>
<rect width="47" height="38" y="167.7" x="596.4" stroke="black" stroke-width="1.6" fill="cornflowerblue"/>/>
<rect width="47" height="38" y="167.7" x="643.4" stroke="black" stroke-width="1.6" fill="cornflowerblue"/>/>
<rect width="47" height="38" y="167.7" x="690.4" stroke="black" stroke-width="1.6" fill="cornflowerblue"/>/>
<rect width="47" height="38" y="167.7" x="737.4" stroke="black" stroke-width="1.6" fill="cornflowerblue"/>/>
<rect width="47" height="38" y="167.7" x="784.4" stroke="black" stroke-width="1.6" fill="cornflowerblue"/>/>
<rect width="47" height="38" y="129.7" x="164.027" stroke="black" stroke-width="1.6" fill="cornflowerblue"/>/>
<rect width="47" height="38" y="129.7" x="211.027" stroke="black" stroke-width="1.6" fill="cornflowerblue"/>/>
<rect width="47" height="38" y="129.7" x="258.027" stroke="black" stroke-width="1.6" fill="cornflowerblue"/>/>
<rect width="47" height="38" y="129.7" x="305.027" stroke="black" stroke-width="1.6" fill="cornflowerblue"/>/>
<rect width="47" height="38" y="129.7" x="352.027" stroke="black" stroke-width="1.6" fill="cornflowerblue"/>/>
<rect width="47" height="38" y="129.7" x="399.027" stroke="black" stroke-width="1.6" fill="cornflowerblue"/>/>
<rect width="47" height="38" y="129.7" x="446.027" stroke="black" stroke-width="1.6" fill="cornflowerblue"/>/>
<rect width="47" height="38" y="129.7" x="493.027" stroke="black" stroke-width="1.6" fill="cornflowerblue"/>/>
<rect width="47" height="38" y="129.7" x="540.027" stroke="black" stroke-width="1.6" fill="cornflowerblue"/>/>
<rect width="47" height="38" y="129.7" x="587.027" stroke="black" stroke-width="1.6" fill="cornflowerblue"/>/>
<rect width="47" height="38" y="129.7" x="634.027" stroke="black" stroke-width="1.6" fill="cornflowerblue"/>/>
<rect width="47" height="38" y="129.7" x="681.027" stroke="black" stroke-width="1.6" fill="cornflowerblue"/>/>
<rect width="47" height="38" y="129.7" x="728.027" stroke="black" stroke-width="1.6" fill="cornflowerblue"/>/>
<rect width="47" height="38" y="129.7" x="775.027" stroke="black" stroke-width="1.6" fill="cornflowerblue"/>/>
<rect width="47" height="38" y="91.7" x="211.398" stroke="black" stroke-width="1.6" fill="cornflowerblue"/>/>
<rect width="47" height="38" y="91.7" x="258.398" stroke="black" stroke-width="1.6" fill="cornflowerblue"/>/>
<rect width="47" height="38" y="91.7" x="305.398" stroke="black" stroke-width="1.6" fill="cornflowerblue"/>/>
<rect width="47" height="38" y="91.7" x="352.398" stroke="black" stroke-width="1.6" fill="cornflowerblue"/>/>
<rect width="47" height="38" y="91.7" x="399.398" stroke="black" stroke-width="1.6" fill="cornflowerblue"/>/>
<rect width="47" height="38" y="91.7" x="446.398" stroke="black" stroke-width="1.6" fill="cornflowerblue"/>/>
<rect width="47" height="38" y="91.7" x="493.398" stroke="black" stroke-width="1.6" fill="cornflowerblue"/>/>
<rect width="47" height="38" y="91.7" x="540.398" stroke="black" stroke-width="1.6" fill="cornflowerblue"/>/>
<rect width="47" height="38" y="91.7" x="587.398" stroke="black" stroke-width="1.6" fill="cornflowerblue"/>/>
<rect width="47" height="38" y="91.7" x="634.398" stroke="black" stroke-width="1.6" fill="cornflowerblue"/>/>
<rect width="47" height="38" y="91.7" x="681.398" stroke="black" stroke-width="1.6" fill="cornflowerblue"/>/>
<rect width="47" height="38" y="91.7" x="728.398" stroke="black" stroke-width="1.6" fill="cornflowerblue"/>/>
<rect width="47" height="38" y="53.7" x="274.575" stroke="black" stroke-width="1.6" fill="cornflowerblue"/>/>
<rect width="47" height="38" y="53.7" x="321.575" stroke="black" stroke-width="1.6" fill="cornflowerblue"/>/>
<rect width="47" height="38" y="53.7" x="368.575" stroke="black" stroke-width="1.6" fill="cornflowerblue"/>/>
<rect width="47" height="38" y="53.7" x="415.575" stroke="black" stroke-width="1.6" fill="cornflowerblue"/>/>
<rect width="47" height="38" y="53.7" x="462.575" stroke="black" stroke-width="1.6" fill="cornflowerblue"/>/>
<rect width="47" height="38" y="53.7" x="509.575" stroke="black" stroke-width="1.6" fill="cornflowerblue"/>/>
<rect width="47" height="38" y="53.7" x="556.575" stroke="black" stroke-width="1.6" fill="cornflowerblue"/>/>
<rect width="47" height="38" y="53.7" x="603.575" stroke="black" stroke-width="1.6" fill="cornflowerblue"/>/>
<rect width="47" height="38" y="53.7" x="650.575" stroke="black" stroke-width="1.6" fill="cornflowerblue"/>/>
<rect width="47" height="38" y="15.7" x="375.688" stroke="black" stroke-width="1.6" fill="cornflowerblue"/>/>
<rect width="47" height="38" y="15.7" x="422.688" stroke="black" stroke-width="1.6" fill="cornflowerblue"/>/>
<rect width="47" height="38" y="15.7" x="469.688" stroke="black" stroke-width="1.6" fill="cornflowerblue"/>/>
<rect width="47" height="38" y="15.7" x="516.688" stroke="black" stroke-width="1.6" fill="cornflowerblue"/>/>
<rect width="47" height="38" y="15.7" x="563.688" stroke="black" stroke-width="1.6" fill="cornflowerblue"/>/>
 </svg>