<svg version="1.1"
baseProfile="full"
width="700" height="700" xmlns="http://www.w3.org/2000/svg">
<polygon points="300,0 0,519.615 600,519.615" fill="white" stroke="black" stroke-width="1.6" 
/>
<rect width="47" height="38" y="481.615" x="22.3529" stroke="black" stroke-width="1.6" fill="cornflowerblue"/>/>
<rect width="47" height="38" y="481.615" x="69.3529" stroke="black" stroke-width="1.6" fill="cornflowerblue"/>/>
<rect width="47" height="38" y="481.615" x="116.353" stroke="black" stroke-width="1.6" fill="cornflowerblue"/>/>
<rect width="47" height="38" y="481.615" x="163.353" stroke="black" stroke-width="1.6" fill="cornflowerblue"/>/>
<rect width="47" height="38" y="481.615" x="210.353" stroke="black" stroke-width="1.6" fill="cornflowerblue"/>/>
<rect width="47" height="38" y="481.615" x="257.353" stroke="black" stroke-width="1.6" fill="cornflowerblue"/>/>
<rect width="47" height="38" y="481.615" x="304.353" stroke="black" stroke-width="1.6" fill="cornflowerblue"/>/>
<rect width="47" height="38" y="481.615" x="351.353" stroke="black" stroke-width="1.6" fill="cornflowerblue"/>/>
<rect width="47" height="38" y="481.615" x="398.353" stroke="black" stroke-width="1.6" fill="cornflowerblue"/>/>
<rect width="47" height="38" y="481.615" x="445.353" stroke="black" stroke-width="1.6" fill="cornflowerblue"/>/>
<rect width="47" height="38" y="481.615" x="492.353" stroke="black" stroke-width="1.6" fill="cornflowerblue"/>/>
<rect width="47" height="38" y="443.615" x="44.7059" stroke="black" stroke-width="1.6" fill="cornflowerblue"/>/>
<rect width="47" height="38" y="443.615" x="91.7059" stroke="black" stroke-width="1.6" fill="cornflowerblue"/>/>
<rect width="47" height="38" y="443.615" x="138.706" stroke="black" stroke-width="1.6" fill="cornflowerblue"/>/>
<rect width="47" height="38" y="443.615" x="185.706" stroke="black" stroke-width="1.6" fill="cornflowerblue"/>/>
<rect width="47" height="38" y="443.615" x="232.706" stroke="black" stroke-width="1.6" fill="cornflowerblue"/>/>
<rect width="47" height="38" y="443.615" x="279.706" stroke="black" stroke-width="1.6" fill="cornflowerblue"/>/>
<rect width="47" height="38" y="443.615" x="326.706" stroke="black" stroke-width="1.6" fill="cornflowerblue"/>/>
<rect width="47" height="38" y="443.615" x="373.706" stroke="black" stroke-width="1.6" fill="cornflowerblue"/>/>
<rect width="47" height="38" y="443.615" x="420.706" stroke="black" stroke-width="1.6" fill="cornflowerblue"/>/>
<rect width="47" height="38" y="443.615" x="467.706" stroke="black" stroke-width="1.6" fill="cornflowerblue"/>/>
<rect width="47" height="38" y="405.615" x="67.0588" stroke="black" stroke-width="1.6" fill="cornflowerblue"/>/>
<rect width="47" height="38" y="405.615" x="114.059" stroke="black" stroke-width="1.6" fill="cornflowerblue"/>/>
<rect width="47" height="38" y="405.615" x="161.059" stroke="black" stroke-width="1.6" fill="cornflowerblue"/>/>
<rect width="47" height="38" y="405.615" x="208.059" stroke="black" stroke-width="1.6" fill="cornflowerblue"/>/>
<rect width="47" height="38" y="405.615" x="255.059" stroke="black" stroke-width="1.6" fill="cornflowerblue"/>/>
<rect width="47" height="38" y="405.615" x="302.059" stroke="black" stroke-width="1.6" fill="cornflowerblue"/>/>
<rect width="47" height="38" y="405.615" x="349.059" stroke="black" stroke-width="1.6" fill="cornflowerblue"/>/>
<rect width="47" height="38" y="405.615" x="396.059" stroke="black" stroke-width="1.6" fill="cornflowerblue"/>/>
<rect width="47" height="38" y="405.615" x="443.059" stroke="black" stroke-width="1.6" fill="cornflowerblue"/>/>
<rect width="47" height="38" y="367.615" x="89.4118" stroke="black" stroke-width="1.6" fill="cornflowerblue"/>/>
<rect width="47" height="38" y="367.615" x="136.412" stroke="black" stroke-width="1.6" fill="cornflowerblue"/>/>
<rect width="47" height="38" y="367.615" x="183.412" stroke="black" stroke-width="1.6" fill="cornflowerblue"/>/>
<rect width="47" height="38" y="367.615" x="230.412" stroke="black" stroke-width="1.6" fill="cornflowerblue"/>/>
<rect width="47" height="38" y="367.615" x="277.412" stroke="black" stroke-width="1.6" fill="cornflowerblue"/>/>
<rect width="47" height="38" y="367.615" x="324.412" stroke="black" stroke-width="1.6" fill="cornflowerblue"/>/>
<rect width="47" height="38" y="367.615" x="371.412" stroke="black" stroke-width="1.6" fill="cornflowerblue"/>/>
<rect width="47" height="38" y="367.615" x="418.412" stroke="black" stroke-width="1.6" fill="cornflowerblue"/>/>
<rect width="47" height="38" y="329.615" x="111.765" stroke="black" stroke-width="1.6" fill="cornflowerblue"/>/>
<rect width="47" height="38" y="329.615" x="158.765" stroke="black" stroke-width="1.6" fill="cornflowerblue"/>/>
<rect width="47" height="38" y="329.615" x="205.765" stroke="black" stroke-width="1.6" fill="cornflowerblue"/>/>
<rect width="47" height="38" y="329.615" x="252.765" stroke="black" stroke-width="1.6" fill="cornflowerblue"/>/>
<rect width="47" height="38" y="329.615" x="299.765" stroke="black" stroke-width="1.6" fill="cornflowerblue"/>/>
<rect width="47" height="38" y="329.615" x="346.765" stroke="black" stroke-width="1.6" fill="cornflowerblue"/>/>
<rect width="47" height="38" y="329.615" x="393.765" stroke="black" stroke-width="1.6" fill="cornflowerblue"/>/>
<rect width="47" height="38" y="329.615" x="440.765" stroke="black" stroke-width="1.6" fill="cornflowerblue"/>/>
<rect width="47" height="38" y="291.615" x="134.118" stroke="black" stroke-width="1.6" fill="cornflowerblue"/>/>
<rect width="47" height="38" y="291.615" x="181.118" stroke="black" stroke-width="1.6" fill="cornflowerblue"/>/>
<rect width="47" height="38" y="291.615" x="228.118" stroke="black" stroke-width="1.6" fill="cornflowerblue"/>/>
<rect width="47" height="38" y="291.615" x="275.118" stroke="black" stroke-width="1.6" fill="cornflowerblue"/>/>
<rect width="47" height="38" y="291.615" x="322.118" stroke="black" stroke-width="1.6" fill="cornflowerblue"/>/>
<rect width="47" height="38" y="291.615" x="369.118" stroke="black" stroke-width="1.6" fill="cornflowerblue"/>/>
<rect width="47" height="38" y="291.615" x="416.118" stroke="black" stroke-width="1.6" fill="cornflowerblue"/>/>
<rect width="47" height="38" y="253.615" x="156.471" stroke="black" stroke-width="1.6" fill="cornflowerblue"/>/>
<rect width="47" height="38" y="253.615" x="203.471" stroke="black" stroke-width="1.6" fill="cornflowerblue"/>/>
<rect width="47" height="38" y="253.615" x="250.471" stroke="black" stroke-width="1.6" fill="cornflowerblue"/>/>
<rect width="47" height="38" y="253.615" x="297.471" stroke="black" stroke-width="1.6" fill="cornflowerblue"/>/>
<rect width="47" height="38" y="253.615" x="344.471" stroke="black" stroke-width="1.6" fill="cornflowerblue"/>/>
<rect width="47" height="38" y="253.615" x="391.471" stroke="black" stroke-width="1.6" fill="cornflowerblue"/>/>
<rect width="47" height="38" y="215.615" x="178.824" stroke="black" stroke-width="1.6" fill="cornflowerblue"/>/>
<rect width="47" height="38" y="215.615" x="225.824" stroke="black" stroke-width="1.6" fill="cornflowerblue"/>/>
<rect width="47" height="38" y="215.615" x="272.824" stroke="black" stroke-width="1.6" fill="cornflowerblue"/>/>
<rect width="47" height="38" y="215.615" x="319.824" stroke="black" stroke-width="1.6" fill="cornflowerblue"/>/>
<rect width="47" height="38" y="215.615" x="366.824" stroke="black" stroke-width="1.6" fill="cornflowerblue"/>/>
<rect width="47" height="38" y="177.615" x="201.176" stroke="black" stroke-width="1.6" fill="cornflowerblue"/>/>
<rect width="47" height="38" y="177.615" x="248.176" stroke="black" stroke-width="1.6" fill="cornflowerblue"/>/>
<rect width="47" height="38" y="177.615" x="295.176" stroke="black" stroke-width="1.6" fill="cornflowerblue"/>/>
<rect width="47" height="38" y="177.615" x="342.176" stroke="black" stroke-width="1.6" fill="cornflowerblue"/>/>
<rect width="47" height="38" y="139.615" x="223.529" stroke="black" stroke-width="1.6" fill="cornflowerblue"/>/>
<rect width="47" height="38" y="139.615" x="270.529" stroke="black" stroke-width="1.6" fill="cornflowerblue"/>/>
<rect width="47" height="38" y="139.615" x="317.529" stroke="black" stroke-width="1.6" fill="cornflowerblue"/>/>
<rect width="47" height="38" y="101.615" x="245.882" stroke="black" stroke-width="1.6" fill="cornflowerblue"/>/>
<rect width="47" height="38" y="101.615" x="292.882" stroke="black" stroke-width="1.6" fill="cornflowerblue"/>/>
<rect width="47" height="38" y="63.6152" x="268.235" stroke="black" stroke-width="1.6" fill="cornflowerblue"/>/>
 </svg>