<svg version="1.1"
baseProfile="full"
width="992" height="1023"
 xmlns="http://www.w3.org/2000/svg">
<rect width="892" height="923" y="0" x="0" stroke="black" stroke-width="1.6" fill="white"/>
<circle cx="37" cy="37" r="37" stroke="black" stroke-width="1.6" fill="cornflowerblue"/>
<circle cx="111" cy="37" r="37" stroke="black" stroke-width="1.6" fill="cornflowerblue"/>
<circle cx="185" cy="37" r="37" stroke="black" stroke-width="1.6" fill="cornflowerblue"/>
<circle cx="259" cy="37" r="37" stroke="black" stroke-width="1.6" fill="cornflowerblue"/>
<circle cx="333" cy="37" r="37" stroke="black" stroke-width="1.6" fill="cornflowerblue"/>
<circle cx="407" cy="37" r="37" stroke="black" stroke-width="1.6" fill="cornflowerblue"/>
<circle cx="481" cy="37" r="37" stroke="black" stroke-width="1.6" fill="cornflowerblue"/>
<circle cx="555" cy="37" r="37" stroke="black" stroke-width="1.6" fill="cornflowerblue"/>
<circle cx="629" cy="37" r="37" stroke="black" stroke-width="1.6" fill="cornflowerblue"/>
<circle cx="703" cy="37" r="37" stroke="black" stroke-width="1.6" fill="cornflowerblue"/>
<circle cx="777" cy="37" r="37" stroke="black" stroke-width="1.6" fill="cornflowerblue"/>
<circle cx="851" cy="37" r="37" stroke="black" stroke-width="1.6" fill="cornflowerblue"/>
<circle cx="37" cy="111" r="37" stroke="black" stroke-width="1.6" fill="cornflowerblue"/>
<circle cx="111" cy="111" r="37" stroke="black" stroke-width="1.6" fill="cornflowerblue"/>
<circle cx="185" cy="111" r="37" stroke="black" stroke-width="1.6" fill="cornflowerblue"/>
<circle cx="259" cy="111" r="37" stroke="black" stroke-width="1.6" fill="cornflowerblue"/>
<circle cx="333" cy="111" r="37" stroke="black" stroke-width="1.6" fill="cornflowerblue"/>
<circle cx="407" cy="111" r="37" stroke="black" stroke-width="1.6" fill="cornflowerblue"/>
<circle cx="481" cy="111" r="37" stroke="black" stroke-width="1.6" fill="cornflowerblue"/>
<circle cx="555" cy="111" r="37" stroke="black" stroke-width="1.6" fill="cornflowerblue"/>
<circle cx="629" cy="111" r="37" stroke="black" stroke-width="1.6" fill="cornflowerblue"/>
<circle cx="703" cy="111" r="37" stroke="black" stroke-width="1.6" fill="cornflowerblue"/>
<circle cx="777" cy="111" r="37" stroke="black" stroke-width="1.6" fill="cornflowerblue"/>
<circle cx="851" cy="111" r="37" stroke="black" stroke-width="1.6" fill="cornflowerblue"/>
<circle cx="37" cy="185" r="37" stroke="black" stroke-width="1.6" fill="cornflowerblue"/>
<circle cx="111" cy="185" r="37" stroke="black" stroke-width="1.6" fill="cornflowerblue"/>
<circle cx="185" cy="185" r="37" stroke="black" stroke-width="1.6" fill="cornflowerblue"/>
<circle cx="259" cy="185" r="37" stroke="black" stroke-width="1.6" fill="cornflowerblue"/>
<circle cx="333" cy="185" r="37" stroke="black" stroke-width="1.6" fill="cornflowerblue"/>
<circle cx="407" cy="185" r="37" stroke="black" stroke-width="1.6" fill="cornflowerblue"/>
<circle cx="481" cy="185" r="37" stroke="black" stroke-width="1.6" fill="cornflowerblue"/>
<circle cx="555" cy="185" r="37" stroke="black" stroke-width="1.6" fill="cornflowerblue"/>
<circle cx="629" cy="185" r="37" stroke="black" stroke-width="1.6" fill="cornflowerblue"/>
<circle cx="703" cy="185" r="37" stroke="black" stroke-width="1.6" fill="cornflowerblue"/>
<circle cx="777" cy="185" r="37" stroke="black" stroke-width="1.6" fill="cornflowerblue"/>
<circle cx="851" cy="185" r="37" stroke="black" stroke-width="1.6" fill="cornflowerblue"/>
<circle cx="37" cy="259" r="37" stroke="black" stroke-width="1.6" fill="cornflowerblue"/>
<circle cx="111" cy="259" r="37" stroke="black" stroke-width="1.6" fill="cornflowerblue"/>
<circle cx="185" cy="259" r="37" stroke="black" stroke-width="1.6" fill="cornflowerblue"/>
<circle cx="259" cy="259" r="37" stroke="black" stroke-width="1.6" fill="cornflowerblue"/>
<circle cx="333" cy="259" r="37" stroke="black" stroke-width="1.6" fill="cornflowerblue"/>
<circle cx="407" cy="259" r="37" stroke="black" stroke-width="1.6" fill="cornflowerblue"/>
<circle cx="481" cy="259" r="37" stroke="black" stroke-width="1.6" fill="cornflowerblue"/>
<circle cx="555" cy="259" r="37" stroke="black" stroke-width="1.6" fill="cornflowerblue"/>
<circle cx="629" cy="259" r="37" stroke="black" stroke-width="1.6" fill="cornflowerblue"/>
<circle cx="703" cy="259" r="37" stroke="black" stroke-width="1.6" fill="cornflowerblue"/>
<circle cx="777" cy="259" r="37" stroke="black" stroke-width="1.6" fill="cornflowerblue"/>
<circle cx="851" cy="259" r="37" stroke="black" stroke-width="1.6" fill="cornflowerblue"/>
<circle cx="37" cy="333" r="37" stroke="black" stroke-width="1.6" fill="cornflowerblue"/>
<circle cx="111" cy="333" r="37" stroke="black" stroke-width="1.6" fill="cornflowerblue"/>
<circle cx="185" cy="333" r="37" stroke="black" stroke-width="1.6" fill="cornflowerblue"/>
<circle cx="259" cy="333" r="37" stroke="black" stroke-width="1.6" fill="cornflowerblue"/>
<circle cx="333" cy="333" r="37" stroke="black" stroke-width="1.6" fill="cornflowerblue"/>
<circle cx="407" cy="333" r="37" stroke="black" stroke-width="1.6" fill="cornflowerblue"/>
<circle cx="481" cy="333" r="37" stroke="black" stroke-width="1.6" fill="cornflowerblue"/>
<circle cx="555" cy="333" r="37" stroke="black" stroke-width="1.6" fill="cornflowerblue"/>
<circle cx="629" cy="333" r="37" stroke="black" stroke-width="1.6" fill="cornflowerblue"/>
<circle cx="703" cy="333" r="37" stroke="black" stroke-width="1.6" fill="cornflowerblue"/>
<circle cx="777" cy="333" r="37" stroke="black" stroke-width="1.6" fill="cornflowerblue"/>
<circle cx="851" cy="333" r="37" stroke="black" stroke-width="1.6" fill="cornflowerblue"/>
<circle cx="37" cy="407" r="37" stroke="black" stroke-width="1.6" fill="cornflowerblue"/>
<circle cx="111" cy="407" r="37" stroke="black" stroke-width="1.6" fill="cornflowerblue"/>
<circle cx="185" cy="407" r="37" stroke="black" stroke-width="1.6" fill="cornflowerblue"/>
<circle cx="259" cy="407" r="37" stroke="black" stroke-width="1.6" fill="cornflowerblue"/>
<circle cx="333" cy="407" r="37" stroke="black" stroke-width="1.6" fill="cornflowerblue"/>
<circle cx="407" cy="407" r="37" stroke="black" stroke-width="1.6" fill="cornflowerblue"/>
<circle cx="481" cy="407" r="37" stroke="black" stroke-width="1.6" fill="cornflowerblue"/>
<circle cx="555" cy="407" r="37" stroke="black" stroke-width="1.6" fill="cornflowerblue"/>
<circle cx="629" cy="407" r="37" stroke="black" stroke-width="1.6" fill="cornflowerblue"/>
<circle cx="703" cy="407" r="37" stroke="black" stroke-width="1.6" fill="cornflowerblue"/>
<circle cx="777" cy="407" r="37" stroke="black" stroke-width="1.6" fill="cornflowerblue"/>
<circle cx="851" cy="407" r="37" stroke="black" stroke-width="1.6" fill="cornflowerblue"/>
<circle cx="37" cy="481" r="37" stroke="black" stroke-width="1.6" fill="cornflowerblue"/>
<circle cx="111" cy="481" r="37" stroke="black" stroke-width="1.6" fill="cornflowerblue"/>
<circle cx="185" cy="481" r="37" stroke="black" stroke-width="1.6" fill="cornflowerblue"/>
<circle cx="259" cy="481" r="37" stroke="black" stroke-width="1.6" fill="cornflowerblue"/>
<circle cx="333" cy="481" r="37" stroke="black" stroke-width="1.6" fill="cornflowerblue"/>
<circle cx="407" cy="481" r="37" stroke="black" stroke-width="1.6" fill="cornflowerblue"/>
<circle cx="481" cy="481" r="37" stroke="black" stroke-width="1.6" fill="cornflowerblue"/>
<circle cx="555" cy="481" r="37" stroke="black" stroke-width="1.6" fill="cornflowerblue"/>
<circle cx="629" cy="481" r="37" stroke="black" stroke-width="1.6" fill="cornflowerblue"/>
<circle cx="703" cy="481" r="37" stroke="black" stroke-width="1.6" fill="cornflowerblue"/>
<circle cx="777" cy="481" r="37" stroke="black" stroke-width="1.6" fill="cornflowerblue"/>
<circle cx="851" cy="481" r="37" stroke="black" stroke-width="1.6" fill="cornflowerblue"/>
<circle cx="37" cy="555" r="37" stroke="black" stroke-width="1.6" fill="cornflowerblue"/>
<circle cx="111" cy="555" r="37" stroke="black" stroke-width="1.6" fill="cornflowerblue"/>
<circle cx="185" cy="555" r="37" stroke="black" stroke-width="1.6" fill="cornflowerblue"/>
<circle cx="259" cy="555" r="37" stroke="black" stroke-width="1.6" fill="cornflowerblue"/>
<circle cx="333" cy="555" r="37" stroke="black" stroke-width="1.6" fill="cornflowerblue"/>
<circle cx="407" cy="555" r="37" stroke="black" stroke-width="1.6" fill="cornflowerblue"/>
<circle cx="481" cy="555" r="37" stroke="black" stroke-width="1.6" fill="cornflowerblue"/>
<circle cx="555" cy="555" r="37" stroke="black" stroke-width="1.6" fill="cornflowerblue"/>
<circle cx="629" cy="555" r="37" stroke="black" stroke-width="1.6" fill="cornflowerblue"/>
<circle cx="703" cy="555" r="37" stroke="black" stroke-width="1.6" fill="cornflowerblue"/>
<circle cx="777" cy="555" r="37" stroke="black" stroke-width="1.6" fill="cornflowerblue"/>
<circle cx="851" cy="555" r="37" stroke="black" stroke-width="1.6" fill="cornflowerblue"/>
<circle cx="37" cy="629" r="37" stroke="black" stroke-width="1.6" fill="cornflowerblue"/>
<circle cx="111" cy="629" r="37" stroke="black" stroke-width="1.6" fill="cornflowerblue"/>
<circle cx="185" cy="629" r="37" stroke="black" stroke-width="1.6" fill="cornflowerblue"/>
<circle cx="259" cy="629" r="37" stroke="black" stroke-width="1.6" fill="cornflowerblue"/>
<circle cx="333" cy="629" r="37" stroke="black" stroke-width="1.6" fill="cornflowerblue"/>
<circle cx="407" cy="629" r="37" stroke="black" stroke-width="1.6" fill="cornflowerblue"/>
<circle cx="481" cy="629" r="37" stroke="black" stroke-width="1.6" fill="cornflowerblue"/>
<circle cx="555" cy="629" r="37" stroke="black" stroke-width="1.6" fill="cornflowerblue"/>
<circle cx="629" cy="629" r="37" stroke="black" stroke-width="1.6" fill="cornflowerblue"/>
<circle cx="703" cy="629" r="37" stroke="black" stroke-width="1.6" fill="cornflowerblue"/>
<circle cx="777" cy="629" r="37" stroke="black" stroke-width="1.6" fill="cornflowerblue"/>
<circle cx="851" cy="629" r="37" stroke="black" stroke-width="1.6" fill="cornflowerblue"/>
<circle cx="37" cy="703" r="37" stroke="black" stroke-width="1.6" fill="cornflowerblue"/>
<circle cx="111" cy="703" r="37" stroke="black" stroke-width="1.6" fill="cornflowerblue"/>
<circle cx="185" cy="703" r="37" stroke="black" stroke-width="1.6" fill="cornflowerblue"/>
<circle cx="259" cy="703" r="37" stroke="black" stroke-width="1.6" fill="cornflowerblue"/>
<circle cx="333" cy="703" r="37" stroke="black" stroke-width="1.6" fill="cornflowerblue"/>
<circle cx="407" cy="703" r="37" stroke="black" stroke-width="1.6" fill="cornflowerblue"/>
<circle cx="481" cy="703" r="37" stroke="black" stroke-width="1.6" fill="cornflowerblue"/>
<circle cx="555" cy="703" r="37" stroke="black" stroke-width="1.6" fill="cornflowerblue"/>
<circle cx="629" cy="703" r="37" stroke="black" stroke-width="1.6" fill="cornflowerblue"/>
<circle cx="703" cy="703" r="37" stroke="black" stroke-width="1.6" fill="cornflowerblue"/>
<circle cx="777" cy="703" r="37" stroke="black" stroke-width="1.6" fill="cornflowerblue"/>
<circle cx="851" cy="703" r="37" stroke="black" stroke-width="1.6" fill="cornflowerblue"/>
<circle cx="37" cy="777" r="37" stroke="black" stroke-width="1.6" fill="cornflowerblue"/>
<circle cx="111" cy="777" r="37" stroke="black" stroke-width="1.6" fill="cornflowerblue"/>
<circle cx="185" cy="777" r="37" stroke="black" stroke-width="1.6" fill="cornflowerblue"/>
<circle cx="259" cy="777" r="37" stroke="black" stroke-width="1.6" fill="cornflowerblue"/>
<circle cx="333" cy="777" r="37" stroke="black" stroke-width="1.6" fill="cornflowerblue"/>
<circle cx="407" cy="777" r="37" stroke="black" stroke-width="1.6" fill="cornflowerblue"/>
<circle cx="481" cy="777" r="37" stroke="black" stroke-width="1.6" fill="cornflowerblue"/>
<circle cx="555" cy="777" r="37" stroke="black" stroke-width="1.6" fill="cornflowerblue"/>
<circle cx="629" cy="777" r="37" stroke="black" stroke-width="1.6" fill="cornflowerblue"/>
<circle cx="703" cy="777" r="37" stroke="black" stroke-width="1.6" fill="cornflowerblue"/>
<circle cx="777" cy="777" r="37" stroke="black" stroke-width="1.6" fill="cornflowerblue"/>
<circle cx="851" cy="777" r="37" stroke="black" stroke-width="1.6" fill="cornflowerblue"/>
<circle cx="37" cy="851" r="37" stroke="black" stroke-width="1.6" fill="cornflowerblue"/>
<circle cx="111" cy="851" r="37" stroke="black" stroke-width="1.6" fill="cornflowerblue"/>
<circle cx="185" cy="851" r="37" stroke="black" stroke-width="1.6" fill="cornflowerblue"/>
<circle cx="259" cy="851" r="37" stroke="black" stroke-width="1.6" fill="cornflowerblue"/>
<circle cx="333" cy="851" r="37" stroke="black" stroke-width="1.6" fill="cornflowerblue"/>
<circle cx="407" cy="851" r="37" stroke="black" stroke-width="1.6" fill="cornflowerblue"/>
<circle cx="481" cy="851" r="37" stroke="black" stroke-width="1.6" fill="cornflowerblue"/>
<circle cx="555" cy="851" r="37" stroke="black" stroke-width="1.6" fill="cornflowerblue"/>
<circle cx="629" cy="851" r="37" stroke="black" stroke-width="1.6" fill="cornflowerblue"/>
<circle cx="703" cy="851" r="37" stroke="black" stroke-width="1.6" fill="cornflowerblue"/>
<circle cx="777" cy="851" r="37" stroke="black" stroke-width="1.6" fill="cornflowerblue"/>
<circle cx="851" cy="851" r="37" stroke="black" stroke-width="1.6" fill="cornflowerblue"/>
</svg>