<svg version="1.1"
baseProfile="full"
width="823" height="823"
 xmlns="http://www.w3.org/2000/svg">
<polygon points="361.5,0 0,626.136 723,626.136" style="fill:white;stroke:black;stroke-width:1.6" 
/>
<circle cx="76.1765" cy="591.136" r="35" stroke="black" stroke-width="1.6" fill="cornflowerblue"/>
<circle cx="146.176" cy="591.136" r="35" stroke="black" stroke-width="1.6" fill="cornflowerblue"/>
<circle cx="216.176" cy="591.136" r="35" stroke="black" stroke-width="1.6" fill="cornflowerblue"/>
<circle cx="286.176" cy="591.136" r="35" stroke="black" stroke-width="1.6" fill="cornflowerblue"/>
<circle cx="356.176" cy="591.136" r="35" stroke="black" stroke-width="1.6" fill="cornflowerblue"/>
<circle cx="426.176" cy="591.136" r="35" stroke="black" stroke-width="1.6" fill="cornflowerblue"/>
<circle cx="496.176" cy="591.136" r="35" stroke="black" stroke-width="1.6" fill="cornflowerblue"/>
<circle cx="566.176" cy="591.136" r="35" stroke="black" stroke-width="1.6" fill="cornflowerblue"/>
<circle cx="636.176" cy="591.136" r="35" stroke="black" stroke-width="1.6" fill="cornflowerblue"/>
<circle cx="117.353" cy="521.136" r="35" stroke="black" stroke-width="1.6" fill="cornflowerblue"/>
<circle cx="187.353" cy="521.136" r="35" stroke="black" stroke-width="1.6" fill="cornflowerblue"/>
<circle cx="257.353" cy="521.136" r="35" stroke="black" stroke-width="1.6" fill="cornflowerblue"/>
<circle cx="327.353" cy="521.136" r="35" stroke="black" stroke-width="1.6" fill="cornflowerblue"/>
<circle cx="397.353" cy="521.136" r="35" stroke="black" stroke-width="1.6" fill="cornflowerblue"/>
<circle cx="467.353" cy="521.136" r="35" stroke="black" stroke-width="1.6" fill="cornflowerblue"/>
<circle cx="537.353" cy="521.136" r="35" stroke="black" stroke-width="1.6" fill="cornflowerblue"/>
<circle cx="158.529" cy="451.136" r="35" stroke="black" stroke-width="1.6" fill="cornflowerblue"/>
<circle cx="228.529" cy="451.136" r="35" stroke="black" stroke-width="1.6" fill="cornflowerblue"/>
<circle cx="298.529" cy="451.136" r="35" stroke="black" stroke-width="1.6" fill="cornflowerblue"/>
<circle cx="368.529" cy="451.136" r="35" stroke="black" stroke-width="1.6" fill="cornflowerblue"/>
<circle cx="438.529" cy="451.136" r="35" stroke="black" stroke-width="1.6" fill="cornflowerblue"/>
<circle cx="508.529" cy="451.136" r="35" stroke="black" stroke-width="1.6" fill="cornflowerblue"/>
<circle cx="199.706" cy="381.136" r="35" stroke="black" stroke-width="1.6" fill="cornflowerblue"/>
<circle cx="269.706" cy="381.136" r="35" stroke="black" stroke-width="1.6" fill="cornflowerblue"/>
<circle cx="339.706" cy="381.136" r="35" stroke="black" stroke-width="1.6" fill="cornflowerblue"/>
<circle cx="409.706" cy="381.136" r="35" stroke="black" stroke-width="1.6" fill="cornflowerblue"/>
<circle cx="479.706" cy="381.136" r="35" stroke="black" stroke-width="1.6" fill="cornflowerblue"/>
<circle cx="240.882" cy="311.136" r="35" stroke="black" stroke-width="1.6" fill="cornflowerblue"/>
<circle cx="310.882" cy="311.136" r="35" stroke="black" stroke-width="1.6" fill="cornflowerblue"/>
<circle cx="380.882" cy="311.136" r="35" stroke="black" stroke-width="1.6" fill="cornflowerblue"/>
<circle cx="450.882" cy="311.136" r="35" stroke="black" stroke-width="1.6" fill="cornflowerblue"/>
<circle cx="282.059" cy="241.136" r="35" stroke="black" stroke-width="1.6" fill="cornflowerblue"/>
<circle cx="352.059" cy="241.136" r="35" stroke="black" stroke-width="1.6" fill="cornflowerblue"/>
<circle cx="422.059" cy="241.136" r="35" stroke="black" stroke-width="1.6" fill="cornflowerblue"/>
<circle cx="323.235" cy="171.136" r="35" stroke="black" stroke-width="1.6" fill="cornflowerblue"/>
<circle cx="393.235" cy="171.136" r="35" stroke="black" stroke-width="1.6" fill="cornflowerblue"/>
</svg>