<svg version="1.1"
baseProfile="full"
width="1446" height="1446"
 viewBox=" -224.333 -224.333 1446 1446" xmlns="http://www.w3.org/2000/svg">
<circle cx="475.883" cy="475.883" r="673" stroke="black" stroke-width="1.6" fill="white"/>
<rect width="60" height="50" y="1075.18" x="300.324" stroke="black" stroke-width="1.6" fill="cornflowerblue"/>
<rect width="60" height="50" y="1075.18" x="360.324" stroke="black" stroke-width="1.6" fill="cornflowerblue"/>
<rect width="60" height="50" y="1075.18" x="420.324" stroke="black" stroke-width="1.6" fill="cornflowerblue"/>
<rect width="60" height="50" y="1075.18" x="480.324" stroke="black" stroke-width="1.6" fill="cornflowerblue"/>
<rect width="60" height="50" y="1075.18" x="540.324" stroke="black" stroke-width="1.6" fill="cornflowerblue"/>
<rect width="60" height="50" y="1008.98" x="141.04" stroke="black" stroke-width="1.6" fill="cornflowerblue"/>
<rect width="60" height="50" y="1008.98" x="201.04" stroke="black" stroke-width="1.6" fill="cornflowerblue"/>
<rect width="60" height="50" y="1008.98" x="261.04" stroke="black" stroke-width="1.6" fill="cornflowerblue"/>
<rect width="60" height="50" y="1008.98" x="321.04" stroke="black" stroke-width="1.6" fill="cornflowerblue"/>
<rect width="60" height="50" y="1008.98" x="381.04" stroke="black" stroke-width="1.6" fill="cornflowerblue"/>
<rect width="60" height="50" y="1008.98" x="441.04" stroke="black" stroke-width="1.6" fill="cornflowerblue"/>
<rect width="60" height="50" y="1008.98" x="501.04" stroke="black" stroke-width="1.6" fill="cornflowerblue"/>
<rect width="60" height="50" y="1008.98" x="561.04" stroke="black" stroke-width="1.6" fill="cornflowerblue"/>
<rect width="60" height="50" y="1008.98" x="621.04" stroke="black" stroke-width="1.6" fill="cornflowerblue"/>
<rect width="60" height="50" y="1008.98" x="681.04" stroke="black" stroke-width="1.6" fill="cornflowerblue"/>
<rect width="60" height="50" y="1008.98" x="741.04" stroke="black" stroke-width="1.6" fill="cornflowerblue"/>
<rect width="60" height="50" y="946.383" x="49.3283" stroke="black" stroke-width="1.6" fill="cornflowerblue"/>
<rect width="60" height="50" y="946.383" x="109.328" stroke="black" stroke-width="1.6" fill="cornflowerblue"/>
<rect width="60" height="50" y="946.383" x="169.328" stroke="black" stroke-width="1.6" fill="cornflowerblue"/>
<rect width="60" height="50" y="946.383" x="229.328" stroke="black" stroke-width="1.6" fill="cornflowerblue"/>
<rect width="60" height="50" y="946.383" x="289.328" stroke="black" stroke-width="1.6" fill="cornflowerblue"/>
<rect width="60" height="50" y="946.383" x="349.328" stroke="black" stroke-width="1.6" fill="cornflowerblue"/>
<rect width="60" height="50" y="946.383" x="409.328" stroke="black" stroke-width="1.6" fill="cornflowerblue"/>
<rect width="60" height="50" y="946.383" x="469.328" stroke="black" stroke-width="1.6" fill="cornflowerblue"/>
<rect width="60" height="50" y="946.383" x="529.328" stroke="black" stroke-width="1.6" fill="cornflowerblue"/>
<rect width="60" height="50" y="946.383" x="589.328" stroke="black" stroke-width="1.6" fill="cornflowerblue"/>
<rect width="60" height="50" y="946.383" x="649.328" stroke="black" stroke-width="1.6" fill="cornflowerblue"/>
<rect width="60" height="50" y="946.383" x="709.328" stroke="black" stroke-width="1.6" fill="cornflowerblue"/>
<rect width="60" height="50" y="946.383" x="769.328" stroke="black" stroke-width="1.6" fill="cornflowerblue"/>
<rect width="60" height="50" y="946.383" x="829.328" stroke="black" stroke-width="1.6" fill="cornflowerblue"/>
<rect width="60" height="50" y="885.883" x="-14.5776" stroke="black" stroke-width="1.6" fill="cornflowerblue"/>
<rect width="60" height="50" y="885.883" x="45.4224" stroke="black" stroke-width="1.6" fill="cornflowerblue"/>
<rect width="60" height="50" y="885.883" x="105.422" stroke="black" stroke-width="1.6" fill="cornflowerblue"/>
<rect width="60" height="50" y="885.883" x="165.422" stroke="black" stroke-width="1.6" fill="cornflowerblue"/>
<rect width="60" height="50" y="885.883" x="225.422" stroke="black" stroke-width="1.6" fill="cornflowerblue"/>
<rect width="60" height="50" y="885.883" x="285.422" stroke="black" stroke-width="1.6" fill="cornflowerblue"/>
<rect width="60" height="50" y="885.883" x="345.422" stroke="black" stroke-width="1.6" fill="cornflowerblue"/>
<rect width="60" height="50" y="885.883" x="405.422" stroke="black" stroke-width="1.6" fill="cornflowerblue"/>
<rect width="60" height="50" y="885.883" x="465.422" stroke="black" stroke-width="1.6" fill="cornflowerblue"/>
<rect width="60" height="50" y="885.883" x="525.422" stroke="black" stroke-width="1.6" fill="cornflowerblue"/>
<rect width="60" height="50" y="885.883" x="585.422" stroke="black" stroke-width="1.6" fill="cornflowerblue"/>
<rect width="60" height="50" y="885.883" x="645.422" stroke="black" stroke-width="1.6" fill="cornflowerblue"/>
<rect width="60" height="50" y="885.883" x="705.422" stroke="black" stroke-width="1.6" fill="cornflowerblue"/>
<rect width="60" height="50" y="885.883" x="765.422" stroke="black" stroke-width="1.6" fill="cornflowerblue"/>
<rect width="60" height="50" y="885.883" x="825.422" stroke="black" stroke-width="1.6" fill="cornflowerblue"/>
<rect width="60" height="50" y="885.883" x="885.422" stroke="black" stroke-width="1.6" fill="cornflowerblue"/>
<rect width="60" height="50" y="827.183" x="-63.7374" stroke="black" stroke-width="1.6" fill="cornflowerblue"/>
<rect width="60" height="50" y="827.183" x="-3.7374" stroke="black" stroke-width="1.6" fill="cornflowerblue"/>
<rect width="60" height="50" y="827.183" x="56.2626" stroke="black" stroke-width="1.6" fill="cornflowerblue"/>
<rect width="60" height="50" y="827.183" x="116.263" stroke="black" stroke-width="1.6" fill="cornflowerblue"/>
<rect width="60" height="50" y="827.183" x="176.263" stroke="black" stroke-width="1.6" fill="cornflowerblue"/>
<rect width="60" height="50" y="827.183" x="236.263" stroke="black" stroke-width="1.6" fill="cornflowerblue"/>
<rect width="60" height="50" y="827.183" x="296.263" stroke="black" stroke-width="1.6" fill="cornflowerblue"/>
<rect width="60" height="50" y="827.183" x="356.263" stroke="black" stroke-width="1.6" fill="cornflowerblue"/>
<rect width="60" height="50" y="827.183" x="416.263" stroke="black" stroke-width="1.6" fill="cornflowerblue"/>
<rect width="60" height="50" y="827.183" x="476.263" stroke="black" stroke-width="1.6" fill="cornflowerblue"/>
<rect width="60" height="50" y="827.183" x="536.263" stroke="black" stroke-width="1.6" fill="cornflowerblue"/>
<rect width="60" height="50" y="827.183" x="596.263" stroke="black" stroke-width="1.6" fill="cornflowerblue"/>
<rect width="60" height="50" y="827.183" x="656.263" stroke="black" stroke-width="1.6" fill="cornflowerblue"/>
<rect width="60" height="50" y="827.183" x="716.263" stroke="black" stroke-width="1.6" fill="cornflowerblue"/>
<rect width="60" height="50" y="827.183" x="776.263" stroke="black" stroke-width="1.6" fill="cornflowerblue"/>
<rect width="60" height="50" y="827.183" x="836.263" stroke="black" stroke-width="1.6" fill="cornflowerblue"/>
<rect width="60" height="50" y="827.183" x="896.263" stroke="black" stroke-width="1.6" fill="cornflowerblue"/>
<rect width="60" height="50" y="769.983" x="-101.904" stroke="black" stroke-width="1.6" fill="cornflowerblue"/>
<rect width="60" height="50" y="769.983" x="-41.9039" stroke="black" stroke-width="1.6" fill="cornflowerblue"/>
<rect width="60" height="50" y="769.983" x="18.0961" stroke="black" stroke-width="1.6" fill="cornflowerblue"/>
<rect width="60" height="50" y="769.983" x="78.0961" stroke="black" stroke-width="1.6" fill="cornflowerblue"/>
<rect width="60" height="50" y="769.983" x="138.096" stroke="black" stroke-width="1.6" fill="cornflowerblue"/>
<rect width="60" height="50" y="769.983" x="198.096" stroke="black" stroke-width="1.6" fill="cornflowerblue"/>
<rect width="60" height="50" y="769.983" x="258.096" stroke="black" stroke-width="1.6" fill="cornflowerblue"/>
<rect width="60" height="50" y="769.983" x="318.096" stroke="black" stroke-width="1.6" fill="cornflowerblue"/>
<rect width="60" height="50" y="769.983" x="378.096" stroke="black" stroke-width="1.6" fill="cornflowerblue"/>
<rect width="60" height="50" y="769.983" x="438.096" stroke="black" stroke-width="1.6" fill="cornflowerblue"/>
<rect width="60" height="50" y="769.983" x="498.096" stroke="black" stroke-width="1.6" fill="cornflowerblue"/>
<rect width="60" height="50" y="769.983" x="558.096" stroke="black" stroke-width="1.6" fill="cornflowerblue"/>
<rect width="60" height="50" y="769.983" x="618.096" stroke="black" stroke-width="1.6" fill="cornflowerblue"/>
<rect width="60" height="50" y="769.983" x="678.096" stroke="black" stroke-width="1.6" fill="cornflowerblue"/>
<rect width="60" height="50" y="769.983" x="738.096" stroke="black" stroke-width="1.6" fill="cornflowerblue"/>
<rect width="60" height="50" y="769.983" x="798.096" stroke="black" stroke-width="1.6" fill="cornflowerblue"/>
<rect width="60" height="50" y="769.983" x="858.096" stroke="black" stroke-width="1.6" fill="cornflowerblue"/>
<rect width="60" height="50" y="769.983" x="918.096" stroke="black" stroke-width="1.6" fill="cornflowerblue"/>
<rect width="60" height="50" y="769.983" x="978.096" stroke="black" stroke-width="1.6" fill="cornflowerblue"/>
<rect width="60" height="50" y="713.983" x="-131.289" stroke="black" stroke-width="1.6" fill="cornflowerblue"/>
<rect width="60" height="50" y="713.983" x="-71.2887" stroke="black" stroke-width="1.6" fill="cornflowerblue"/>
<rect width="60" height="50" y="713.983" x="-11.2887" stroke="black" stroke-width="1.6" fill="cornflowerblue"/>
<rect width="60" height="50" y="713.983" x="48.7113" stroke="black" stroke-width="1.6" fill="cornflowerblue"/>
<rect width="60" height="50" y="713.983" x="108.711" stroke="black" stroke-width="1.6" fill="cornflowerblue"/>
<rect width="60" height="50" y="713.983" x="168.711" stroke="black" stroke-width="1.6" fill="cornflowerblue"/>
<rect width="60" height="50" y="713.983" x="228.711" stroke="black" stroke-width="1.6" fill="cornflowerblue"/>
<rect width="60" height="50" y="713.983" x="288.711" stroke="black" stroke-width="1.6" fill="cornflowerblue"/>
<rect width="60" height="50" y="713.983" x="348.711" stroke="black" stroke-width="1.6" fill="cornflowerblue"/>
<rect width="60" height="50" y="713.983" x="408.711" stroke="black" stroke-width="1.6" fill="cornflowerblue"/>
<rect width="60" height="50" y="713.983" x="468.711" stroke="black" stroke-width="1.6" fill="cornflowerblue"/>
<rect width="60" height="50" y="713.983" x="528.711" stroke="black" stroke-width="1.6" fill="cornflowerblue"/>
<rect width="60" height="50" y="713.983" x="588.711" stroke="black" stroke-width="1.6" fill="cornflowerblue"/>
<rect width="60" height="50" y="713.983" x="648.711" stroke="black" stroke-width="1.6" fill="cornflowerblue"/>
<rect width="60" height="50" y="713.983" x="708.711" stroke="black" stroke-width="1.6" fill="cornflowerblue"/>
<rect width="60" height="50" y="713.983" x="768.711" stroke="black" stroke-width="1.6" fill="cornflowerblue"/>
<rect width="60" height="50" y="713.983" x="828.711" stroke="black" stroke-width="1.6" fill="cornflowerblue"/>
<rect width="60" height="50" y="713.983" x="888.711" stroke="black" stroke-width="1.6" fill="cornflowerblue"/>
<rect width="60" height="50" y="713.983" x="948.711" stroke="black" stroke-width="1.6" fill="cornflowerblue"/>
<rect width="60" height="50" y="713.983" x="1008.71" stroke="black" stroke-width="1.6" fill="cornflowerblue"/>
<rect width="60" height="50" y="659.183" x="-154.296" stroke="black" stroke-width="1.6" fill="cornflowerblue"/>
<rect width="60" height="50" y="659.183" x="-94.2962" stroke="black" stroke-width="1.6" fill="cornflowerblue"/>
<rect width="60" height="50" y="659.183" x="-34.2962" stroke="black" stroke-width="1.6" fill="cornflowerblue"/>
<rect width="60" height="50" y="659.183" x="25.7038" stroke="black" stroke-width="1.6" fill="cornflowerblue"/>
<rect width="60" height="50" y="659.183" x="85.7038" stroke="black" stroke-width="1.6" fill="cornflowerblue"/>
<rect width="60" height="50" y="659.183" x="145.704" stroke="black" stroke-width="1.6" fill="cornflowerblue"/>
<rect width="60" height="50" y="659.183" x="205.704" stroke="black" stroke-width="1.6" fill="cornflowerblue"/>
<rect width="60" height="50" y="659.183" x="265.704" stroke="black" stroke-width="1.6" fill="cornflowerblue"/>
<rect width="60" height="50" y="659.183" x="325.704" stroke="black" stroke-width="1.6" fill="cornflowerblue"/>
<rect width="60" height="50" y="659.183" x="385.704" stroke="black" stroke-width="1.6" fill="cornflowerblue"/>
<rect width="60" height="50" y="659.183" x="445.704" stroke="black" stroke-width="1.6" fill="cornflowerblue"/>
<rect width="60" height="50" y="659.183" x="505.704" stroke="black" stroke-width="1.6" fill="cornflowerblue"/>
<rect width="60" height="50" y="659.183" x="565.704" stroke="black" stroke-width="1.6" fill="cornflowerblue"/>
<rect width="60" height="50" y="659.183" x="625.704" stroke="black" stroke-width="1.6" fill="cornflowerblue"/>
<rect width="60" height="50" y="659.183" x="685.704" stroke="black" stroke-width="1.6" fill="cornflowerblue"/>
<rect width="60" height="50" y="659.183" x="745.704" stroke="black" stroke-width="1.6" fill="cornflowerblue"/>
<rect width="60" height="50" y="659.183" x="805.704" stroke="black" stroke-width="1.6" fill="cornflowerblue"/>
<rect width="60" height="50" y="659.183" x="865.704" stroke="black" stroke-width="1.6" fill="cornflowerblue"/>
<rect width="60" height="50" y="659.183" x="925.704" stroke="black" stroke-width="1.6" fill="cornflowerblue"/>
<rect width="60" height="50" y="659.183" x="985.704" stroke="black" stroke-width="1.6" fill="cornflowerblue"/>
<rect width="60" height="50" y="659.183" x="1045.7" stroke="black" stroke-width="1.6" fill="cornflowerblue"/>
<rect width="60" height="50" y="605.583" x="-171.784" stroke="black" stroke-width="1.6" fill="cornflowerblue"/>
<rect width="60" height="50" y="605.583" x="-111.784" stroke="black" stroke-width="1.6" fill="cornflowerblue"/>
<rect width="60" height="50" y="605.583" x="-51.7838" stroke="black" stroke-width="1.6" fill="cornflowerblue"/>
<rect width="60" height="50" y="605.583" x="8.2162" stroke="black" stroke-width="1.6" fill="cornflowerblue"/>
<rect width="60" height="50" y="605.583" x="68.2162" stroke="black" stroke-width="1.6" fill="cornflowerblue"/>
<rect width="60" height="50" y="605.583" x="128.216" stroke="black" stroke-width="1.6" fill="cornflowerblue"/>
<rect width="60" height="50" y="605.583" x="188.216" stroke="black" stroke-width="1.6" fill="cornflowerblue"/>
<rect width="60" height="50" y="605.583" x="248.216" stroke="black" stroke-width="1.6" fill="cornflowerblue"/>
<rect width="60" height="50" y="605.583" x="308.216" stroke="black" stroke-width="1.6" fill="cornflowerblue"/>
<rect width="60" height="50" y="605.583" x="368.216" stroke="black" stroke-width="1.6" fill="cornflowerblue"/>
<rect width="60" height="50" y="605.583" x="428.216" stroke="black" stroke-width="1.6" fill="cornflowerblue"/>
<rect width="60" height="50" y="605.583" x="488.216" stroke="black" stroke-width="1.6" fill="cornflowerblue"/>
<rect width="60" height="50" y="605.583" x="548.216" stroke="black" stroke-width="1.6" fill="cornflowerblue"/>
<rect width="60" height="50" y="605.583" x="608.216" stroke="black" stroke-width="1.6" fill="cornflowerblue"/>
<rect width="60" height="50" y="605.583" x="668.216" stroke="black" stroke-width="1.6" fill="cornflowerblue"/>
<rect width="60" height="50" y="605.583" x="728.216" stroke="black" stroke-width="1.6" fill="cornflowerblue"/>
<rect width="60" height="50" y="605.583" x="788.216" stroke="black" stroke-width="1.6" fill="cornflowerblue"/>
<rect width="60" height="50" y="605.583" x="848.216" stroke="black" stroke-width="1.6" fill="cornflowerblue"/>
<rect width="60" height="50" y="605.583" x="908.216" stroke="black" stroke-width="1.6" fill="cornflowerblue"/>
<rect width="60" height="50" y="605.583" x="968.216" stroke="black" stroke-width="1.6" fill="cornflowerblue"/>
<rect width="60" height="50" y="605.583" x="1028.22" stroke="black" stroke-width="1.6" fill="cornflowerblue"/>
<rect width="60" height="50" y="553.183" x="-184.381" stroke="black" stroke-width="1.6" fill="cornflowerblue"/>
<rect width="60" height="50" y="553.183" x="-124.381" stroke="black" stroke-width="1.6" fill="cornflowerblue"/>
<rect width="60" height="50" y="553.183" x="-64.3812" stroke="black" stroke-width="1.6" fill="cornflowerblue"/>
<rect width="60" height="50" y="553.183" x="-4.38124" stroke="black" stroke-width="1.6" fill="cornflowerblue"/>
<rect width="60" height="50" y="553.183" x="55.6188" stroke="black" stroke-width="1.6" fill="cornflowerblue"/>
<rect width="60" height="50" y="553.183" x="115.619" stroke="black" stroke-width="1.6" fill="cornflowerblue"/>
<rect width="60" height="50" y="553.183" x="175.619" stroke="black" stroke-width="1.6" fill="cornflowerblue"/>
<rect width="60" height="50" y="553.183" x="235.619" stroke="black" stroke-width="1.6" fill="cornflowerblue"/>
<rect width="60" height="50" y="553.183" x="295.619" stroke="black" stroke-width="1.6" fill="cornflowerblue"/>
<rect width="60" height="50" y="553.183" x="355.619" stroke="black" stroke-width="1.6" fill="cornflowerblue"/>
<rect width="60" height="50" y="553.183" x="415.619" stroke="black" stroke-width="1.6" fill="cornflowerblue"/>
<rect width="60" height="50" y="553.183" x="475.619" stroke="black" stroke-width="1.6" fill="cornflowerblue"/>
<rect width="60" height="50" y="553.183" x="535.619" stroke="black" stroke-width="1.6" fill="cornflowerblue"/>
<rect width="60" height="50" y="553.183" x="595.619" stroke="black" stroke-width="1.6" fill="cornflowerblue"/>
<rect width="60" height="50" y="553.183" x="655.619" stroke="black" stroke-width="1.6" fill="cornflowerblue"/>
<rect width="60" height="50" y="553.183" x="715.619" stroke="black" stroke-width="1.6" fill="cornflowerblue"/>
<rect width="60" height="50" y="553.183" x="775.619" stroke="black" stroke-width="1.6" fill="cornflowerblue"/>
<rect width="60" height="50" y="553.183" x="835.619" stroke="black" stroke-width="1.6" fill="cornflowerblue"/>
<rect width="60" height="50" y="553.183" x="895.619" stroke="black" stroke-width="1.6" fill="cornflowerblue"/>
<rect width="60" height="50" y="553.183" x="955.619" stroke="black" stroke-width="1.6" fill="cornflowerblue"/>
<rect width="60" height="50" y="553.183" x="1015.62" stroke="black" stroke-width="1.6" fill="cornflowerblue"/>
<rect width="60" height="50" y="553.183" x="1075.62" stroke="black" stroke-width="1.6" fill="cornflowerblue"/>
<rect width="60" height="50" y="501.983" x="-192.563" stroke="black" stroke-width="1.6" fill="cornflowerblue"/>
<rect width="60" height="50" y="501.983" x="-132.563" stroke="black" stroke-width="1.6" fill="cornflowerblue"/>
<rect width="60" height="50" y="501.983" x="-72.5632" stroke="black" stroke-width="1.6" fill="cornflowerblue"/>
<rect width="60" height="50" y="501.983" x="-12.5632" stroke="black" stroke-width="1.6" fill="cornflowerblue"/>
<rect width="60" height="50" y="501.983" x="47.4368" stroke="black" stroke-width="1.6" fill="cornflowerblue"/>
<rect width="60" height="50" y="501.983" x="107.437" stroke="black" stroke-width="1.6" fill="cornflowerblue"/>
<rect width="60" height="50" y="501.983" x="167.437" stroke="black" stroke-width="1.6" fill="cornflowerblue"/>
<rect width="60" height="50" y="501.983" x="227.437" stroke="black" stroke-width="1.6" fill="cornflowerblue"/>
<rect width="60" height="50" y="501.983" x="287.437" stroke="black" stroke-width="1.6" fill="cornflowerblue"/>
<rect width="60" height="50" y="501.983" x="347.437" stroke="black" stroke-width="1.6" fill="cornflowerblue"/>
<rect width="60" height="50" y="501.983" x="407.437" stroke="black" stroke-width="1.6" fill="cornflowerblue"/>
<rect width="60" height="50" y="501.983" x="467.437" stroke="black" stroke-width="1.6" fill="cornflowerblue"/>
<rect width="60" height="50" y="501.983" x="527.437" stroke="black" stroke-width="1.6" fill="cornflowerblue"/>
<rect width="60" height="50" y="501.983" x="587.437" stroke="black" stroke-width="1.6" fill="cornflowerblue"/>
<rect width="60" height="50" y="501.983" x="647.437" stroke="black" stroke-width="1.6" fill="cornflowerblue"/>
<rect width="60" height="50" y="501.983" x="707.437" stroke="black" stroke-width="1.6" fill="cornflowerblue"/>
<rect width="60" height="50" y="501.983" x="767.437" stroke="black" stroke-width="1.6" fill="cornflowerblue"/>
<rect width="60" height="50" y="501.983" x="827.437" stroke="black" stroke-width="1.6" fill="cornflowerblue"/>
<rect width="60" height="50" y="501.983" x="887.437" stroke="black" stroke-width="1.6" fill="cornflowerblue"/>
<rect width="60" height="50" y="501.983" x="947.437" stroke="black" stroke-width="1.6" fill="cornflowerblue"/>
<rect width="60" height="50" y="501.983" x="1007.44" stroke="black" stroke-width="1.6" fill="cornflowerblue"/>
<rect width="60" height="50" y="501.983" x="1067.44" stroke="black" stroke-width="1.6" fill="cornflowerblue"/>
<rect width="60" height="50" y="451.683" x="-195.693" stroke="black" stroke-width="1.6" fill="cornflowerblue"/>
<rect width="60" height="50" y="451.683" x="-135.693" stroke="black" stroke-width="1.6" fill="cornflowerblue"/>
<rect width="60" height="50" y="451.683" x="-75.6926" stroke="black" stroke-width="1.6" fill="cornflowerblue"/>
<rect width="60" height="50" y="451.683" x="-15.6926" stroke="black" stroke-width="1.6" fill="cornflowerblue"/>
<rect width="60" height="50" y="451.683" x="44.3074" stroke="black" stroke-width="1.6" fill="cornflowerblue"/>
<rect width="60" height="50" y="451.683" x="104.307" stroke="black" stroke-width="1.6" fill="cornflowerblue"/>
<rect width="60" height="50" y="451.683" x="164.307" stroke="black" stroke-width="1.6" fill="cornflowerblue"/>
<rect width="60" height="50" y="451.683" x="224.307" stroke="black" stroke-width="1.6" fill="cornflowerblue"/>
<rect width="60" height="50" y="451.683" x="284.307" stroke="black" stroke-width="1.6" fill="cornflowerblue"/>
<rect width="60" height="50" y="451.683" x="344.307" stroke="black" stroke-width="1.6" fill="cornflowerblue"/>
<rect width="60" height="50" y="451.683" x="404.307" stroke="black" stroke-width="1.6" fill="cornflowerblue"/>
<rect width="60" height="50" y="451.683" x="464.307" stroke="black" stroke-width="1.6" fill="cornflowerblue"/>
<rect width="60" height="50" y="451.683" x="524.307" stroke="black" stroke-width="1.6" fill="cornflowerblue"/>
<rect width="60" height="50" y="451.683" x="584.307" stroke="black" stroke-width="1.6" fill="cornflowerblue"/>
<rect width="60" height="50" y="451.683" x="644.307" stroke="black" stroke-width="1.6" fill="cornflowerblue"/>
<rect width="60" height="50" y="451.683" x="704.307" stroke="black" stroke-width="1.6" fill="cornflowerblue"/>
<rect width="60" height="50" y="451.683" x="764.307" stroke="black" stroke-width="1.6" fill="cornflowerblue"/>
<rect width="60" height="50" y="451.683" x="824.307" stroke="black" stroke-width="1.6" fill="cornflowerblue"/>
<rect width="60" height="50" y="451.683" x="884.307" stroke="black" stroke-width="1.6" fill="cornflowerblue"/>
<rect width="60" height="50" y="451.683" x="944.307" stroke="black" stroke-width="1.6" fill="cornflowerblue"/>
<rect width="60" height="50" y="451.683" x="1004.31" stroke="black" stroke-width="1.6" fill="cornflowerblue"/>
<rect width="60" height="50" y="451.683" x="1064.31" stroke="black" stroke-width="1.6" fill="cornflowerblue"/>
<rect width="60" height="50" y="401.683" x="-193.014" stroke="black" stroke-width="1.6" fill="cornflowerblue"/>
<rect width="60" height="50" y="401.683" x="-133.014" stroke="black" stroke-width="1.6" fill="cornflowerblue"/>
<rect width="60" height="50" y="401.683" x="-73.0143" stroke="black" stroke-width="1.6" fill="cornflowerblue"/>
<rect width="60" height="50" y="401.683" x="-13.0143" stroke="black" stroke-width="1.6" fill="cornflowerblue"/>
<rect width="60" height="50" y="401.683" x="46.9857" stroke="black" stroke-width="1.6" fill="cornflowerblue"/>
<rect width="60" height="50" y="401.683" x="106.986" stroke="black" stroke-width="1.6" fill="cornflowerblue"/>
<rect width="60" height="50" y="401.683" x="166.986" stroke="black" stroke-width="1.6" fill="cornflowerblue"/>
<rect width="60" height="50" y="401.683" x="226.986" stroke="black" stroke-width="1.6" fill="cornflowerblue"/>
<rect width="60" height="50" y="401.683" x="286.986" stroke="black" stroke-width="1.6" fill="cornflowerblue"/>
<rect width="60" height="50" y="401.683" x="346.986" stroke="black" stroke-width="1.6" fill="cornflowerblue"/>
<rect width="60" height="50" y="401.683" x="406.986" stroke="black" stroke-width="1.6" fill="cornflowerblue"/>
<rect width="60" height="50" y="401.683" x="466.986" stroke="black" stroke-width="1.6" fill="cornflowerblue"/>
<rect width="60" height="50" y="401.683" x="526.986" stroke="black" stroke-width="1.6" fill="cornflowerblue"/>
<rect width="60" height="50" y="401.683" x="586.986" stroke="black" stroke-width="1.6" fill="cornflowerblue"/>
<rect width="60" height="50" y="401.683" x="646.986" stroke="black" stroke-width="1.6" fill="cornflowerblue"/>
<rect width="60" height="50" y="401.683" x="706.986" stroke="black" stroke-width="1.6" fill="cornflowerblue"/>
<rect width="60" height="50" y="401.683" x="766.986" stroke="black" stroke-width="1.6" fill="cornflowerblue"/>
<rect width="60" height="50" y="401.683" x="826.986" stroke="black" stroke-width="1.6" fill="cornflowerblue"/>
<rect width="60" height="50" y="401.683" x="886.986" stroke="black" stroke-width="1.6" fill="cornflowerblue"/>
<rect width="60" height="50" y="401.683" x="946.986" stroke="black" stroke-width="1.6" fill="cornflowerblue"/>
<rect width="60" height="50" y="401.683" x="1006.99" stroke="black" stroke-width="1.6" fill="cornflowerblue"/>
<rect width="60" height="50" y="401.683" x="1066.99" stroke="black" stroke-width="1.6" fill="cornflowerblue"/>
<rect width="60" height="50" y="351.683" x="-185.558" stroke="black" stroke-width="1.6" fill="cornflowerblue"/>
<rect width="60" height="50" y="351.683" x="-125.558" stroke="black" stroke-width="1.6" fill="cornflowerblue"/>
<rect width="60" height="50" y="351.683" x="-65.5575" stroke="black" stroke-width="1.6" fill="cornflowerblue"/>
<rect width="60" height="50" y="351.683" x="-5.5575" stroke="black" stroke-width="1.6" fill="cornflowerblue"/>
<rect width="60" height="50" y="351.683" x="54.4425" stroke="black" stroke-width="1.6" fill="cornflowerblue"/>
<rect width="60" height="50" y="351.683" x="114.442" stroke="black" stroke-width="1.6" fill="cornflowerblue"/>
<rect width="60" height="50" y="351.683" x="174.442" stroke="black" stroke-width="1.6" fill="cornflowerblue"/>
<rect width="60" height="50" y="351.683" x="234.442" stroke="black" stroke-width="1.6" fill="cornflowerblue"/>
<rect width="60" height="50" y="351.683" x="294.442" stroke="black" stroke-width="1.6" fill="cornflowerblue"/>
<rect width="60" height="50" y="351.683" x="354.442" stroke="black" stroke-width="1.6" fill="cornflowerblue"/>
<rect width="60" height="50" y="351.683" x="414.442" stroke="black" stroke-width="1.6" fill="cornflowerblue"/>
<rect width="60" height="50" y="351.683" x="474.442" stroke="black" stroke-width="1.6" fill="cornflowerblue"/>
<rect width="60" height="50" y="351.683" x="534.442" stroke="black" stroke-width="1.6" fill="cornflowerblue"/>
<rect width="60" height="50" y="351.683" x="594.442" stroke="black" stroke-width="1.6" fill="cornflowerblue"/>
<rect width="60" height="50" y="351.683" x="654.442" stroke="black" stroke-width="1.6" fill="cornflowerblue"/>
<rect width="60" height="50" y="351.683" x="714.442" stroke="black" stroke-width="1.6" fill="cornflowerblue"/>
<rect width="60" height="50" y="351.683" x="774.442" stroke="black" stroke-width="1.6" fill="cornflowerblue"/>
<rect width="60" height="50" y="351.683" x="834.442" stroke="black" stroke-width="1.6" fill="cornflowerblue"/>
<rect width="60" height="50" y="351.683" x="894.442" stroke="black" stroke-width="1.6" fill="cornflowerblue"/>
<rect width="60" height="50" y="351.683" x="954.442" stroke="black" stroke-width="1.6" fill="cornflowerblue"/>
<rect width="60" height="50" y="351.683" x="1014.44" stroke="black" stroke-width="1.6" fill="cornflowerblue"/>
<rect width="60" height="50" y="351.683" x="1074.44" stroke="black" stroke-width="1.6" fill="cornflowerblue"/>
<rect width="60" height="50" y="301.683" x="-174.181" stroke="black" stroke-width="1.6" fill="cornflowerblue"/>
<rect width="60" height="50" y="301.683" x="-114.181" stroke="black" stroke-width="1.6" fill="cornflowerblue"/>
<rect width="60" height="50" y="301.683" x="-54.1813" stroke="black" stroke-width="1.6" fill="cornflowerblue"/>
<rect width="60" height="50" y="301.683" x="5.81874" stroke="black" stroke-width="1.6" fill="cornflowerblue"/>
<rect width="60" height="50" y="301.683" x="65.8187" stroke="black" stroke-width="1.6" fill="cornflowerblue"/>
<rect width="60" height="50" y="301.683" x="125.819" stroke="black" stroke-width="1.6" fill="cornflowerblue"/>
<rect width="60" height="50" y="301.683" x="185.819" stroke="black" stroke-width="1.6" fill="cornflowerblue"/>
<rect width="60" height="50" y="301.683" x="245.819" stroke="black" stroke-width="1.6" fill="cornflowerblue"/>
<rect width="60" height="50" y="301.683" x="305.819" stroke="black" stroke-width="1.6" fill="cornflowerblue"/>
<rect width="60" height="50" y="301.683" x="365.819" stroke="black" stroke-width="1.6" fill="cornflowerblue"/>
<rect width="60" height="50" y="301.683" x="425.819" stroke="black" stroke-width="1.6" fill="cornflowerblue"/>
<rect width="60" height="50" y="301.683" x="485.819" stroke="black" stroke-width="1.6" fill="cornflowerblue"/>
<rect width="60" height="50" y="301.683" x="545.819" stroke="black" stroke-width="1.6" fill="cornflowerblue"/>
<rect width="60" height="50" y="301.683" x="605.819" stroke="black" stroke-width="1.6" fill="cornflowerblue"/>
<rect width="60" height="50" y="301.683" x="665.819" stroke="black" stroke-width="1.6" fill="cornflowerblue"/>
<rect width="60" height="50" y="301.683" x="725.819" stroke="black" stroke-width="1.6" fill="cornflowerblue"/>
<rect width="60" height="50" y="301.683" x="785.819" stroke="black" stroke-width="1.6" fill="cornflowerblue"/>
<rect width="60" height="50" y="301.683" x="845.819" stroke="black" stroke-width="1.6" fill="cornflowerblue"/>
<rect width="60" height="50" y="301.683" x="905.819" stroke="black" stroke-width="1.6" fill="cornflowerblue"/>
<rect width="60" height="50" y="301.683" x="965.819" stroke="black" stroke-width="1.6" fill="cornflowerblue"/>
<rect width="60" height="50" y="301.683" x="1025.82" stroke="black" stroke-width="1.6" fill="cornflowerblue"/>
<rect width="60" height="50" y="251.683" x="-158.675" stroke="black" stroke-width="1.6" fill="cornflowerblue"/>
<rect width="60" height="50" y="251.683" x="-98.6747" stroke="black" stroke-width="1.6" fill="cornflowerblue"/>
<rect width="60" height="50" y="251.683" x="-38.6747" stroke="black" stroke-width="1.6" fill="cornflowerblue"/>
<rect width="60" height="50" y="251.683" x="21.3253" stroke="black" stroke-width="1.6" fill="cornflowerblue"/>
<rect width="60" height="50" y="251.683" x="81.3253" stroke="black" stroke-width="1.6" fill="cornflowerblue"/>
<rect width="60" height="50" y="251.683" x="141.325" stroke="black" stroke-width="1.6" fill="cornflowerblue"/>
<rect width="60" height="50" y="251.683" x="201.325" stroke="black" stroke-width="1.6" fill="cornflowerblue"/>
<rect width="60" height="50" y="251.683" x="261.325" stroke="black" stroke-width="1.6" fill="cornflowerblue"/>
<rect width="60" height="50" y="251.683" x="321.325" stroke="black" stroke-width="1.6" fill="cornflowerblue"/>
<rect width="60" height="50" y="251.683" x="381.325" stroke="black" stroke-width="1.6" fill="cornflowerblue"/>
<rect width="60" height="50" y="251.683" x="441.325" stroke="black" stroke-width="1.6" fill="cornflowerblue"/>
<rect width="60" height="50" y="251.683" x="501.325" stroke="black" stroke-width="1.6" fill="cornflowerblue"/>
<rect width="60" height="50" y="251.683" x="561.325" stroke="black" stroke-width="1.6" fill="cornflowerblue"/>
<rect width="60" height="50" y="251.683" x="621.325" stroke="black" stroke-width="1.6" fill="cornflowerblue"/>
<rect width="60" height="50" y="251.683" x="681.325" stroke="black" stroke-width="1.6" fill="cornflowerblue"/>
<rect width="60" height="50" y="251.683" x="741.325" stroke="black" stroke-width="1.6" fill="cornflowerblue"/>
<rect width="60" height="50" y="251.683" x="801.325" stroke="black" stroke-width="1.6" fill="cornflowerblue"/>
<rect width="60" height="50" y="251.683" x="861.325" stroke="black" stroke-width="1.6" fill="cornflowerblue"/>
<rect width="60" height="50" y="251.683" x="921.325" stroke="black" stroke-width="1.6" fill="cornflowerblue"/>
<rect width="60" height="50" y="251.683" x="981.325" stroke="black" stroke-width="1.6" fill="cornflowerblue"/>
<rect width="60" height="50" y="251.683" x="1041.33" stroke="black" stroke-width="1.6" fill="cornflowerblue"/>
<rect width="60" height="50" y="201.683" x="-138.725" stroke="black" stroke-width="1.6" fill="cornflowerblue"/>
<rect width="60" height="50" y="201.683" x="-78.7254" stroke="black" stroke-width="1.6" fill="cornflowerblue"/>
<rect width="60" height="50" y="201.683" x="-18.7254" stroke="black" stroke-width="1.6" fill="cornflowerblue"/>
<rect width="60" height="50" y="201.683" x="41.2746" stroke="black" stroke-width="1.6" fill="cornflowerblue"/>
<rect width="60" height="50" y="201.683" x="101.275" stroke="black" stroke-width="1.6" fill="cornflowerblue"/>
<rect width="60" height="50" y="201.683" x="161.275" stroke="black" stroke-width="1.6" fill="cornflowerblue"/>
<rect width="60" height="50" y="201.683" x="221.275" stroke="black" stroke-width="1.6" fill="cornflowerblue"/>
<rect width="60" height="50" y="201.683" x="281.275" stroke="black" stroke-width="1.6" fill="cornflowerblue"/>
<rect width="60" height="50" y="201.683" x="341.275" stroke="black" stroke-width="1.6" fill="cornflowerblue"/>
<rect width="60" height="50" y="201.683" x="401.275" stroke="black" stroke-width="1.6" fill="cornflowerblue"/>
<rect width="60" height="50" y="201.683" x="461.275" stroke="black" stroke-width="1.6" fill="cornflowerblue"/>
<rect width="60" height="50" y="201.683" x="521.275" stroke="black" stroke-width="1.6" fill="cornflowerblue"/>
<rect width="60" height="50" y="201.683" x="581.275" stroke="black" stroke-width="1.6" fill="cornflowerblue"/>
<rect width="60" height="50" y="201.683" x="641.275" stroke="black" stroke-width="1.6" fill="cornflowerblue"/>
<rect width="60" height="50" y="201.683" x="701.275" stroke="black" stroke-width="1.6" fill="cornflowerblue"/>
<rect width="60" height="50" y="201.683" x="761.275" stroke="black" stroke-width="1.6" fill="cornflowerblue"/>
<rect width="60" height="50" y="201.683" x="821.275" stroke="black" stroke-width="1.6" fill="cornflowerblue"/>
<rect width="60" height="50" y="201.683" x="881.275" stroke="black" stroke-width="1.6" fill="cornflowerblue"/>
<rect width="60" height="50" y="201.683" x="941.275" stroke="black" stroke-width="1.6" fill="cornflowerblue"/>
<rect width="60" height="50" y="201.683" x="1001.27" stroke="black" stroke-width="1.6" fill="cornflowerblue"/>
<rect width="60" height="50" y="151.683" x="-113.883" stroke="black" stroke-width="1.6" fill="cornflowerblue"/>
<rect width="60" height="50" y="151.683" x="-53.8826" stroke="black" stroke-width="1.6" fill="cornflowerblue"/>
<rect width="60" height="50" y="151.683" x="6.11735" stroke="black" stroke-width="1.6" fill="cornflowerblue"/>
<rect width="60" height="50" y="151.683" x="66.1174" stroke="black" stroke-width="1.6" fill="cornflowerblue"/>
<rect width="60" height="50" y="151.683" x="126.117" stroke="black" stroke-width="1.6" fill="cornflowerblue"/>
<rect width="60" height="50" y="151.683" x="186.117" stroke="black" stroke-width="1.6" fill="cornflowerblue"/>
<rect width="60" height="50" y="151.683" x="246.117" stroke="black" stroke-width="1.6" fill="cornflowerblue"/>
<rect width="60" height="50" y="151.683" x="306.117" stroke="black" stroke-width="1.6" fill="cornflowerblue"/>
<rect width="60" height="50" y="151.683" x="366.117" stroke="black" stroke-width="1.6" fill="cornflowerblue"/>
<rect width="60" height="50" y="151.683" x="426.117" stroke="black" stroke-width="1.6" fill="cornflowerblue"/>
<rect width="60" height="50" y="151.683" x="486.117" stroke="black" stroke-width="1.6" fill="cornflowerblue"/>
<rect width="60" height="50" y="151.683" x="546.117" stroke="black" stroke-width="1.6" fill="cornflowerblue"/>
<rect width="60" height="50" y="151.683" x="606.117" stroke="black" stroke-width="1.6" fill="cornflowerblue"/>
<rect width="60" height="50" y="151.683" x="666.117" stroke="black" stroke-width="1.6" fill="cornflowerblue"/>
<rect width="60" height="50" y="151.683" x="726.117" stroke="black" stroke-width="1.6" fill="cornflowerblue"/>
<rect width="60" height="50" y="151.683" x="786.117" stroke="black" stroke-width="1.6" fill="cornflowerblue"/>
<rect width="60" height="50" y="151.683" x="846.117" stroke="black" stroke-width="1.6" fill="cornflowerblue"/>
<rect width="60" height="50" y="151.683" x="906.117" stroke="black" stroke-width="1.6" fill="cornflowerblue"/>
<rect width="60" height="50" y="151.683" x="966.117" stroke="black" stroke-width="1.6" fill="cornflowerblue"/>
<rect width="60" height="50" y="101.683" x="-83.4948" stroke="black" stroke-width="1.6" fill="cornflowerblue"/>
<rect width="60" height="50" y="101.683" x="-23.4948" stroke="black" stroke-width="1.6" fill="cornflowerblue"/>
<rect width="60" height="50" y="101.683" x="36.5052" stroke="black" stroke-width="1.6" fill="cornflowerblue"/>
<rect width="60" height="50" y="101.683" x="96.5052" stroke="black" stroke-width="1.6" fill="cornflowerblue"/>
<rect width="60" height="50" y="101.683" x="156.505" stroke="black" stroke-width="1.6" fill="cornflowerblue"/>
<rect width="60" height="50" y="101.683" x="216.505" stroke="black" stroke-width="1.6" fill="cornflowerblue"/>
<rect width="60" height="50" y="101.683" x="276.505" stroke="black" stroke-width="1.6" fill="cornflowerblue"/>
<rect width="60" height="50" y="101.683" x="336.505" stroke="black" stroke-width="1.6" fill="cornflowerblue"/>
<rect width="60" height="50" y="101.683" x="396.505" stroke="black" stroke-width="1.6" fill="cornflowerblue"/>
<rect width="60" height="50" y="101.683" x="456.505" stroke="black" stroke-width="1.6" fill="cornflowerblue"/>
<rect width="60" height="50" y="101.683" x="516.505" stroke="black" stroke-width="1.6" fill="cornflowerblue"/>
<rect width="60" height="50" y="101.683" x="576.505" stroke="black" stroke-width="1.6" fill="cornflowerblue"/>
<rect width="60" height="50" y="101.683" x="636.505" stroke="black" stroke-width="1.6" fill="cornflowerblue"/>
<rect width="60" height="50" y="101.683" x="696.505" stroke="black" stroke-width="1.6" fill="cornflowerblue"/>
<rect width="60" height="50" y="101.683" x="756.505" stroke="black" stroke-width="1.6" fill="cornflowerblue"/>
<rect width="60" height="50" y="101.683" x="816.505" stroke="black" stroke-width="1.6" fill="cornflowerblue"/>
<rect width="60" height="50" y="101.683" x="876.505" stroke="black" stroke-width="1.6" fill="cornflowerblue"/>
<rect width="60" height="50" y="101.683" x="936.505" stroke="black" stroke-width="1.6" fill="cornflowerblue"/>
<rect width="60" height="50" y="51.6829" x="-46.5952" stroke="black" stroke-width="1.6" fill="cornflowerblue"/>
<rect width="60" height="50" y="51.6829" x="13.4048" stroke="black" stroke-width="1.6" fill="cornflowerblue"/>
<rect width="60" height="50" y="51.6829" x="73.4048" stroke="black" stroke-width="1.6" fill="cornflowerblue"/>
<rect width="60" height="50" y="51.6829" x="133.405" stroke="black" stroke-width="1.6" fill="cornflowerblue"/>
<rect width="60" height="50" y="51.6829" x="193.405" stroke="black" stroke-width="1.6" fill="cornflowerblue"/>
<rect width="60" height="50" y="51.6829" x="253.405" stroke="black" stroke-width="1.6" fill="cornflowerblue"/>
<rect width="60" height="50" y="51.6829" x="313.405" stroke="black" stroke-width="1.6" fill="cornflowerblue"/>
<rect width="60" height="50" y="51.6829" x="373.405" stroke="black" stroke-width="1.6" fill="cornflowerblue"/>
<rect width="60" height="50" y="51.6829" x="433.405" stroke="black" stroke-width="1.6" fill="cornflowerblue"/>
<rect width="60" height="50" y="51.6829" x="493.405" stroke="black" stroke-width="1.6" fill="cornflowerblue"/>
<rect width="60" height="50" y="51.6829" x="553.405" stroke="black" stroke-width="1.6" fill="cornflowerblue"/>
<rect width="60" height="50" y="51.6829" x="613.405" stroke="black" stroke-width="1.6" fill="cornflowerblue"/>
<rect width="60" height="50" y="51.6829" x="673.405" stroke="black" stroke-width="1.6" fill="cornflowerblue"/>
<rect width="60" height="50" y="51.6829" x="733.405" stroke="black" stroke-width="1.6" fill="cornflowerblue"/>
<rect width="60" height="50" y="51.6829" x="793.405" stroke="black" stroke-width="1.6" fill="cornflowerblue"/>
<rect width="60" height="50" y="51.6829" x="853.405" stroke="black" stroke-width="1.6" fill="cornflowerblue"/>
<rect width="60" height="50" y="51.6829" x="913.405" stroke="black" stroke-width="1.6" fill="cornflowerblue"/>
<rect width="60" height="50" y="1.68286" x="-1.67693" stroke="black" stroke-width="1.6" fill="cornflowerblue"/>
<rect width="60" height="50" y="1.68286" x="58.3231" stroke="black" stroke-width="1.6" fill="cornflowerblue"/>
<rect width="60" height="50" y="1.68286" x="118.323" stroke="black" stroke-width="1.6" fill="cornflowerblue"/>
<rect width="60" height="50" y="1.68286" x="178.323" stroke="black" stroke-width="1.6" fill="cornflowerblue"/>
<rect width="60" height="50" y="1.68286" x="238.323" stroke="black" stroke-width="1.6" fill="cornflowerblue"/>
<rect width="60" height="50" y="1.68286" x="298.323" stroke="black" stroke-width="1.6" fill="cornflowerblue"/>
<rect width="60" height="50" y="1.68286" x="358.323" stroke="black" stroke-width="1.6" fill="cornflowerblue"/>
<rect width="60" height="50" y="1.68286" x="418.323" stroke="black" stroke-width="1.6" fill="cornflowerblue"/>
<rect width="60" height="50" y="1.68286" x="478.323" stroke="black" stroke-width="1.6" fill="cornflowerblue"/>
<rect width="60" height="50" y="1.68286" x="538.323" stroke="black" stroke-width="1.6" fill="cornflowerblue"/>
<rect width="60" height="50" y="1.68286" x="598.323" stroke="black" stroke-width="1.6" fill="cornflowerblue"/>
<rect width="60" height="50" y="1.68286" x="658.323" stroke="black" stroke-width="1.6" fill="cornflowerblue"/>
<rect width="60" height="50" y="1.68286" x="718.323" stroke="black" stroke-width="1.6" fill="cornflowerblue"/>
<rect width="60" height="50" y="1.68286" x="778.323" stroke="black" stroke-width="1.6" fill="cornflowerblue"/>
<rect width="60" height="50" y="1.68286" x="838.323" stroke="black" stroke-width="1.6" fill="cornflowerblue"/>
<rect width="60" height="50" y="-48.3171" x="53.8125" stroke="black" stroke-width="1.6" fill="cornflowerblue"/>
<rect width="60" height="50" y="-48.3171" x="113.813" stroke="black" stroke-width="1.6" fill="cornflowerblue"/>
<rect width="60" height="50" y="-48.3171" x="173.813" stroke="black" stroke-width="1.6" fill="cornflowerblue"/>
<rect width="60" height="50" y="-48.3171" x="233.813" stroke="black" stroke-width="1.6" fill="cornflowerblue"/>
<rect width="60" height="50" y="-48.3171" x="293.813" stroke="black" stroke-width="1.6" fill="cornflowerblue"/>
<rect width="60" height="50" y="-48.3171" x="353.813" stroke="black" stroke-width="1.6" fill="cornflowerblue"/>
<rect width="60" height="50" y="-48.3171" x="413.813" stroke="black" stroke-width="1.6" fill="cornflowerblue"/>
<rect width="60" height="50" y="-48.3171" x="473.813" stroke="black" stroke-width="1.6" fill="cornflowerblue"/>
<rect width="60" height="50" y="-48.3171" x="533.813" stroke="black" stroke-width="1.6" fill="cornflowerblue"/>
<rect width="60" height="50" y="-48.3171" x="593.813" stroke="black" stroke-width="1.6" fill="cornflowerblue"/>
<rect width="60" height="50" y="-48.3171" x="653.813" stroke="black" stroke-width="1.6" fill="cornflowerblue"/>
<rect width="60" height="50" y="-48.3171" x="713.813" stroke="black" stroke-width="1.6" fill="cornflowerblue"/>
<rect width="60" height="50" y="-48.3171" x="773.813" stroke="black" stroke-width="1.6" fill="cornflowerblue"/>
<rect width="60" height="50" y="-48.3171" x="833.813" stroke="black" stroke-width="1.6" fill="cornflowerblue"/>
<rect width="60" height="50" y="-98.3171" x="124.851" stroke="black" stroke-width="1.6" fill="cornflowerblue"/>
<rect width="60" height="50" y="-98.3171" x="184.851" stroke="black" stroke-width="1.6" fill="cornflowerblue"/>
<rect width="60" height="50" y="-98.3171" x="244.851" stroke="black" stroke-width="1.6" fill="cornflowerblue"/>
<rect width="60" height="50" y="-98.3171" x="304.851" stroke="black" stroke-width="1.6" fill="cornflowerblue"/>
<rect width="60" height="50" y="-98.3171" x="364.851" stroke="black" stroke-width="1.6" fill="cornflowerblue"/>
<rect width="60" height="50" y="-98.3171" x="424.851" stroke="black" stroke-width="1.6" fill="cornflowerblue"/>
<rect width="60" height="50" y="-98.3171" x="484.851" stroke="black" stroke-width="1.6" fill="cornflowerblue"/>
<rect width="60" height="50" y="-98.3171" x="544.851" stroke="black" stroke-width="1.6" fill="cornflowerblue"/>
<rect width="60" height="50" y="-98.3171" x="604.851" stroke="black" stroke-width="1.6" fill="cornflowerblue"/>
<rect width="60" height="50" y="-98.3171" x="664.851" stroke="black" stroke-width="1.6" fill="cornflowerblue"/>
<rect width="60" height="50" y="-98.3171" x="724.851" stroke="black" stroke-width="1.6" fill="cornflowerblue"/>
<rect width="60" height="50" y="-148.317" x="224.281" stroke="black" stroke-width="1.6" fill="cornflowerblue"/>
<rect width="60" height="50" y="-148.317" x="284.281" stroke="black" stroke-width="1.6" fill="cornflowerblue"/>
<rect width="60" height="50" y="-148.317" x="344.281" stroke="black" stroke-width="1.6" fill="cornflowerblue"/>
<rect width="60" height="50" y="-148.317" x="404.281" stroke="black" stroke-width="1.6" fill="cornflowerblue"/>
<rect width="60" height="50" y="-148.317" x="464.281" stroke="black" stroke-width="1.6" fill="cornflowerblue"/>
<rect width="60" height="50" y="-148.317" x="524.281" stroke="black" stroke-width="1.6" fill="cornflowerblue"/>
<rect width="60" height="50" y="-148.317" x="584.281" stroke="black" stroke-width="1.6" fill="cornflowerblue"/>
<rect width="60" height="50" y="-148.317" x="644.281" stroke="black" stroke-width="1.6" fill="cornflowerblue"/>
</svg>