<svg version="1.1"
baseProfile="full"
width="823" height="823"
 xmlns="http://www.w3.org/2000/svg">
<polygon points="361.5,0 0,626.136 723,626.136" style="fill:white;stroke:black;stroke-width:1.6" 
/>
<rect width="40" height="30" y="596.136" x="17.6471" stroke="black" stroke-width="1.6" fill="cornflowerblue"/>
<rect width="40" height="30" y="596.136" x="57.6471" stroke="black" stroke-width="1.6" fill="cornflowerblue"/>
<rect width="40" height="30" y="596.136" x="97.6471" stroke="black" stroke-width="1.6" fill="cornflowerblue"/>
<rect width="40" height="30" y="596.136" x="137.647" stroke="black" stroke-width="1.6" fill="cornflowerblue"/>
<rect width="40" height="30" y="596.136" x="177.647" stroke="black" stroke-width="1.6" fill="cornflowerblue"/>
<rect width="40" height="30" y="596.136" x="217.647" stroke="black" stroke-width="1.6" fill="cornflowerblue"/>
<rect width="40" height="30" y="596.136" x="257.647" stroke="black" stroke-width="1.6" fill="cornflowerblue"/>
<rect width="40" height="30" y="596.136" x="297.647" stroke="black" stroke-width="1.6" fill="cornflowerblue"/>
<rect width="40" height="30" y="596.136" x="337.647" stroke="black" stroke-width="1.6" fill="cornflowerblue"/>
<rect width="40" height="30" y="596.136" x="377.647" stroke="black" stroke-width="1.6" fill="cornflowerblue"/>
<rect width="40" height="30" y="596.136" x="417.647" stroke="black" stroke-width="1.6" fill="cornflowerblue"/>
<rect width="40" height="30" y="596.136" x="457.647" stroke="black" stroke-width="1.6" fill="cornflowerblue"/>
<rect width="40" height="30" y="596.136" x="497.647" stroke="black" stroke-width="1.6" fill="cornflowerblue"/>
<rect width="40" height="30" y="596.136" x="537.647" stroke="black" stroke-width="1.6" fill="cornflowerblue"/>
<rect width="40" height="30" y="596.136" x="577.647" stroke="black" stroke-width="1.6" fill="cornflowerblue"/>
<rect width="40" height="30" y="596.136" x="617.647" stroke="black" stroke-width="1.6" fill="cornflowerblue"/>
<rect width="40" height="30" y="596.136" x="657.647" stroke="black" stroke-width="1.6" fill="cornflowerblue"/>
<rect width="40" height="30" y="566.136" x="35.2941" stroke="black" stroke-width="1.6" fill="cornflowerblue"/>
<rect width="40" height="30" y="566.136" x="75.2941" stroke="black" stroke-width="1.6" fill="cornflowerblue"/>
<rect width="40" height="30" y="566.136" x="115.294" stroke="black" stroke-width="1.6" fill="cornflowerblue"/>
<rect width="40" height="30" y="566.136" x="155.294" stroke="black" stroke-width="1.6" fill="cornflowerblue"/>
<rect width="40" height="30" y="566.136" x="195.294" stroke="black" stroke-width="1.6" fill="cornflowerblue"/>
<rect width="40" height="30" y="566.136" x="235.294" stroke="black" stroke-width="1.6" fill="cornflowerblue"/>
<rect width="40" height="30" y="566.136" x="275.294" stroke="black" stroke-width="1.6" fill="cornflowerblue"/>
<rect width="40" height="30" y="566.136" x="315.294" stroke="black" stroke-width="1.6" fill="cornflowerblue"/>
<rect width="40" height="30" y="566.136" x="355.294" stroke="black" stroke-width="1.6" fill="cornflowerblue"/>
<rect width="40" height="30" y="566.136" x="395.294" stroke="black" stroke-width="1.6" fill="cornflowerblue"/>
<rect width="40" height="30" y="566.136" x="435.294" stroke="black" stroke-width="1.6" fill="cornflowerblue"/>
<rect width="40" height="30" y="566.136" x="475.294" stroke="black" stroke-width="1.6" fill="cornflowerblue"/>
<rect width="40" height="30" y="566.136" x="515.294" stroke="black" stroke-width="1.6" fill="cornflowerblue"/>
<rect width="40" height="30" y="566.136" x="555.294" stroke="black" stroke-width="1.6" fill="cornflowerblue"/>
<rect width="40" height="30" y="566.136" x="595.294" stroke="black" stroke-width="1.6" fill="cornflowerblue"/>
<rect width="40" height="30" y="566.136" x="635.294" stroke="black" stroke-width="1.6" fill="cornflowerblue"/>
<rect width="40" height="30" y="536.136" x="52.9412" stroke="black" stroke-width="1.6" fill="cornflowerblue"/>
<rect width="40" height="30" y="536.136" x="92.9412" stroke="black" stroke-width="1.6" fill="cornflowerblue"/>
<rect width="40" height="30" y="536.136" x="132.941" stroke="black" stroke-width="1.6" fill="cornflowerblue"/>
<rect width="40" height="30" y="536.136" x="172.941" stroke="black" stroke-width="1.6" fill="cornflowerblue"/>
<rect width="40" height="30" y="536.136" x="212.941" stroke="black" stroke-width="1.6" fill="cornflowerblue"/>
<rect width="40" height="30" y="536.136" x="252.941" stroke="black" stroke-width="1.6" fill="cornflowerblue"/>
<rect width="40" height="30" y="536.136" x="292.941" stroke="black" stroke-width="1.6" fill="cornflowerblue"/>
<rect width="40" height="30" y="536.136" x="332.941" stroke="black" stroke-width="1.6" fill="cornflowerblue"/>
<rect width="40" height="30" y="536.136" x="372.941" stroke="black" stroke-width="1.6" fill="cornflowerblue"/>
<rect width="40" height="30" y="536.136" x="412.941" stroke="black" stroke-width="1.6" fill="cornflowerblue"/>
<rect width="40" height="30" y="536.136" x="452.941" stroke="black" stroke-width="1.6" fill="cornflowerblue"/>
<rect width="40" height="30" y="536.136" x="492.941" stroke="black" stroke-width="1.6" fill="cornflowerblue"/>
<rect width="40" height="30" y="536.136" x="532.941" stroke="black" stroke-width="1.6" fill="cornflowerblue"/>
<rect width="40" height="30" y="536.136" x="572.941" stroke="black" stroke-width="1.6" fill="cornflowerblue"/>
<rect width="40" height="30" y="536.136" x="612.941" stroke="black" stroke-width="1.6" fill="cornflowerblue"/>
<rect width="40" height="30" y="506.136" x="70.5882" stroke="black" stroke-width="1.6" fill="cornflowerblue"/>
<rect width="40" height="30" y="506.136" x="110.588" stroke="black" stroke-width="1.6" fill="cornflowerblue"/>
<rect width="40" height="30" y="506.136" x="150.588" stroke="black" stroke-width="1.6" fill="cornflowerblue"/>
<rect width="40" height="30" y="506.136" x="190.588" stroke="black" stroke-width="1.6" fill="cornflowerblue"/>
<rect width="40" height="30" y="506.136" x="230.588" stroke="black" stroke-width="1.6" fill="cornflowerblue"/>
<rect width="40" height="30" y="506.136" x="270.588" stroke="black" stroke-width="1.6" fill="cornflowerblue"/>
<rect width="40" height="30" y="506.136" x="310.588" stroke="black" stroke-width="1.6" fill="cornflowerblue"/>
<rect width="40" height="30" y="506.136" x="350.588" stroke="black" stroke-width="1.6" fill="cornflowerblue"/>
<rect width="40" height="30" y="506.136" x="390.588" stroke="black" stroke-width="1.6" fill="cornflowerblue"/>
<rect width="40" height="30" y="506.136" x="430.588" stroke="black" stroke-width="1.6" fill="cornflowerblue"/>
<rect width="40" height="30" y="506.136" x="470.588" stroke="black" stroke-width="1.6" fill="cornflowerblue"/>
<rect width="40" height="30" y="506.136" x="510.588" stroke="black" stroke-width="1.6" fill="cornflowerblue"/>
<rect width="40" height="30" y="506.136" x="550.588" stroke="black" stroke-width="1.6" fill="cornflowerblue"/>
<rect width="40" height="30" y="506.136" x="590.588" stroke="black" stroke-width="1.6" fill="cornflowerblue"/>
<rect width="40" height="30" y="476.136" x="88.2353" stroke="black" stroke-width="1.6" fill="cornflowerblue"/>
<rect width="40" height="30" y="476.136" x="128.235" stroke="black" stroke-width="1.6" fill="cornflowerblue"/>
<rect width="40" height="30" y="476.136" x="168.235" stroke="black" stroke-width="1.6" fill="cornflowerblue"/>
<rect width="40" height="30" y="476.136" x="208.235" stroke="black" stroke-width="1.6" fill="cornflowerblue"/>
<rect width="40" height="30" y="476.136" x="248.235" stroke="black" stroke-width="1.6" fill="cornflowerblue"/>
<rect width="40" height="30" y="476.136" x="288.235" stroke="black" stroke-width="1.6" fill="cornflowerblue"/>
<rect width="40" height="30" y="476.136" x="328.235" stroke="black" stroke-width="1.6" fill="cornflowerblue"/>
<rect width="40" height="30" y="476.136" x="368.235" stroke="black" stroke-width="1.6" fill="cornflowerblue"/>
<rect width="40" height="30" y="476.136" x="408.235" stroke="black" stroke-width="1.6" fill="cornflowerblue"/>
<rect width="40" height="30" y="476.136" x="448.235" stroke="black" stroke-width="1.6" fill="cornflowerblue"/>
<rect width="40" height="30" y="476.136" x="488.235" stroke="black" stroke-width="1.6" fill="cornflowerblue"/>
<rect width="40" height="30" y="476.136" x="528.235" stroke="black" stroke-width="1.6" fill="cornflowerblue"/>
<rect width="40" height="30" y="476.136" x="568.235" stroke="black" stroke-width="1.6" fill="cornflowerblue"/>
<rect width="40" height="30" y="446.136" x="105.882" stroke="black" stroke-width="1.6" fill="cornflowerblue"/>
<rect width="40" height="30" y="446.136" x="145.882" stroke="black" stroke-width="1.6" fill="cornflowerblue"/>
<rect width="40" height="30" y="446.136" x="185.882" stroke="black" stroke-width="1.6" fill="cornflowerblue"/>
<rect width="40" height="30" y="446.136" x="225.882" stroke="black" stroke-width="1.6" fill="cornflowerblue"/>
<rect width="40" height="30" y="446.136" x="265.882" stroke="black" stroke-width="1.6" fill="cornflowerblue"/>
<rect width="40" height="30" y="446.136" x="305.882" stroke="black" stroke-width="1.6" fill="cornflowerblue"/>
<rect width="40" height="30" y="446.136" x="345.882" stroke="black" stroke-width="1.6" fill="cornflowerblue"/>
<rect width="40" height="30" y="446.136" x="385.882" stroke="black" stroke-width="1.6" fill="cornflowerblue"/>
<rect width="40" height="30" y="446.136" x="425.882" stroke="black" stroke-width="1.6" fill="cornflowerblue"/>
<rect width="40" height="30" y="446.136" x="465.882" stroke="black" stroke-width="1.6" fill="cornflowerblue"/>
<rect width="40" height="30" y="446.136" x="505.882" stroke="black" stroke-width="1.6" fill="cornflowerblue"/>
<rect width="40" height="30" y="446.136" x="545.882" stroke="black" stroke-width="1.6" fill="cornflowerblue"/>
<rect width="40" height="30" y="416.136" x="123.529" stroke="black" stroke-width="1.6" fill="cornflowerblue"/>
<rect width="40" height="30" y="416.136" x="163.529" stroke="black" stroke-width="1.6" fill="cornflowerblue"/>
<rect width="40" height="30" y="416.136" x="203.529" stroke="black" stroke-width="1.6" fill="cornflowerblue"/>
<rect width="40" height="30" y="416.136" x="243.529" stroke="black" stroke-width="1.6" fill="cornflowerblue"/>
<rect width="40" height="30" y="416.136" x="283.529" stroke="black" stroke-width="1.6" fill="cornflowerblue"/>
<rect width="40" height="30" y="416.136" x="323.529" stroke="black" stroke-width="1.6" fill="cornflowerblue"/>
<rect width="40" height="30" y="416.136" x="363.529" stroke="black" stroke-width="1.6" fill="cornflowerblue"/>
<rect width="40" height="30" y="416.136" x="403.529" stroke="black" stroke-width="1.6" fill="cornflowerblue"/>
<rect width="40" height="30" y="416.136" x="443.529" stroke="black" stroke-width="1.6" fill="cornflowerblue"/>
<rect width="40" height="30" y="416.136" x="483.529" stroke="black" stroke-width="1.6" fill="cornflowerblue"/>
<rect width="40" height="30" y="416.136" x="523.529" stroke="black" stroke-width="1.6" fill="cornflowerblue"/>
<rect width="40" height="30" y="386.136" x="141.176" stroke="black" stroke-width="1.6" fill="cornflowerblue"/>
<rect width="40" height="30" y="386.136" x="181.176" stroke="black" stroke-width="1.6" fill="cornflowerblue"/>
<rect width="40" height="30" y="386.136" x="221.176" stroke="black" stroke-width="1.6" fill="cornflowerblue"/>
<rect width="40" height="30" y="386.136" x="261.176" stroke="black" stroke-width="1.6" fill="cornflowerblue"/>
<rect width="40" height="30" y="386.136" x="301.176" stroke="black" stroke-width="1.6" fill="cornflowerblue"/>
<rect width="40" height="30" y="386.136" x="341.176" stroke="black" stroke-width="1.6" fill="cornflowerblue"/>
<rect width="40" height="30" y="386.136" x="381.176" stroke="black" stroke-width="1.6" fill="cornflowerblue"/>
<rect width="40" height="30" y="386.136" x="421.176" stroke="black" stroke-width="1.6" fill="cornflowerblue"/>
<rect width="40" height="30" y="386.136" x="461.176" stroke="black" stroke-width="1.6" fill="cornflowerblue"/>
<rect width="40" height="30" y="386.136" x="501.176" stroke="black" stroke-width="1.6" fill="cornflowerblue"/>
<rect width="40" height="30" y="386.136" x="541.176" stroke="black" stroke-width="1.6" fill="cornflowerblue"/>
<rect width="40" height="30" y="356.136" x="158.824" stroke="black" stroke-width="1.6" fill="cornflowerblue"/>
<rect width="40" height="30" y="356.136" x="198.824" stroke="black" stroke-width="1.6" fill="cornflowerblue"/>
<rect width="40" height="30" y="356.136" x="238.824" stroke="black" stroke-width="1.6" fill="cornflowerblue"/>
<rect width="40" height="30" y="356.136" x="278.824" stroke="black" stroke-width="1.6" fill="cornflowerblue"/>
<rect width="40" height="30" y="356.136" x="318.824" stroke="black" stroke-width="1.6" fill="cornflowerblue"/>
<rect width="40" height="30" y="356.136" x="358.824" stroke="black" stroke-width="1.6" fill="cornflowerblue"/>
<rect width="40" height="30" y="356.136" x="398.824" stroke="black" stroke-width="1.6" fill="cornflowerblue"/>
<rect width="40" height="30" y="356.136" x="438.824" stroke="black" stroke-width="1.6" fill="cornflowerblue"/>
<rect width="40" height="30" y="356.136" x="478.824" stroke="black" stroke-width="1.6" fill="cornflowerblue"/>
<rect width="40" height="30" y="356.136" x="518.824" stroke="black" stroke-width="1.6" fill="cornflowerblue"/>
<rect width="40" height="30" y="326.136" x="176.471" stroke="black" stroke-width="1.6" fill="cornflowerblue"/>
<rect width="40" height="30" y="326.136" x="216.471" stroke="black" stroke-width="1.6" fill="cornflowerblue"/>
<rect width="40" height="30" y="326.136" x="256.471" stroke="black" stroke-width="1.6" fill="cornflowerblue"/>
<rect width="40" height="30" y="326.136" x="296.471" stroke="black" stroke-width="1.6" fill="cornflowerblue"/>
<rect width="40" height="30" y="326.136" x="336.471" stroke="black" stroke-width="1.6" fill="cornflowerblue"/>
<rect width="40" height="30" y="326.136" x="376.471" stroke="black" stroke-width="1.6" fill="cornflowerblue"/>
<rect width="40" height="30" y="326.136" x="416.471" stroke="black" stroke-width="1.6" fill="cornflowerblue"/>
<rect width="40" height="30" y="326.136" x="456.471" stroke="black" stroke-width="1.6" fill="cornflowerblue"/>
<rect width="40" height="30" y="326.136" x="496.471" stroke="black" stroke-width="1.6" fill="cornflowerblue"/>
<rect width="40" height="30" y="296.136" x="194.118" stroke="black" stroke-width="1.6" fill="cornflowerblue"/>
<rect width="40" height="30" y="296.136" x="234.118" stroke="black" stroke-width="1.6" fill="cornflowerblue"/>
<rect width="40" height="30" y="296.136" x="274.118" stroke="black" stroke-width="1.6" fill="cornflowerblue"/>
<rect width="40" height="30" y="296.136" x="314.118" stroke="black" stroke-width="1.6" fill="cornflowerblue"/>
<rect width="40" height="30" y="296.136" x="354.118" stroke="black" stroke-width="1.6" fill="cornflowerblue"/>
<rect width="40" height="30" y="296.136" x="394.118" stroke="black" stroke-width="1.6" fill="cornflowerblue"/>
<rect width="40" height="30" y="296.136" x="434.118" stroke="black" stroke-width="1.6" fill="cornflowerblue"/>
<rect width="40" height="30" y="296.136" x="474.118" stroke="black" stroke-width="1.6" fill="cornflowerblue"/>
<rect width="40" height="30" y="266.136" x="211.765" stroke="black" stroke-width="1.6" fill="cornflowerblue"/>
<rect width="40" height="30" y="266.136" x="251.765" stroke="black" stroke-width="1.6" fill="cornflowerblue"/>
<rect width="40" height="30" y="266.136" x="291.765" stroke="black" stroke-width="1.6" fill="cornflowerblue"/>
<rect width="40" height="30" y="266.136" x="331.765" stroke="black" stroke-width="1.6" fill="cornflowerblue"/>
<rect width="40" height="30" y="266.136" x="371.765" stroke="black" stroke-width="1.6" fill="cornflowerblue"/>
<rect width="40" height="30" y="266.136" x="411.765" stroke="black" stroke-width="1.6" fill="cornflowerblue"/>
<rect width="40" height="30" y="266.136" x="451.765" stroke="black" stroke-width="1.6" fill="cornflowerblue"/>
<rect width="40" height="30" y="236.136" x="229.412" stroke="black" stroke-width="1.6" fill="cornflowerblue"/>
<rect width="40" height="30" y="236.136" x="269.412" stroke="black" stroke-width="1.6" fill="cornflowerblue"/>
<rect width="40" height="30" y="236.136" x="309.412" stroke="black" stroke-width="1.6" fill="cornflowerblue"/>
<rect width="40" height="30" y="236.136" x="349.412" stroke="black" stroke-width="1.6" fill="cornflowerblue"/>
<rect width="40" height="30" y="236.136" x="389.412" stroke="black" stroke-width="1.6" fill="cornflowerblue"/>
<rect width="40" height="30" y="236.136" x="429.412" stroke="black" stroke-width="1.6" fill="cornflowerblue"/>
<rect width="40" height="30" y="206.136" x="247.059" stroke="black" stroke-width="1.6" fill="cornflowerblue"/>
<rect width="40" height="30" y="206.136" x="287.059" stroke="black" stroke-width="1.6" fill="cornflowerblue"/>
<rect width="40" height="30" y="206.136" x="327.059" stroke="black" stroke-width="1.6" fill="cornflowerblue"/>
<rect width="40" height="30" y="206.136" x="367.059" stroke="black" stroke-width="1.6" fill="cornflowerblue"/>
<rect width="40" height="30" y="206.136" x="407.059" stroke="black" stroke-width="1.6" fill="cornflowerblue"/>
<rect width="40" height="30" y="176.136" x="264.706" stroke="black" stroke-width="1.6" fill="cornflowerblue"/>
<rect width="40" height="30" y="176.136" x="304.706" stroke="black" stroke-width="1.6" fill="cornflowerblue"/>
<rect width="40" height="30" y="176.136" x="344.706" stroke="black" stroke-width="1.6" fill="cornflowerblue"/>
<rect width="40" height="30" y="176.136" x="384.706" stroke="black" stroke-width="1.6" fill="cornflowerblue"/>
<rect width="40" height="30" y="146.136" x="282.353" stroke="black" stroke-width="1.6" fill="cornflowerblue"/>
<rect width="40" height="30" y="146.136" x="322.353" stroke="black" stroke-width="1.6" fill="cornflowerblue"/>
<rect width="40" height="30" y="146.136" x="362.353" stroke="black" stroke-width="1.6" fill="cornflowerblue"/>
<rect width="40" height="30" y="116.136" x="300" stroke="black" stroke-width="1.6" fill="cornflowerblue"/>
<rect width="40" height="30" y="116.136" x="340" stroke="black" stroke-width="1.6" fill="cornflowerblue"/>
<rect width="40" height="30" y="116.136" x="380" stroke="black" stroke-width="1.6" fill="cornflowerblue"/>
<rect width="40" height="30" y="86.1364" x="317.647" stroke="black" stroke-width="1.6" fill="cornflowerblue"/>
<rect width="40" height="30" y="86.1364" x="357.647" stroke="black" stroke-width="1.6" fill="cornflowerblue"/>
<rect width="40" height="30" y="56.1364" x="335.294" stroke="black" stroke-width="1.6" fill="cornflowerblue"/>
</svg>