<svg version="1.1"
baseProfile="full"
width="623" height="623" xmlns="http://www.w3.org/2000/svg">
<polygon points="311.5,0 0,539.534 623,539.534" fill="white" stroke="black" stroke-width="1.6" 
/>
<circle cx="74" cy="505.534" r="34" stroke="black" stroke-width="1.6" fill="cornflowerblue"/>
<circle cx="142" cy="505.534" r="34" stroke="black" stroke-width="1.6" fill="cornflowerblue"/>
<circle cx="210" cy="505.534" r="34" stroke="black" stroke-width="1.6" fill="cornflowerblue"/>
<circle cx="278" cy="505.534" r="34" stroke="black" stroke-width="1.6" fill="cornflowerblue"/>
<circle cx="346" cy="505.534" r="34" stroke="black" stroke-width="1.6" fill="cornflowerblue"/>
<circle cx="414" cy="505.534" r="34" stroke="black" stroke-width="1.6" fill="cornflowerblue"/>
<circle cx="482" cy="505.534" r="34" stroke="black" stroke-width="1.6" fill="cornflowerblue"/>
<circle cx="114" cy="437.534" r="34" stroke="black" stroke-width="1.6" fill="cornflowerblue"/>
<circle cx="182" cy="437.534" r="34" stroke="black" stroke-width="1.6" fill="cornflowerblue"/>
<circle cx="250" cy="437.534" r="34" stroke="black" stroke-width="1.6" fill="cornflowerblue"/>
<circle cx="318" cy="437.534" r="34" stroke="black" stroke-width="1.6" fill="cornflowerblue"/>
<circle cx="386" cy="437.534" r="34" stroke="black" stroke-width="1.6" fill="cornflowerblue"/>
<circle cx="454" cy="437.534" r="34" stroke="black" stroke-width="1.6" fill="cornflowerblue"/>
<circle cx="154" cy="369.534" r="34" stroke="black" stroke-width="1.6" fill="cornflowerblue"/>
<circle cx="222" cy="369.534" r="34" stroke="black" stroke-width="1.6" fill="cornflowerblue"/>
<circle cx="290" cy="369.534" r="34" stroke="black" stroke-width="1.6" fill="cornflowerblue"/>
<circle cx="358" cy="369.534" r="34" stroke="black" stroke-width="1.6" fill="cornflowerblue"/>
<circle cx="426" cy="369.534" r="34" stroke="black" stroke-width="1.6" fill="cornflowerblue"/>
<circle cx="194" cy="301.534" r="34" stroke="black" stroke-width="1.6" fill="cornflowerblue"/>
<circle cx="262" cy="301.534" r="34" stroke="black" stroke-width="1.6" fill="cornflowerblue"/>
<circle cx="330" cy="301.534" r="34" stroke="black" stroke-width="1.6" fill="cornflowerblue"/>
<circle cx="398" cy="301.534" r="34" stroke="black" stroke-width="1.6" fill="cornflowerblue"/>
<circle cx="234" cy="233.534" r="34" stroke="black" stroke-width="1.6" fill="cornflowerblue"/>
<circle cx="302" cy="233.534" r="34" stroke="black" stroke-width="1.6" fill="cornflowerblue"/>
<circle cx="370" cy="233.534" r="34" stroke="black" stroke-width="1.6" fill="cornflowerblue"/>
<circle cx="274" cy="165.534" r="34" stroke="black" stroke-width="1.6" fill="cornflowerblue"/>
<circle cx="342" cy="165.534" r="34" stroke="black" stroke-width="1.6" fill="cornflowerblue"/>
 </svg>