<svg version="1.1"
baseProfile="full"
width="623" height="623" xmlns="http://www.w3.org/2000/svg">
<polygon points="311.5,0 0,539.534 623,539.534" fill="white" stroke="black" stroke-width="1.6" 
/>
<rect width="100" height="50" y="489.534" x="29.4118" stroke="black" stroke-width="1.6" fill="cornflowerblue"/>/>
<rect width="100" height="50" y="489.534" x="129.412" stroke="black" stroke-width="1.6" fill="cornflowerblue"/>/>
<rect width="100" height="50" y="489.534" x="229.412" stroke="black" stroke-width="1.6" fill="cornflowerblue"/>/>
<rect width="100" height="50" y="489.534" x="329.412" stroke="black" stroke-width="1.6" fill="cornflowerblue"/>/>
<rect width="100" height="50" y="489.534" x="429.412" stroke="black" stroke-width="1.6" fill="cornflowerblue"/>/>
<rect width="100" height="50" y="439.534" x="58.8235" stroke="black" stroke-width="1.6" fill="cornflowerblue"/>/>
<rect width="100" height="50" y="439.534" x="158.824" stroke="black" stroke-width="1.6" fill="cornflowerblue"/>/>
<rect width="100" height="50" y="439.534" x="258.824" stroke="black" stroke-width="1.6" fill="cornflowerblue"/>/>
<rect width="100" height="50" y="439.534" x="358.824" stroke="black" stroke-width="1.6" fill="cornflowerblue"/>/>
<rect width="100" height="50" y="439.534" x="458.824" stroke="black" stroke-width="1.6" fill="cornflowerblue"/>/>
<rect width="100" height="50" y="389.534" x="88.2353" stroke="black" stroke-width="1.6" fill="cornflowerblue"/>/>
<rect width="100" height="50" y="389.534" x="188.235" stroke="black" stroke-width="1.6" fill="cornflowerblue"/>/>
<rect width="100" height="50" y="389.534" x="288.235" stroke="black" stroke-width="1.6" fill="cornflowerblue"/>/>
<rect width="100" height="50" y="389.534" x="388.235" stroke="black" stroke-width="1.6" fill="cornflowerblue"/>/>
<rect width="100" height="50" y="339.534" x="117.647" stroke="black" stroke-width="1.6" fill="cornflowerblue"/>/>
<rect width="100" height="50" y="339.534" x="217.647" stroke="black" stroke-width="1.6" fill="cornflowerblue"/>/>
<rect width="100" height="50" y="339.534" x="317.647" stroke="black" stroke-width="1.6" fill="cornflowerblue"/>/>
<rect width="100" height="50" y="289.534" x="147.059" stroke="black" stroke-width="1.6" fill="cornflowerblue"/>/>
<rect width="100" height="50" y="289.534" x="247.059" stroke="black" stroke-width="1.6" fill="cornflowerblue"/>/>
<rect width="100" height="50" y="289.534" x="347.059" stroke="black" stroke-width="1.6" fill="cornflowerblue"/>/>
<rect width="100" height="50" y="239.534" x="176.471" stroke="black" stroke-width="1.6" fill="cornflowerblue"/>/>
<rect width="100" height="50" y="239.534" x="276.471" stroke="black" stroke-width="1.6" fill="cornflowerblue"/>/>
<rect width="100" height="50" y="189.534" x="205.882" stroke="black" stroke-width="1.6" fill="cornflowerblue"/>/>
<rect width="100" height="50" y="189.534" x="305.882" stroke="black" stroke-width="1.6" fill="cornflowerblue"/>/>
<rect width="100" height="50" y="139.534" x="235.294" stroke="black" stroke-width="1.6" fill="cornflowerblue"/>/>
 </svg>