<svg version="1.1"
baseProfile="full"
width="1120" height="1120" xmlns="http://www.w3.org/2000/svg">
<rect width="456" height="745" y="0" x="0" stroke="black" stroke-width="1.6" fill="white"/>/>
<rect width="50" height="100" y="0" x="0" stroke="black" stroke-width="1.6" fill="cornflowerblue"/>/>
<rect width="50" height="100" y="100" x="0" stroke="black" stroke-width="1.6" fill="cornflowerblue"/>/>
<rect width="50" height="100" y="200" x="0" stroke="black" stroke-width="1.6" fill="cornflowerblue"/>/>
<rect width="50" height="100" y="300" x="0" stroke="black" stroke-width="1.6" fill="cornflowerblue"/>/>
<rect width="50" height="100" y="400" x="0" stroke="black" stroke-width="1.6" fill="cornflowerblue"/>/>
<rect width="50" height="100" y="500" x="0" stroke="black" stroke-width="1.6" fill="cornflowerblue"/>/>
<rect width="50" height="100" y="600" x="0" stroke="black" stroke-width="1.6" fill="cornflowerblue"/>/>
<rect width="50" height="100" y="0" x="50" stroke="black" stroke-width="1.6" fill="cornflowerblue"/>/>
<rect width="50" height="100" y="100" x="50" stroke="black" stroke-width="1.6" fill="cornflowerblue"/>/>
<rect width="50" height="100" y="200" x="50" stroke="black" stroke-width="1.6" fill="cornflowerblue"/>/>
<rect width="50" height="100" y="300" x="50" stroke="black" stroke-width="1.6" fill="cornflowerblue"/>/>
<rect width="50" height="100" y="400" x="50" stroke="black" stroke-width="1.6" fill="cornflowerblue"/>/>
<rect width="50" height="100" y="500" x="50" stroke="black" stroke-width="1.6" fill="cornflowerblue"/>/>
<rect width="50" height="100" y="600" x="50" stroke="black" stroke-width="1.6" fill="cornflowerblue"/>/>
<rect width="50" height="100" y="0" x="100" stroke="black" stroke-width="1.6" fill="cornflowerblue"/>/>
<rect width="50" height="100" y="100" x="100" stroke="black" stroke-width="1.6" fill="cornflowerblue"/>/>
<rect width="50" height="100" y="200" x="100" stroke="black" stroke-width="1.6" fill="cornflowerblue"/>/>
<rect width="50" height="100" y="300" x="100" stroke="black" stroke-width="1.6" fill="cornflowerblue"/>/>
<rect width="50" height="100" y="400" x="100" stroke="black" stroke-width="1.6" fill="cornflowerblue"/>/>
<rect width="50" height="100" y="500" x="100" stroke="black" stroke-width="1.6" fill="cornflowerblue"/>/>
<rect width="50" height="100" y="600" x="100" stroke="black" stroke-width="1.6" fill="cornflowerblue"/>/>
<rect width="50" height="100" y="0" x="150" stroke="black" stroke-width="1.6" fill="cornflowerblue"/>/>
<rect width="50" height="100" y="100" x="150" stroke="black" stroke-width="1.6" fill="cornflowerblue"/>/>
<rect width="50" height="100" y="200" x="150" stroke="black" stroke-width="1.6" fill="cornflowerblue"/>/>
<rect width="50" height="100" y="300" x="150" stroke="black" stroke-width="1.6" fill="cornflowerblue"/>/>
<rect width="50" height="100" y="400" x="150" stroke="black" stroke-width="1.6" fill="cornflowerblue"/>/>
<rect width="50" height="100" y="500" x="150" stroke="black" stroke-width="1.6" fill="cornflowerblue"/>/>
<rect width="50" height="100" y="600" x="150" stroke="black" stroke-width="1.6" fill="cornflowerblue"/>/>
<rect width="50" height="100" y="0" x="200" stroke="black" stroke-width="1.6" fill="cornflowerblue"/>/>
<rect width="50" height="100" y="100" x="200" stroke="black" stroke-width="1.6" fill="cornflowerblue"/>/>
<rect width="50" height="100" y="200" x="200" stroke="black" stroke-width="1.6" fill="cornflowerblue"/>/>
<rect width="50" height="100" y="300" x="200" stroke="black" stroke-width="1.6" fill="cornflowerblue"/>/>
<rect width="50" height="100" y="400" x="200" stroke="black" stroke-width="1.6" fill="cornflowerblue"/>/>
<rect width="50" height="100" y="500" x="200" stroke="black" stroke-width="1.6" fill="cornflowerblue"/>/>
<rect width="50" height="100" y="600" x="200" stroke="black" stroke-width="1.6" fill="cornflowerblue"/>/>
<rect width="50" height="100" y="0" x="250" stroke="black" stroke-width="1.6" fill="cornflowerblue"/>/>
<rect width="50" height="100" y="100" x="250" stroke="black" stroke-width="1.6" fill="cornflowerblue"/>/>
<rect width="50" height="100" y="200" x="250" stroke="black" stroke-width="1.6" fill="cornflowerblue"/>/>
<rect width="50" height="100" y="300" x="250" stroke="black" stroke-width="1.6" fill="cornflowerblue"/>/>
<rect width="50" height="100" y="400" x="250" stroke="black" stroke-width="1.6" fill="cornflowerblue"/>/>
<rect width="50" height="100" y="500" x="250" stroke="black" stroke-width="1.6" fill="cornflowerblue"/>/>
<rect width="50" height="100" y="600" x="250" stroke="black" stroke-width="1.6" fill="cornflowerblue"/>/>
<rect width="50" height="100" y="0" x="300" stroke="black" stroke-width="1.6" fill="cornflowerblue"/>/>
<rect width="50" height="100" y="100" x="300" stroke="black" stroke-width="1.6" fill="cornflowerblue"/>/>
<rect width="50" height="100" y="200" x="300" stroke="black" stroke-width="1.6" fill="cornflowerblue"/>/>
<rect width="50" height="100" y="300" x="300" stroke="black" stroke-width="1.6" fill="cornflowerblue"/>/>
<rect width="50" height="100" y="400" x="300" stroke="black" stroke-width="1.6" fill="cornflowerblue"/>/>
<rect width="50" height="100" y="500" x="300" stroke="black" stroke-width="1.6" fill="cornflowerblue"/>/>
<rect width="50" height="100" y="600" x="300" stroke="black" stroke-width="1.6" fill="cornflowerblue"/>/>
<rect width="50" height="100" y="0" x="350" stroke="black" stroke-width="1.6" fill="cornflowerblue"/>/>
<rect width="50" height="100" y="100" x="350" stroke="black" stroke-width="1.6" fill="cornflowerblue"/>/>
<rect width="50" height="100" y="200" x="350" stroke="black" stroke-width="1.6" fill="cornflowerblue"/>/>
<rect width="50" height="100" y="300" x="350" stroke="black" stroke-width="1.6" fill="cornflowerblue"/>/>
<rect width="50" height="100" y="400" x="350" stroke="black" stroke-width="1.6" fill="cornflowerblue"/>/>
<rect width="50" height="100" y="500" x="350" stroke="black" stroke-width="1.6" fill="cornflowerblue"/>/>
<rect width="50" height="100" y="600" x="350" stroke="black" stroke-width="1.6" fill="cornflowerblue"/>/>
<rect width="50" height="100" y="0" x="400" stroke="black" stroke-width="1.6" fill="cornflowerblue"/>/>
<rect width="50" height="100" y="100" x="400" stroke="black" stroke-width="1.6" fill="cornflowerblue"/>/>
<rect width="50" height="100" y="200" x="400" stroke="black" stroke-width="1.6" fill="cornflowerblue"/>/>
<rect width="50" height="100" y="300" x="400" stroke="black" stroke-width="1.6" fill="cornflowerblue"/>/>
<rect width="50" height="100" y="400" x="400" stroke="black" stroke-width="1.6" fill="cornflowerblue"/>/>
<rect width="50" height="100" y="500" x="400" stroke="black" stroke-width="1.6" fill="cornflowerblue"/>/>
<rect width="50" height="100" y="600" x="400" stroke="black" stroke-width="1.6" fill="cornflowerblue"/>/>
 </svg>