<svg version="1.1"
baseProfile="full"
width="800" height="800" xmlns="http://www.w3.org/2000/svg">

<polygon points="100,200 150,200 150,300 100,300 " style="fill:cornflowerblue;stroke:black;stroke-width:1.6" />
<polygon points="401,401 436.5,462.488 365.5,462.488 " style="fill:cornflowerblue;stroke:black;stroke-width:1.6" />
<polygon points="634,600 633.933,602.135 633.732,604.261 633.398,606.371 632.932,608.455 632.336,610.507 631.612,612.516 630.764,614.476 629.794,616.38 628.707,618.218 627.507,619.985 626.197,621.672 624.785,623.275 623.275,624.785 621.672,626.197 619.985,627.507 618.218,628.707 616.38,629.794 614.477,630.764 612.516,631.612 610.507,632.336 608.455,632.932 606.371,633.398 604.261,633.732 602.135,633.933 600,634 597.865,633.933 595.739,633.732 593.629,633.398 591.545,632.932 589.493,632.336 587.484,631.612 585.524,630.764 583.62,629.794 581.782,628.707 580.015,627.507 578.328,626.197 576.725,624.785 575.215,623.275 573.803,621.672 572.493,619.985 571.293,618.218 570.206,616.38 569.236,614.477 568.388,612.516 567.664,610.507 567.068,608.456 566.602,606.371 566.268,604.261 566.067,602.135 566,600 566.067,597.865 566.268,595.739 566.602,593.629 567.068,591.545 567.664,589.494 568.388,587.484 569.236,585.524 570.206,583.62 571.293,581.782 572.493,580.015 573.802,578.328 575.215,576.725 576.725,575.215 578.327,573.803 580.015,572.493 581.782,571.293 583.62,570.206 585.523,569.236 587.484,568.388 589.493,567.664 591.544,567.068 593.629,566.602 595.739,566.268 597.865,566.067 600,566 602.135,566.067 604.261,566.268 606.371,566.602 608.455,567.068 610.506,567.664 612.516,568.388 614.476,569.236 616.379,570.206 618.218,571.293 619.985,572.493 621.672,573.802 623.274,575.215 624.785,576.725 626.197,578.327 627.506,580.015 628.707,581.782 629.794,583.62 630.764,585.523 631.612,587.484 632.336,589.493 632.932,591.544 633.398,593.629 633.732,595.738 633.933,597.865 " style="fill:cornflowerblue;stroke:black;stroke-width:1.6" />
</svg>