<svg version="1.1"
baseProfile="full"
width="500" height="500" xmlns="http://www.w3.org/2000/svg">

<polygon points="426,213 425.58,226.374 424.32,239.696 422.227,252.912 419.308,265.971 415.575,278.821 411.042,291.41 405.728,303.691 399.653,315.613 392.842,327.131 385.321,338.198 377.119,348.771 368.27,358.808 358.809,368.27 348.771,377.119 338.198,385.321 327.131,392.842 315.614,399.653 303.691,405.728 291.411,411.042 278.821,415.575 265.971,419.308 252.912,422.227 239.696,424.32 226.375,425.58 213,426 199.626,425.58 186.304,424.32 173.088,422.227 160.029,419.308 147.18,415.575 134.59,411.043 122.309,405.728 110.387,399.654 98.8692,392.842 87.8021,385.321 77.229,377.12 67.1918,368.271 57.73,358.809 48.881,348.772 40.6796,338.199 33.1584,327.131 26.3469,315.614 20.272,303.691 14.9578,291.411 10.4251,278.821 6.69192,265.971 3.77292,252.913 1.67964,239.697 0.420342,226.375 7.49917e-10,213.001 0.420271,199.626 1.67949,186.305 3.7727,173.088 6.69163,160.03 10.4248,147.18 14.9574,134.59 20.2716,122.31 26.3464,110.387 33.1578,98.8695 40.679,87.8023 48.8802,77.2292 57.7292,67.192 67.1909,57.7302 77.2281,48.8811 87.8011,40.6798 98.8683,33.1586 110.386,26.347 122.308,20.2722 134.589,14.9579 147.179,10.4252 160.028,6.69199 173.087,3.77297 186.303,1.67967 199.625,0.420359 212.999,1.68734e-09 226.374,0.420253 239.695,1.67946 252.911,3.77265 265.97,6.69156 278.82,10.4247 291.41,14.9573 303.69,20.2714 315.613,26.3462 327.13,33.1576 338.197,40.6788 348.771,48.8801 358.808,57.729 368.27,67.1907 377.119,77.2279 385.32,87.8009 392.841,98.868 399.653,110.386 405.728,122.308 411.042,134.588 415.575,147.178 419.308,160.028 422.227,173.087 424.32,186.303 425.58,199.625 " style="fill:cornflowerblue;stroke:black;stroke-width:1.6" />
</svg>